<svg width="150" height="150" viewBox="0 0 150 150" fill="none" xmlns="http://www.w3.org/2000/svg">
<path d="M136.935 69C136.935 34.7146 109.22 7 75 7C40.7796 7 13 34.7146 13 69C13 103.285 40.7146 131 75 131C109.285 131 136.935 103.22 136.935 69Z" fill="#9391F7"/>
<path d="M63.4197 71.9927C68.7545 71.1469 72.3326 66.1375 71.4869 60.8027C70.6411 55.468 65.6317 51.8898 60.297 52.7356C54.9622 53.5813 51.384 58.5908 52.2298 63.9255C53.1406 69.2602 58.15 72.8384 63.4197 71.9927ZM88.9223 71.9927C94.2571 71.1469 97.8353 66.1375 96.9895 60.8027C96.1438 55.468 91.1343 51.8898 85.7996 52.7356C80.4648 53.5813 76.8867 58.5908 77.7324 63.9255C78.5782 69.2602 83.5876 72.8384 88.9223 71.9927Z" fill="white"/>
<path d="M74.6096 22.1585C48.1312 22.1585 26.6621 44.0179 26.6621 70.9518H38.893C38.893 50.7188 54.767 34.3894 74.5446 34.3894C94.3872 34.3894 110.196 50.7839 110.196 70.9518H122.427C122.557 44.0179 101.088 22.1585 74.6096 22.1585Z" fill="white"/>
<path d="M115.02 144.92C105.84 144.92 97.21 141.34 90.71 134.85C84.22 128.36 80.64 119.73 80.64 110.54C80.64 101.35 84.22 92.73 90.71 86.23C97.2 79.74 105.83 76.16 115.02 76.16C124.21 76.16 132.83 79.74 139.33 86.23C145.82 92.72 149.4 101.35 149.4 110.54C149.4 119.73 145.82 128.35 139.33 134.85C132.84 141.34 124.21 144.92 115.02 144.92ZM115.02 76.76C106 76.76 97.52 80.27 91.14 86.65C84.76 93.03 81.25 101.51 81.25 110.53C81.25 119.55 84.76 128.04 91.14 134.42C97.52 140.8 106 144.31 115.02 144.31C124.04 144.31 132.53 140.8 138.91 134.42C145.29 128.04 148.8 119.56 148.8 110.53C148.8 101.5 145.29 93.03 138.91 86.65C132.53 80.27 124.05 76.76 115.02 76.76Z" fill="white"/>
<path d="M115.02 144.62C133.842 144.62 149.1 129.362 149.1 110.54C149.1 91.7182 133.842 76.46 115.02 76.46C96.1981 76.46 80.94 91.7182 80.94 110.54C80.94 129.362 96.1981 144.62 115.02 144.62Z" fill="#FCFFFF"/>
<path d="M119.74 119.46C119.74 118.18 119.39 117.17 118.68 116.41C117.97 115.66 116.77 114.96 115.07 114.32C113.37 113.68 111.91 113.05 110.68 112.42C109.45 111.79 108.4 111.07 107.52 110.25C106.64 109.43 105.96 108.47 105.47 107.37C104.98 106.27 104.73 104.95 104.73 103.43C104.73 100.8 105.57 98.65 107.25 96.97C108.93 95.29 111.16 94.31 113.95 94.03V89.04H117.68V94.1C120.43 94.49 122.59 95.64 124.14 97.54C125.7 99.45 126.47 101.92 126.47 104.95H119.73C119.73 103.08 119.34 101.69 118.57 100.76C117.8 99.83 116.77 99.37 115.48 99.37C114.19 99.37 113.22 99.73 112.52 100.46C111.82 101.18 111.47 102.18 111.47 103.46C111.47 104.64 111.81 105.59 112.5 106.31C113.18 107.03 114.46 107.76 116.32 108.5C118.18 109.25 119.71 109.95 120.91 110.61C122.11 111.27 123.12 112.02 123.94 112.85C124.76 113.68 125.39 114.63 125.83 115.7C126.27 116.77 126.48 118.01 126.48 119.42C126.48 122.07 125.66 124.21 124.01 125.86C122.36 127.51 120.09 128.48 117.2 128.78V133.42H113.49V128.8C110.3 128.46 107.83 127.33 106.08 125.4C104.33 123.48 103.45 120.92 103.45 117.73H110.19C110.19 119.58 110.63 121 111.51 121.99C112.39 122.98 113.65 123.47 115.3 123.47C116.67 123.47 117.75 123.11 118.54 122.38C119.33 121.65 119.73 120.68 119.73 119.45L119.74 119.46Z" fill="#0F1616"/>
</svg>
