<svg width="150" height="150" viewBox="0 0 150 150" fill="none" xmlns="http://www.w3.org/2000/svg">
<rect x="0.331848" y="5.08582" width="124.562" height="124.578" rx="62.2812" fill="#213147"/>
<g clip-path="url(#clip0_18080_87)">
<path d="M29.4355 51.499V83.251C29.4355 85.2922 30.5047 87.139 32.2867 88.1758L59.7943 104.052C61.5439 105.056 63.7147 105.056 65.4643 104.052L92.9719 88.1758C94.7215 87.1714 95.8231 85.2922 95.8231 83.251V51.499C95.8231 49.4578 94.7539 47.611 92.9719 46.5742L65.4643 30.6982C63.7147 29.6938 61.5439 29.6938 59.7943 30.6982L32.2867 46.5742C30.5371 47.5786 29.4679 49.4578 29.4679 51.499H29.4355Z" fill="#213147"/>
<path d="M68.6071 73.531L64.6867 84.2878C64.5895 84.5794 64.5895 84.9034 64.6867 85.2274L71.4259 103.728L79.2343 99.2242L69.8707 73.531C69.6439 72.9478 68.8339 72.9478 68.6071 73.531Z" fill="#12AAFF"/>
<path d="M76.4803 55.4518C76.2535 54.8686 75.4435 54.8686 75.2167 55.4518L71.2963 66.2086C71.1991 66.5002 71.1991 66.8242 71.2963 67.1482L82.3447 97.4422L90.1531 92.9386L76.4803 55.4842V55.4518Z" fill="#12AAFF"/>
<path d="M62.6131 31.897C62.8075 31.897 63.0019 31.9618 63.1639 32.059L92.9071 49.231C93.2635 49.4254 93.4579 49.8142 93.4579 50.203V84.547C93.4579 84.9358 93.2311 85.3246 92.9071 85.519L63.1639 102.691C63.0019 102.788 62.8075 102.853 62.6131 102.853C62.4187 102.853 62.2243 102.788 62.0623 102.691L32.3191 85.519C31.9627 85.3246 31.7683 84.9358 31.7683 84.547V50.1706C31.7683 49.7818 31.9951 49.393 32.3191 49.1986L62.0623 32.0266C62.2243 31.9294 62.4187 31.8646 62.6131 31.8646V31.897ZM62.6131 26.875C61.5439 26.875 60.5071 27.1342 59.5351 27.685L29.7919 44.857C27.8803 45.9586 26.7139 47.9674 26.7139 50.1706V84.5146C26.7139 86.7178 27.8803 88.7266 29.7919 89.8282L59.5351 107C60.4747 107.551 61.5439 107.81 62.6131 107.81C63.6823 107.81 64.7191 107.551 65.6911 107L95.4343 89.8282C97.3459 88.7266 98.5123 86.7178 98.5123 84.5146V50.1706C98.5123 47.9674 97.3459 45.9586 95.4343 44.857L65.6587 27.685C64.7191 27.1342 63.6499 26.875 62.5807 26.875H62.6131Z" fill="#9DCCED"/>
<path d="M42.9139 97.4746L45.6679 89.9578L51.1759 94.5262L46.0243 99.2566L42.9139 97.4746Z" fill="#213147"/>
<path d="M60.0859 47.7406H52.5367C51.9859 47.7406 51.4675 48.097 51.2731 48.6154L35.1055 92.9386L42.9139 97.4422L60.7339 48.6154C60.8959 48.1618 60.5719 47.7082 60.1183 47.7082L60.0859 47.7406Z" fill="white"/>
<path d="M73.3051 47.7406H65.7559C65.2051 47.7406 64.6867 48.097 64.4923 48.6154L46.0243 99.2242L53.8327 103.728L73.9207 48.6154C74.0827 48.1618 73.7587 47.7082 73.3051 47.7082V47.7406Z" fill="white"/>
</g>
<ellipse cx="104.298" cy="103.003" rx="22" ry="27.5" transform="rotate(32.3394 104.298 103.003)" fill="#213147"/>
<path d="M115.02 144.92C105.84 144.92 97.21 141.34 90.71 134.85C84.22 128.36 80.64 119.73 80.64 110.54C80.64 101.35 84.22 92.73 90.71 86.23C97.2 79.74 105.83 76.16 115.02 76.16C124.21 76.16 132.83 79.74 139.33 86.23C145.82 92.72 149.4 101.35 149.4 110.54C149.4 119.73 145.82 128.35 139.33 134.85C132.84 141.34 124.21 144.92 115.02 144.92ZM115.02 76.76C106 76.76 97.52 80.27 91.14 86.65C84.76 93.03 81.25 101.51 81.25 110.53C81.25 119.55 84.76 128.04 91.14 134.42C97.52 140.8 106 144.31 115.02 144.31C124.04 144.31 132.53 140.8 138.91 134.42C145.29 128.04 148.8 119.56 148.8 110.53C148.8 101.5 145.29 93.03 138.91 86.65C132.53 80.27 124.05 76.76 115.02 76.76Z" fill="white"/>
<path d="M115.02 144.62C133.842 144.62 149.1 129.362 149.1 110.54C149.1 91.7182 133.842 76.46 115.02 76.46C96.1981 76.46 80.94 91.7182 80.94 110.54C80.94 129.362 96.1981 144.62 115.02 144.62Z" fill="#FCFFFF"/>
<path d="M119.74 119.46C119.74 118.18 119.39 117.17 118.68 116.41C117.97 115.66 116.77 114.96 115.07 114.32C113.37 113.68 111.91 113.05 110.68 112.42C109.45 111.79 108.4 111.07 107.52 110.25C106.64 109.43 105.96 108.47 105.47 107.37C104.98 106.27 104.73 104.95 104.73 103.43C104.73 100.8 105.57 98.65 107.25 96.97C108.93 95.29 111.16 94.31 113.95 94.03V89.04H117.68V94.1C120.43 94.49 122.59 95.64 124.14 97.54C125.7 99.45 126.47 101.92 126.47 104.95H119.73C119.73 103.08 119.34 101.69 118.57 100.76C117.8 99.83 116.77 99.37 115.48 99.37C114.19 99.37 113.22 99.73 112.52 100.46C111.82 101.18 111.47 102.18 111.47 103.46C111.47 104.64 111.81 105.59 112.5 106.31C113.18 107.03 114.46 107.76 116.32 108.5C118.18 109.25 119.71 109.95 120.91 110.61C122.11 111.27 123.12 112.02 123.94 112.85C124.76 113.68 125.39 114.63 125.83 115.7C126.27 116.77 126.48 118.01 126.48 119.42C126.48 122.07 125.66 124.21 124.01 125.86C122.36 127.51 120.09 128.48 117.2 128.78V133.42H113.49V128.8C110.3 128.46 107.83 127.33 106.08 125.4C104.33 123.48 103.45 120.92 103.45 117.73H110.19C110.19 119.58 110.63 121 111.51 121.99C112.39 122.98 113.65 123.47 115.3 123.47C116.67 123.47 117.75 123.11 118.54 122.38C119.33 121.65 119.73 120.68 119.73 119.45L119.74 119.46Z" fill="#0F1616"/>
<defs>
<clipPath id="clip0_18080_87">
<rect width="81" height="81" fill="white" transform="translate(22.113 26.875)"/>
</clipPath>
</defs>
</svg>
