<svg width="12" height="13" viewBox="0 0 12 13" fill="none" xmlns="http://www.w3.org/2000/svg">
<g id="Frame 19">
<g id="Arbi Logo">
<g id="Group">
<g id="Group_2">
<g id="Group_3">
<g id="Group_4">
<path id="Vector" d="M6.7257 7.64988L6.25101 8.95232C6.23925 8.98763 6.23925 9.02686 6.25101 9.06609L7.067 11.3061L8.01244 10.7608L6.87869 7.64988C6.85123 7.57927 6.75316 7.57927 6.7257 7.64988Z" fill="#859292"/>
</g>
<g id="Group_5">
<path id="Vector_2" d="M7.6785 5.46092C7.65104 5.39031 7.55296 5.39031 7.5255 5.46092L7.05082 6.76335C7.03905 6.79866 7.03905 6.83789 7.05082 6.87712L8.38856 10.5451L9.334 9.99982L7.6785 5.46484V5.46092Z" fill="#859292"/>
</g>
</g>
</g>
<g id="Group_6">
<path id="Vector_3" d="M6 2.60806C6.02354 2.60806 6.04707 2.61591 6.06669 2.62768L9.668 4.70687C9.71115 4.7304 9.73469 4.77748 9.73469 4.82456V8.98293C9.73469 9.03001 9.70723 9.07708 9.668 9.10062L6.06669 11.1798C6.04707 11.1916 6.02354 11.1994 6 11.1994C5.97646 11.1994 5.95292 11.1916 5.93331 11.1798L2.332 9.10062C2.28885 9.07708 2.26531 9.03001 2.26531 8.98293V4.82063C2.26531 4.77356 2.29277 4.72648 2.332 4.70294L5.93331 2.62376C5.95292 2.61199 5.97646 2.60414 6 2.60414V2.60806ZM6 2C5.87054 2 5.745 2.03138 5.62731 2.09807L2.026 4.17726C1.79455 4.31064 1.65332 4.55387 1.65332 4.82063V8.97901C1.65332 9.24577 1.79455 9.489 2.026 9.62238L5.62731 11.7016C5.74108 11.7683 5.87054 11.7996 6 11.7996C6.12946 11.7996 6.25499 11.7683 6.37268 11.7016L9.97399 9.62238C10.2054 9.489 10.3467 9.24577 10.3467 8.97901V4.82063C10.3467 4.55387 10.2054 4.31064 9.97399 4.17726L6.36876 2.09807C6.25499 2.03138 6.12553 2 5.99608 2H6Z" fill="#859292"/>
</g>
<path id="Vector_4" d="M3.61523 10.5478L3.94869 9.6377L4.6156 10.1908L3.99184 10.7636L3.61523 10.5478Z" fill="#859292"/>
</g>
<g id="Group_7">
<path id="Vector_5" d="M5.69357 4.52663H4.77952C4.71283 4.52663 4.65006 4.56978 4.62652 4.63255L2.66895 9.99921L3.61439 10.5445L5.77203 4.63255C5.79165 4.57763 5.75242 4.52271 5.6975 4.52271L5.69357 4.52663Z" fill="#A6B4B4"/>
<path id="Vector_6" d="M7.29437 4.52663H6.38031C6.31362 4.52663 6.25086 4.56978 6.22732 4.63255L3.99121 10.7603L4.93665 11.3056L7.36891 4.63255C7.38852 4.57763 7.34929 4.52271 7.29437 4.52271V4.52663Z" fill="#A6B4B4"/>
</g>
</g>
</g>
</svg>
