<?xml version="1.0" encoding="UTF-8"?>
<svg id="Layer_2" data-name="Layer 2" xmlns="http://www.w3.org/2000/svg" viewBox="0 0 956.83 898.09">
  <defs>
    <style>
      .cls-1 {
        fill: #e8973d;
      }

      .cls-2 {
        fill: #fff;
      }

      .cls-3 {
        fill: #fcffff;
      }

      .cls-4 {
        fill: #0f1616;
      }
    </style>
  </defs>
  <g id="Layer_1-2" data-name="Layer 1">
    <g>
      <g>
        <path class="cls-1" d="M788.03,496.82c-53.43,214.31-270.49,344.74-484.83,291.29C88.95,734.69-41.47,517.61,11.98,303.31,65.39,88.98,282.45-41.46,496.72,11.97c214.32,53.43,344.74,270.53,291.31,484.85Z"/>
        <path class="cls-3" d="M576.38,343.06c7.96-53.23-32.57-81.85-87.98-100.94l17.98-72.11-43.89-10.94-17.5,70.21c-11.54-2.88-23.39-5.59-35.17-8.28l17.63-70.67-43.87-10.94-17.99,72.08c-9.55-2.18-18.93-4.33-28.03-6.59l.05-.23-60.53-15.11-11.68,46.88s32.57,7.46,31.88,7.93c17.78,4.44,20.99,16.2,20.45,25.53l-20.48,82.15c1.23.31,2.81.76,4.56,1.46-1.46-.36-3.03-.76-4.64-1.15l-28.7,115.07c-2.18,5.4-7.69,13.5-20.11,10.43.44.64-31.9-7.96-31.9-7.96l-21.79,50.24,57.12,14.24c10.63,2.66,21.04,5.45,31.29,8.08l-18.16,72.93,43.84,10.94,17.99-72.16c11.98,3.25,23.6,6.25,34.98,9.08l-17.93,71.82,43.89,10.94,18.16-72.8c74.85,14.16,131.13,8.45,154.82-59.24,19.09-54.51-.95-85.95-40.33-106.45,28.68-6.61,50.28-25.48,56.04-64.44ZM476.09,483.68c-13.56,54.51-105.34,25.04-135.09,17.65l24.1-96.62c29.75,7.43,125.16,22.13,110.99,78.97ZM489.67,342.27c-12.38,49.58-88.76,24.39-113.54,18.21l21.85-87.63c24.78,6.18,104.57,17.7,91.68,69.42Z"/>
      </g>
      <g>
        <circle class="cls-4" cx="736.06" cy="677.32" r="218.86"/>
        <path class="cls-2" d="M736.06,898.09c-58.97,0-114.41-22.96-156.11-64.66-41.7-41.7-64.66-97.14-64.66-156.11s22.96-114.41,64.66-156.11,97.14-64.66,156.11-64.66,114.41,22.96,156.11,64.66c41.7,41.7,64.66,97.14,64.66,156.11s-22.96,114.41-64.66,156.11c-41.7,41.7-97.14,64.66-156.11,64.66ZM736.06,460.38c-57.95,0-112.42,22.57-153.4,63.54s-63.54,95.45-63.54,153.4,22.57,112.43,63.54,153.4,95.45,63.54,153.4,63.54,112.43-22.57,153.4-63.54c40.97-40.97,63.54-95.45,63.54-153.4s-22.57-112.43-63.54-153.4c-40.97-40.97-95.45-63.54-153.4-63.54Z"/>
      </g>
      <g>
        <path class="cls-3" d="M736.03,547.56l-83.42,138.44,83.42-37.92v-100.52Z"/>
        <path class="cls-3" d="M736.03,648.08l-83.42,37.92,83.42,49.32v-87.24Z"/>
        <path class="cls-3" d="M819.47,686l-83.44-138.44v100.52l83.44,37.92Z"/>
        <path class="cls-3" d="M736.03,735.32l83.44-49.32-83.44-37.92v87.24Z"/>
        <path class="cls-3" d="M652.6,701.82l83.42,117.57v-68.28l-83.42-49.29Z"/>
        <path class="cls-3" d="M736.03,751.12v68.28l83.49-117.57-83.49,49.29Z"/>
      </g>
    </g>
  </g>
</svg>