<?xml version="1.0" encoding="UTF-8"?><svg id="Layer_1" xmlns="http://www.w3.org/2000/svg" viewBox="0 0 150 150"><defs><style>.cls-1{fill:#e8973d;}.cls-2{fill:#fff;}.cls-3{fill:#fcffff;}.cls-4{fill:#0f1616;}</style></defs><path class="cls-1" d="M123.21,82.44c-8.32,33.37-42.12,53.68-75.49,45.36C14.36,119.48-5.95,85.68,2.37,52.31,10.69,18.94,44.49-1.37,77.85,6.95c33.37,8.32,53.68,42.12,45.36,75.49Z"/><path class="cls-3" d="M90.25,58.5c1.24-8.29-5.07-12.74-13.7-15.72l2.8-11.23-6.83-1.7-2.73,10.93c-1.8-.45-3.64-.87-5.48-1.29l2.74-11-6.83-1.7-2.8,11.22c-1.49-.34-2.95-.67-4.36-1.03v-.04s-9.42-2.35-9.42-2.35l-1.82,7.3s5.07,1.16,4.96,1.23c2.77.69,3.27,2.52,3.18,3.97l-3.19,12.79c.19.05.44.12.71.23-.23-.06-.47-.12-.72-.18l-4.47,17.92c-.34.84-1.2,2.1-3.13,1.62.07.1-4.97-1.24-4.97-1.24l-3.39,7.82,8.89,2.22c1.65.41,3.28.85,4.87,1.26l-2.83,11.36,6.83,1.7,2.8-11.24c1.86.51,3.68.97,5.45,1.41l-2.79,11.18,6.83,1.7,2.83-11.33c11.65,2.21,20.42,1.32,24.11-9.22,2.97-8.49-.15-13.38-6.28-16.57,4.47-1.03,7.83-3.97,8.73-10.03ZM74.64,80.39c-2.11,8.49-16.4,3.9-21.03,2.75l3.75-15.04c4.63,1.16,19.49,3.45,17.28,12.3ZM76.75,58.37c-1.93,7.72-13.82,3.8-17.68,2.84l3.4-13.64c3.86.96,16.28,2.76,14.28,10.81Z"/><circle class="cls-3" cx="115.12" cy="110.54" r="34.08"/><path class="cls-2" d="M115.12,144.92c-9.18,0-17.81-3.58-24.31-10.07-6.49-6.49-10.07-15.12-10.07-24.31s3.58-17.81,10.07-24.31c6.49-6.49,15.12-10.07,24.31-10.07s17.81,3.58,24.31,10.07c6.49,6.49,10.07,15.12,10.07,24.31s-3.58,17.81-10.07,24.31c-6.49,6.49-15.12,10.07-24.31,10.07ZM115.12,76.76c-9.02,0-17.5,3.51-23.88,9.89-6.38,6.38-9.89,14.86-9.89,23.89s3.51,17.51,9.89,23.88c6.38,6.38,14.86,9.89,23.88,9.89s17.51-3.51,23.89-9.89c6.38-6.38,9.89-14.86,9.89-23.88s-3.51-17.51-9.89-23.89c-6.38-6.38-14.86-9.89-23.89-9.89Z"/><path class="cls-4" d="M114.96,90.25l-13.02,21.6,13.02-5.92v-15.69Z"/><path class="cls-4" d="M114.96,105.93l-13.02,5.92,13.02,7.7v-13.61Z"/><path class="cls-4" d="M127.99,111.85l-13.02-21.6v15.69l13.02,5.92Z"/><path class="cls-4" d="M114.96,119.55l13.02-7.7-13.02-5.92v13.61Z"/><path class="cls-4" d="M101.95,114.32l13.02,18.35v-10.65l-13.02-7.69Z"/><path class="cls-4" d="M114.96,122.01v10.65l13.03-18.35-13.03,7.69Z"/></svg>