<?xml version="1.0" encoding="UTF-8"?><svg id="Layer_1" xmlns="http://www.w3.org/2000/svg" viewBox="0 0 150 150"><defs><style>.cls-1{fill:#5a7ff2;}.cls-2{fill:#7b99f5;}.cls-3{fill:#fff;}.cls-4{fill:#beccfa;}.cls-5{fill:#fcffff;}.cls-6{fill:#0f1616;}</style></defs><circle class="cls-1" cx="62.72" cy="67.36" r="62.28"/><path class="cls-3" d="M62.71,21.48l-27.35,45.38,27.35-12.43V21.48Z"/><path class="cls-4" d="M62.71,54.43l-27.35,12.43,27.35,16.17v-28.6Z"/><path class="cls-4" d="M90.07,66.86l-27.35-45.38v32.95l27.35,12.43Z"/><path class="cls-2" d="M62.71,83.03l27.35-16.17-27.35-12.43v28.6Z"/><path class="cls-3" d="M35.36,72.05l27.35,38.54v-22.38l-27.35-16.16Z"/><path class="cls-4" d="M62.71,88.21v22.38l27.37-38.54-27.37,16.16Z"/><circle class="cls-5" cx="115.18" cy="110.54" r="34.08"/><path class="cls-3" d="M115.18,144.92c-9.18,0-17.81-3.58-24.31-10.07-6.49-6.49-10.07-15.12-10.07-24.31s3.58-17.81,10.07-24.31c6.49-6.49,15.12-10.07,24.31-10.07s17.81,3.58,24.31,10.07c6.49,6.49,10.07,15.12,10.07,24.31s-3.58,17.81-10.07,24.31c-6.49,6.49-15.12,10.07-24.31,10.07ZM115.18,76.76c-9.02,0-17.51,3.51-23.89,9.89-6.38,6.38-9.89,14.86-9.89,23.88s3.51,17.51,9.89,23.88c6.38,6.38,14.86,9.89,23.89,9.89s17.51-3.51,23.89-9.89c6.38-6.38,9.89-14.86,9.89-23.88s-3.51-17.51-9.89-23.88c-6.38-6.38-14.86-9.89-23.89-9.89Z"/><path class="cls-6" d="M130.37,106.58c.64-4.25-2.6-6.53-7.02-8.05l1.43-5.75-3.5-.87-1.4,5.6c-.92-.23-1.87-.45-2.81-.66l1.41-5.64-3.5-.87-1.43,5.75c-.76-.17-1.51-.35-2.24-.53v-.02s-4.82-1.21-4.82-1.21l-.93,3.74s2.6.6,2.54.63c1.42.35,1.67,1.29,1.63,2.04l-1.63,6.55c.1.02.22.06.36.12-.12-.03-.24-.06-.37-.09l-2.29,9.18c-.17.43-.61,1.08-1.6.83.03.05-2.54-.64-2.54-.64l-1.74,4.01,4.56,1.14c.85.21,1.68.43,2.5.64l-1.45,5.82,3.5.87,1.43-5.76c.96.26,1.88.5,2.79.72l-1.43,5.73,3.5.87,1.45-5.81c5.97,1.13,10.46.67,12.35-4.73,1.52-4.35-.08-6.86-3.22-8.49,2.29-.53,4.01-2.03,4.47-5.14ZM122.37,117.8c-1.08,4.35-8.4,2-10.78,1.41l1.92-7.71c2.37.59,9.98,1.76,8.85,6.3ZM123.45,106.52c-.99,3.95-7.08,1.95-9.06,1.45l1.74-6.99c1.98.49,8.34,1.41,7.31,5.54Z"/></svg>