<?xml version="1.0" encoding="UTF-8"?><svg id="Layer_1" xmlns="http://www.w3.org/2000/svg" viewBox="0 0 150 150"><defs><style>.cls-1{fill:#5a7ff2;}.cls-2{fill:#7b99f5;}.cls-3{fill:#fff;}.cls-4{fill:#beccfa;}.cls-5{fill:#fcffff;}.cls-6{fill:#0f1616;}</style></defs><circle class="cls-1" cx="62.72" cy="67.36" r="62.28"/><circle class="cls-5" cx="115.18" cy="110.54" r="34.08"/><path class="cls-3" d="M115.18,144.92c-9.18,0-17.81-3.58-24.31-10.07-6.49-6.49-10.07-15.12-10.07-24.31s3.58-17.81,10.07-24.31c6.49-6.49,15.12-10.07,24.31-10.07s17.81,3.58,24.31,10.07c6.49,6.49,10.07,15.12,10.07,24.31s-3.58,17.81-10.07,24.31c-6.49,6.49-15.12,10.07-24.31,10.07ZM115.18,76.76c-9.02,0-17.51,3.51-23.89,9.89-6.38,6.38-9.89,14.86-9.89,23.88s3.51,17.51,9.89,23.89c6.38,6.38,14.86,9.89,23.89,9.89s17.51-3.51,23.89-9.89c6.38-6.38,9.89-14.86,9.89-23.89s-3.51-17.51-9.89-23.88c-6.38-6.38-14.86-9.89-23.89-9.89Z"/><path class="cls-6" d="M119.91,119.46c0-1.28-.35-2.29-1.06-3.05-.71-.75-1.91-1.45-3.61-2.09-1.7-.64-3.16-1.27-4.39-1.9-1.23-.63-2.28-1.35-3.16-2.17-.88-.82-1.56-1.78-2.05-2.88-.49-1.1-.74-2.42-.74-3.94,0-2.63.84-4.78,2.52-6.46s3.91-2.66,6.7-2.94v-4.99h3.73v5.06c2.75.39,4.91,1.54,6.46,3.44,1.56,1.91,2.33,4.38,2.33,7.41h-6.74c0-1.87-.39-3.26-1.16-4.19-.77-.93-1.8-1.39-3.09-1.39s-2.26.36-2.96,1.09c-.7.72-1.05,1.72-1.05,3,0,1.18.34,2.13,1.03,2.85.68.72,1.96,1.45,3.82,2.19,1.86.75,3.39,1.45,4.59,2.11,1.2.66,2.21,1.41,3.03,2.24.82.83,1.45,1.78,1.89,2.85.44,1.07.65,2.31.65,3.72,0,2.65-.82,4.79-2.47,6.44-1.65,1.65-3.92,2.62-6.81,2.92v4.64h-3.71v-4.62c-3.19-.34-5.66-1.47-7.41-3.4-1.75-1.92-2.63-4.48-2.63-7.67h6.74c0,1.85.44,3.27,1.32,4.26.88.99,2.14,1.48,3.79,1.48,1.37,0,2.45-.36,3.24-1.09s1.19-1.7,1.19-2.93Z"/><path class="cls-3" d="M62.71,21.48l-27.35,45.38,27.35-12.43V21.48Z"/><path class="cls-4" d="M62.71,54.43l-27.35,12.43,27.35,16.17v-28.6Z"/><path class="cls-4" d="M90.07,66.86l-27.35-45.38v32.95l27.35,12.43Z"/><path class="cls-2" d="M62.71,83.03l27.35-16.17-27.35-12.43v28.6Z"/><path class="cls-3" d="M35.36,72.05l27.35,38.54v-22.38l-27.35-16.16Z"/><path class="cls-4" d="M62.71,88.21v22.38l27.37-38.54-27.37,16.16Z"/></svg>