<?xml version="1.0" encoding="UTF-8"?>
<svg id="Layer_2" data-name="Layer 2" xmlns="http://www.w3.org/2000/svg" viewBox="0 0 957.7 898.09">
  <defs>
    <style>
      .cls-1 {
        fill: #082e81;
      }

      .cls-2 {
        fill: #fff;
      }

      .cls-3 {
        fill: #fcffff;
      }

      .cls-4 {
        fill: #0f1616;
      }
    </style>
  </defs>
  <g id="Layer_1-2" data-name="Layer 1">
    <g>
      <circle class="cls-1" cx="400" cy="400" r="400"/>
      <g>
        <path class="cls-3" d="M399.94,113.29l-172.45,286.17,172.45-78.38V113.29Z"/>
        <path class="cls-3" d="M399.94,321.08l-172.45,78.38,172.45,101.96v-180.34Z"/>
        <path class="cls-3" d="M572.42,399.46L399.94,113.29v207.79l172.48,78.38Z"/>
        <path class="cls-3" d="M399.94,501.42l172.48-101.96-172.48-78.38v180.34Z"/>
        <path class="cls-3" d="M227.49,432.18l172.45,243.03v-141.14l-172.45-101.9Z"/>
        <path class="cls-3" d="M399.94,534.08v141.14l172.58-243.03-172.58,101.9Z"/>
      </g>
      <g>
        <g>
          <circle class="cls-4" cx="736.93" cy="677.32" r="218.86"/>
          <path class="cls-2" d="M736.93,898.09c-58.97,0-114.41-22.96-156.11-64.66-41.7-41.7-64.66-97.14-64.66-156.11s22.96-114.41,64.66-156.11c41.7-41.7,97.14-64.66,156.11-64.66s114.41,22.96,156.11,64.66c41.7,41.7,64.66,97.14,64.66,156.11s-22.96,114.41-64.66,156.11c-41.7,41.7-97.14,64.66-156.11,64.66ZM736.93,460.38c-57.95,0-112.43,22.57-153.4,63.54-40.97,40.97-63.54,95.45-63.54,153.4s22.57,112.43,63.54,153.4c40.97,40.97,95.45,63.54,153.4,63.54s112.43-22.57,153.4-63.54c40.97-40.97,63.54-95.45,63.54-153.4s-22.57-112.43-63.54-153.4c-40.97-40.97-95.45-63.54-153.4-63.54Z"/>
        </g>
        <path class="cls-3" d="M767.28,734.61c0-8.19-2.27-14.71-6.82-19.56-4.55-4.85-12.27-9.32-23.16-13.41-10.89-4.1-20.29-8.17-28.18-12.22-7.89-4.05-14.67-8.69-20.31-13.94-5.65-5.25-10.04-11.41-13.19-18.51-3.15-7.09-4.72-15.54-4.72-25.33,0-16.88,5.4-30.73,16.19-41.52s25.13-17.09,43.01-18.88v-32.07h23.98v32.52c17.69,2.5,31.52,9.87,41.52,22.11,9.99,12.24,14.99,28.1,14.99,47.59h-43.32c0-11.99-2.47-20.96-7.42-26.9-4.95-5.94-11.57-8.92-19.86-8.92s-14.54,2.32-19.04,6.97c-4.5,4.65-6.74,11.07-6.74,19.26,0,7.59,2.2,13.69,6.59,18.29,4.4,4.6,12.56,9.29,24.5,14.09,11.94,4.8,21.76,9.32,29.45,13.56,7.69,4.25,14.19,9.04,19.48,14.39,5.29,5.35,9.34,11.44,12.14,18.29,2.8,6.84,4.2,14.81,4.2,23.91,0,16.99-5.3,30.78-15.89,41.37-10.59,10.59-25.18,16.84-43.76,18.74v29.83h-23.83v-29.68c-20.48-2.2-36.35-9.47-47.59-21.81-11.24-12.34-16.86-28.75-16.86-49.23h43.31c0,11.89,2.82,21.01,8.47,27.35,5.64,6.35,13.76,9.52,24.36,9.52,8.79,0,15.74-2.32,20.83-6.97s7.64-10.92,7.64-18.81Z"/>
      </g>
    </g>
  </g>
</svg>