<?xml version="1.0" encoding="UTF-8"?>
<svg id="Layer_2" data-name="Layer 2" xmlns="http://www.w3.org/2000/svg" viewBox="0 0 957.7 898.09">
  <defs>
    <style>
      .cls-1 {
        fill: #082e81;
      }

      .cls-2 {
        fill: #fff;
      }

      .cls-3 {
        fill: #fcffff;
      }

      .cls-4 {
        fill: #0f1616;
      }
    </style>
  </defs>
  <g id="Layer_1-2" data-name="Layer 1">
    <g>
      <g>
        <circle class="cls-1" cx="400" cy="400" r="400"/>
        <g>
          <path class="cls-3" d="M399.94,113.29l-172.45,286.17,172.45-78.38V113.29Z"/>
          <path class="cls-3" d="M399.94,321.08l-172.45,78.38,172.45,101.96v-180.34Z"/>
          <path class="cls-3" d="M572.42,399.46L399.94,113.29v207.79l172.48,78.38Z"/>
          <path class="cls-3" d="M399.94,501.42l172.48-101.96-172.48-78.38v180.34Z"/>
          <path class="cls-3" d="M227.49,432.18l172.45,243.03v-141.14l-172.45-101.9Z"/>
          <path class="cls-3" d="M399.94,534.08v141.14l172.58-243.03-172.58,101.9Z"/>
        </g>
      </g>
      <g>
        <g>
          <circle class="cls-4" cx="736.93" cy="677.32" r="218.86"/>
          <path class="cls-2" d="M736.93,898.09c-58.97,0-114.41-22.96-156.11-64.66-41.7-41.7-64.66-97.14-64.66-156.11s22.96-114.41,64.66-156.11c41.7-41.7,97.14-64.66,156.11-64.66s114.41,22.96,156.11,64.66c41.7,41.7,64.66,97.14,64.66,156.11s-22.96,114.41-64.66,156.11c-41.7,41.7-97.14,64.66-156.11,64.66ZM736.93,460.38c-57.95,0-112.43,22.57-153.4,63.54-40.97,40.97-63.54,95.45-63.54,153.4s22.57,112.43,63.54,153.4c40.97,40.98,95.45,63.54,153.4,63.54s112.43-22.57,153.4-63.54c40.97-40.97,63.54-95.45,63.54-153.4s-22.57-112.43-63.54-153.4c-40.97-40.98-95.45-63.54-153.4-63.54Z"/>
        </g>
        <path class="cls-3" d="M834.45,651.89c4.08-27.27-16.68-41.93-45.07-51.71l9.21-36.94-22.49-5.6-8.97,35.97c-5.91-1.47-11.98-2.86-18.02-4.24l9.03-36.2-22.47-5.6-9.22,36.93c-4.89-1.11-9.7-2.22-14.36-3.38l.03-.12-31.01-7.74-5.98,24.02s16.68,3.82,16.33,4.06c9.11,2.27,10.75,8.3,10.48,13.08l-10.49,42.08c.63.16,1.44.39,2.34.75-.75-.19-1.55-.39-2.38-.59l-14.7,58.95c-1.11,2.77-3.94,6.92-10.3,5.34.22.33-16.34-4.08-16.34-4.08l-11.16,25.74,29.26,7.29c5.44,1.36,10.78,2.79,16.03,4.14l-9.31,37.36,22.46,5.6,9.22-36.97c6.14,1.67,12.09,3.2,17.92,4.65l-9.18,36.79,22.49,5.6,9.31-37.29c38.34,7.26,67.17,4.33,79.31-30.35,9.78-27.92-.49-44.03-20.66-54.53,14.69-3.39,25.76-13.05,28.71-33.01ZM783.07,723.93c-6.95,27.92-53.96,12.83-69.2,9.04l12.35-49.5c15.24,3.8,64.12,11.34,56.86,40.46ZM790.03,651.49c-6.34,25.4-45.47,12.49-58.16,9.33l11.19-44.89c12.69,3.16,53.57,9.07,46.97,35.56Z"/>
      </g>
    </g>
  </g>
</svg>