<svg width="7" height="14" viewBox="0 0 7 14" fill="none" xmlns="http://www.w3.org/2000/svg">
<path d="M7 9.25781C7 10.0547 6.75117 10.7409 6.25351 11.3164C5.75585 11.8919 5.10939 12.2474 4.31413 12.3828V13.75C4.31413 13.8229 4.29162 13.8828 4.24661 13.9297C4.20159 13.9766 4.14408 14 4.07405 14H3.06123C2.9962 14 2.93994 13.9753 2.89242 13.9258C2.84491 13.8763 2.82115 13.8177 2.82115 13.75V12.3828C2.49104 12.3359 2.17219 12.2552 1.86459 12.1406C1.55699 12.026 1.30316 11.9102 1.10309 11.793C0.903027 11.6758 0.717967 11.5508 0.547912 11.418C0.377857 11.2852 0.261569 11.1875 0.199049 11.125C0.136529 11.0625 0.0927644 11.0156 0.0677563 10.9844C-0.0172712 10.875 -0.0222728 10.7682 0.0527514 10.6641L0.825502 9.60938C0.860513 9.55729 0.918032 9.52604 0.998057 9.51562C1.07308 9.50521 1.1331 9.52865 1.17812 9.58594L1.19312 9.60156C1.7583 10.1172 2.366 10.4427 3.01621 10.5781C3.20127 10.6198 3.38633 10.6406 3.57139 10.6406C3.97652 10.6406 4.33289 10.5286 4.64049 10.3047C4.94809 10.0807 5.10189 9.76302 5.10189 9.35156C5.10189 9.20573 5.06437 9.06771 4.98935 8.9375C4.91433 8.80729 4.83055 8.69792 4.73802 8.60938C4.64549 8.52083 4.49919 8.42318 4.29913 8.31641C4.09906 8.20964 3.93401 8.1263 3.80397 8.06641C3.67392 8.00651 3.47386 7.92188 3.20377 7.8125C3.00871 7.72917 2.85491 7.66406 2.74237 7.61719C2.62984 7.57031 2.47604 7.5013 2.28097 7.41016C2.08591 7.31901 1.92961 7.23828 1.81207 7.16797C1.69453 7.09766 1.55324 7.00521 1.38818 6.89062C1.22313 6.77604 1.08934 6.66536 0.986804 6.55859C0.884271 6.45182 0.775485 6.32422 0.660448 6.17578C0.545411 6.02734 0.456632 5.8763 0.394112 5.72266C0.331592 5.56901 0.279075 5.39583 0.236561 5.20312C0.194047 5.01042 0.17279 4.80729 0.17279 4.59375C0.17279 3.875 0.41787 3.24479 0.908028 2.70312C1.39819 2.16146 2.03589 1.8125 2.82115 1.65625V0.25C2.82115 0.182292 2.84491 0.123698 2.89242 0.0742188C2.93994 0.0247396 2.9962 0 3.06123 0H4.07405C4.14408 0 4.20159 0.0234375 4.24661 0.0703125C4.29162 0.117188 4.31413 0.177083 4.31413 0.25V1.625C4.59922 1.65625 4.87556 1.71615 5.14315 1.80469C5.41074 1.89323 5.62831 1.98047 5.79586 2.06641C5.96341 2.15234 6.12222 2.25 6.27226 2.35938C6.42231 2.46875 6.51985 2.54427 6.56486 2.58594C6.60987 2.6276 6.64739 2.66406 6.6774 2.69531C6.76242 2.78906 6.77493 2.88802 6.71491 2.99219L6.10721 4.13281C6.0672 4.21094 6.00968 4.2526 5.93466 4.25781C5.86463 4.27344 5.79711 4.25521 5.73209 4.20312C5.71708 4.1875 5.68082 4.15625 5.6233 4.10938C5.56579 4.0625 5.46825 3.99349 5.33071 3.90234C5.19317 3.8112 5.04687 3.72786 4.89182 3.65234C4.73677 3.57682 4.55046 3.50911 4.33289 3.44922C4.11532 3.38932 3.9015 3.35938 3.69143 3.35938C3.21628 3.35938 2.82865 3.47135 2.52855 3.69531C2.22846 3.91927 2.07841 4.20833 2.07841 4.5625C2.07841 4.69792 2.09966 4.82292 2.14218 4.9375C2.18469 5.05208 2.25847 5.16016 2.3635 5.26172C2.46853 5.36328 2.56732 5.44922 2.65985 5.51953C2.75238 5.58984 2.89242 5.67057 3.07998 5.76172C3.26754 5.85286 3.41884 5.92318 3.53388 5.97266C3.64892 6.02214 3.82397 6.09375 4.05905 6.1875C4.32413 6.29167 4.5267 6.3737 4.66674 6.43359C4.80679 6.49349 4.99685 6.58464 5.23693 6.70703C5.47701 6.82943 5.66582 6.9401 5.80336 7.03906C5.94091 7.13802 6.09596 7.26823 6.26851 7.42969C6.44107 7.59115 6.57361 7.75651 6.66614 7.92578C6.75867 8.09505 6.83745 8.29427 6.90247 8.52344C6.96749 8.7526 7 8.9974 7 9.25781Z" fill="#E5E5E5"/>
</svg>
