<?xml version="1.0" encoding="UTF-8"?><svg id="Layer_1" xmlns="http://www.w3.org/2000/svg" xmlns:xlink="http://www.w3.org/1999/xlink" viewBox="0 0 500 500"><defs><style>.cls-1{fill:url(#linear-gradient);}.cls-2{fill:#fcfeff;}.cls-3{fill:url(#IC_Gradient_White-2);}.cls-4{fill:url(#IC_Gradient_White-3);}.cls-5{fill:url(#IC_Gradient_White-4);}.cls-6{fill:url(#IC_Gradient_White-5);}.cls-7{fill:url(#IC_Gradient_White);}.cls-8{fill:url(#radial-gradient-5);}.cls-9{fill:url(#radial-gradient-3);}.cls-10{fill:url(#radial-gradient-4);}.cls-11{fill:url(#radial-gradient-2);}.cls-12{fill:url(#linear-gradient-2);}.cls-13{fill:url(#radial-gradient);}</style><radialGradient id="radial-gradient" cx="249.68" cy="249.86" fx="249.68" fy="249.86" r="250.49" gradientUnits="userSpaceOnUse"><stop offset=".04" stop-color="#6935ff"/><stop offset=".69" stop-color="#6834fd"/><stop offset=".92" stop-color="#6533f6"/><stop offset="1" stop-color="#6433f2"/></radialGradient><radialGradient id="radial-gradient-2" cx="156.5" cy="392.84" fx="156.5" fy="392.84" r="129.93" gradientUnits="userSpaceOnUse"><stop offset=".04" stop-color="#e66e95"/><stop offset=".14" stop-color="#e58faa"/><stop offset=".29" stop-color="#e4b5c4"/><stop offset=".43" stop-color="#e4d4d8"/><stop offset=".57" stop-color="#e4eae6"/><stop offset=".71" stop-color="#e4f7ef"/><stop offset=".83" stop-color="#e4fcf2"/></radialGradient><linearGradient id="IC_Gradient_White" x1="105.35" y1="356.91" x2="204.81" y2="356.91" gradientUnits="userSpaceOnUse"><stop offset="0" stop-color="#fcfeff"/><stop offset="1" stop-color="#f7f8f8"/></linearGradient><radialGradient id="radial-gradient-3" cx="344.99" cy="419.44" fx="344.99" fy="419.44" r="133.86" gradientUnits="userSpaceOnUse"><stop offset=".12" stop-color="#e6638e"/><stop offset=".26" stop-color="#e589a6"/><stop offset=".48" stop-color="#e4bac7"/><stop offset=".67" stop-color="#e4dede"/><stop offset=".83" stop-color="#e4f4ec"/><stop offset=".93" stop-color="#e4fcf2"/></radialGradient><linearGradient id="IC_Gradient_White-2" x1="295.56" y1="356.91" x2="395.02" y2="356.91" xlink:href="#IC_Gradient_White"/><radialGradient id="radial-gradient-4" cx="284.41" cy="183.76" fx="284.41" fy="183.76" r="232.5" gradientUnits="userSpaceOnUse"><stop offset=".16" stop-color="#a290d5"/><stop offset=".28" stop-color="#cdbfcd"/><stop offset=".38" stop-color="#ede3c8"/><stop offset=".44" stop-color="#faf1c6"/><stop offset=".47" stop-color="#e6f5d3"/><stop offset=".51" stop-color="#d5f9de"/><stop offset=".56" stop-color="#c9fce7"/><stop offset=".62" stop-color="#c2fdeb"/><stop offset=".8" stop-color="#c1feed"/></radialGradient><radialGradient id="radial-gradient-5" cx="227.21" cy="203.39" fx="227.21" fy="203.39" r="118.29" gradientUnits="userSpaceOnUse"><stop offset=".04" stop-color="#fcfeff"/><stop offset=".48" stop-color="#f5d0dc"/><stop offset="1" stop-color="#ed98b0"/></radialGradient><linearGradient id="IC_Gradient_White-3" x1="248.94" y1="157.34" x2="350.41" y2="157.34" xlink:href="#IC_Gradient_White"/><linearGradient id="linear-gradient" x1="265.33" y1="293.73" x2="304.36" y2="203.39" gradientUnits="userSpaceOnUse"><stop offset="0" stop-color="#faeda5"/><stop offset=".12" stop-color="#e5efb5"/><stop offset=".39" stop-color="#b9f3d9"/><stop offset=".52" stop-color="#a9f5e7"/><stop offset=".58" stop-color="#aff5e8"/><stop offset=".65" stop-color="#c1f7ee"/><stop offset=".74" stop-color="#dffaf6"/><stop offset=".8" stop-color="#fcfeff"/></linearGradient><linearGradient id="IC_Gradient_White-4" x1="248.94" y1="244.83" x2="350.21" y2="244.83" xlink:href="#IC_Gradient_White"/><linearGradient id="linear-gradient-2" x1="151.05" y1="157.41" x2="260.94" y2="157.41" gradientUnits="userSpaceOnUse"><stop offset=".28" stop-color="#faf0bb"/><stop offset=".4" stop-color="#f7edbd"/><stop offset=".47" stop-color="#efe4c4"/><stop offset=".54" stop-color="#e0d5d0"/><stop offset=".59" stop-color="#cdbfe2"/><stop offset=".65" stop-color="#b3a4f8"/><stop offset=".65" stop-color="#b3a4f9"/><stop offset=".7" stop-color="#b8aaf9"/><stop offset=".78" stop-color="#c7bdfa"/><stop offset=".87" stop-color="#e0dcfc"/><stop offset=".95" stop-color="#fcfeff"/></linearGradient><linearGradient id="IC_Gradient_White-5" x1="149.59" y1="157.35" x2="251.85" y2="157.35" xlink:href="#IC_Gradient_White"/></defs><circle class="cls-13" cx="249.68" cy="249.86" r="242.4"/><g><path class="cls-11" d="m116.27,294.16l80.21,47.39c4,2.37,6.46,6.67,6.46,11.32v60.69c0,6.77-8.69,9.55-12.62,4.04l-81.94-114.84c-3.75-5.25,2.34-11.89,7.9-8.61Z"/><path class="cls-7" d="m195.9,422.41c-2.78,0-5.4-1.32-7.11-3.72l-81.94-114.84c-2.21-3.09-1.96-7.05.61-9.85,2.57-2.8,6.49-3.38,9.76-1.45l80.21,47.39c4.55,2.69,7.38,7.64,7.38,12.93v60.69c0,3.91-2.41,7.21-6.13,8.41-.92.29-1.86.44-2.77.44Zm-82.69-127.25c-1.25,0-2.32.63-3,1.37-1.04,1.13-1.74,3.16-.32,5.16l81.94,114.84c1.59,2.23,3.98,2.44,5.69,1.89,1.71-.55,3.54-2.11,3.54-4.85v-60.69c0-3.97-2.12-7.69-5.54-9.71l-80.21-47.39h0c-.73-.43-1.45-.61-2.11-.61Z"/></g><g><path class="cls-9" d="m384.1,294.16l-80.21,47.39c-4,2.37-6.46,6.67-6.46,11.32v60.69c0,6.77,8.69,9.55,12.62,4.04l81.94-114.84c3.75-5.25-2.34-11.89-7.9-8.61Z"/><path class="cls-3" d="m304.47,422.41c-.92,0-1.85-.14-2.77-.44-3.73-1.19-6.13-4.49-6.13-8.41v-60.69c0-5.29,2.83-10.24,7.38-12.93l80.21-47.39c3.27-1.93,7.19-1.35,9.76,1.45,2.57,2.8,2.81,6.76.61,9.85l-81.94,114.84c-1.71,2.4-4.33,3.72-7.11,3.72Zm82.69-127.25c-.66,0-1.38.18-2.11.61h0l-80.21,47.39c-3.42,2.02-5.54,5.74-5.54,9.71v60.69c0,2.74,1.83,4.3,3.54,4.85s4.11.34,5.69-1.89l81.94-114.84c1.43-2,.72-4.03-.32-5.16-.68-.74-1.75-1.37-3-1.37Z"/></g><g><g><path class="cls-10" d="m151.23,236.57c.05.28.1.57.17.85.77,3.07,2.74,5.7,5.46,7.31l87.45,51.68c1.86,1.1,3.94,1.65,6.02,1.65.02,0,.04,0,.06,0v-106.54l-99.16,45.07Z"/><path class="cls-2" d="m249.48,299.49c-2.26-.39-3.51-1.08-5.65-2.35l-87.45-50.68c-3.17-1.87-5.5-4.99-6.4-8.56-.08-.32-.14-.64-.19-.96l-.17-1.6,1.33-.64,102.05-46.38-2.41,111.16h-1.1Zm-95.3-61.77c.76,2.18,2.28,4.06,4.28,5.24l87.45,51.68c.93.55,1.95.94,3.01,1.16v-101.14l-94.74,43.06Z"/></g><g><path class="cls-8" d="m348.77,236.55c.49-2.79-.04-5.68-1.51-8.12l-86.79-144.43c-2.13-3.54-5.95-5.72-10.09-5.74v113.23l98.38,45.06Z"/><path class="cls-4" d="m348.17,237.87l-98.38-45.06-.85-1.32v-113.23l1.46-1.46c4.61.03,8.95,2.49,11.33,6.44l86.79,144.43c1.64,2.73,2.24,5.97,1.69,9.12l-2.04,1.07Zm-96.32-47.32l95.64,43.8c-.03-1.82-.53-3.61-1.47-5.18l-86.79-144.43c-1.6-2.66-4.34-4.46-7.38-4.92v110.73Z"/></g><g><path class="cls-1" d="m250.39,298.04c2.08-.01,4.15-.56,6-1.66l86.78-51.68c2.71-1.61,4.66-4.23,5.42-7.29.07-.29.12-.57.17-.86l-98.38-45.06h0v106.54Z"/><path class="cls-5" d="m250.4,299.49l-1.46-1.46v-106.54l2.06-1.32,98.38,45.06.83,1.57c-.06.32-.11.65-.2.97-.86,3.4-3.08,6.38-6.09,8.18l-86.79,51.68c-2.03,1.21-4.36,1.86-6.74,1.87Zm1.45-105.73v102.71c1.34-.2,2.63-.65,3.8-1.35l86.79-51.68c2.26-1.34,3.95-3.54,4.67-6.06l-95.25-43.62Z"/></g><g><path class="cls-12" d="m250.35,78.26h-.02c-4.14,0-7.98,2.16-10.13,5.71l-87.45,144.43c-1.49,2.46-2.02,5.36-1.52,8.17l99.16-45.07v-113.23s-.03,0-.04,0Z"/><path class="cls-6" d="m151.83,237.89l-2.04-1.07c-.56-3.18.05-6.44,1.71-9.18l87.45-144.43c2.39-3.95,6.75-6.41,11.37-6.41h.19s-.01.12-.01.12l1.34,1.34v113.23l-.85,1.33-99.16,45.07Zm97.11-158.08c-3.08.42-5.86,2.22-7.49,4.91l-87.45,144.43c-.96,1.59-1.47,3.4-1.49,5.24l96.43-43.83v-110.74Z"/></g></g></svg>