<svg width="320" height="320" viewBox="0 0 320 320" fill="none" xmlns="http://www.w3.org/2000/svg">
<g clip-path="url(#clip0_256_8)">
<path d="M160 320C248.37 320 320 248.37 320 160C320 71.63 248.37 0 160 0C71.63 0 0 71.63 0 160C0 248.37 71.63 320 160 320Z" fill="url(#paint0_linear_256_8)"/>
<path d="M61.02 90.36H45.57V105.81H61.02V90.36Z" fill="black"/>
<path d="M61.02 108.12H45.57V123.57H61.02V108.12Z" fill="black"/>
<path d="M61.02 125.88H45.57V141.33H61.02V125.88Z" fill="black"/>
<path d="M61.02 143.63H45.57V159.08H61.02V143.63Z" fill="black"/>
<path d="M61.02 161.39H45.57V176.84H61.02V161.39Z" fill="black"/>
<path d="M61.02 179.15H45.57V194.6H61.02V179.15Z" fill="black"/>
<path d="M61.02 214.67H45.57V230.12H61.02V214.67Z" fill="black"/>
<path d="M61.02 196.91H45.57V212.36H61.02V196.91Z" fill="black"/>
<path d="M267.3 72.36H52.7C48.77 72.36 45.58 75.55 45.58 79.48V87.81H274.43V79.48C274.43 75.55 271.24 72.36 267.31 72.36H267.3Z" fill="black"/>
<path d="M114.38 90.12H81.14V105.57H114.38V90.12Z" fill="black"/>
<path d="M185.51 90.12H134.49V105.57H185.51V90.12Z" fill="black"/>
<path d="M238.86 90.12H205.62V105.57H238.86V90.12Z" fill="black"/>
<path d="M274.43 90.12H258.98V105.57H274.43V90.12Z" fill="black"/>
<path d="M96.59 107.88H81.14V123.33H96.59V107.88Z" fill="black"/>
<path d="M132.15 107.88H116.7V123.33H132.15V107.88Z" fill="black"/>
<path d="M167.72 107.88H152.27V123.33H167.72V107.88Z" fill="black"/>
<path d="M203.29 107.88H187.84V123.33H203.29V107.88Z" fill="black"/>
<path d="M238.86 107.88H223.41V123.33H238.86V107.88Z" fill="black"/>
<path d="M274.43 107.88H258.98V123.33H274.43V107.88Z" fill="black"/>
<path d="M96.59 125.64H81.14V141.09H96.59V125.64Z" fill="black"/>
<path d="M203.29 125.64H116.7V141.09H203.29V125.64Z" fill="black"/>
<path d="M238.86 125.64H223.41V141.09H238.86V125.64Z" fill="black"/>
<path d="M274.43 125.64H258.98V141.09H274.43V125.64Z" fill="black"/>
<path d="M96.59 143.39H81.14V158.84H96.59V143.39Z" fill="black"/>
<path d="M203.29 143.39H116.7V158.84H203.29V143.39Z" fill="black"/>
<path d="M238.86 143.39H223.41V158.84H238.86V143.39Z" fill="black"/>
<path d="M274.43 143.39H258.98V158.84H274.43V143.39Z" fill="black"/>
<path d="M96.59 161.15H81.14V176.6H96.59V161.15Z" fill="black"/>
<path d="M185.5 161.15H116.7V176.6H185.5V161.15Z" fill="black"/>
<path d="M221.07 161.15H205.62V176.6H221.07V161.15Z" fill="black"/>
<path d="M231.45 161.15H216V176.6H231.45V161.15Z" fill="black"/>
<path d="M238.86 161.15H223.41V176.6H238.86V161.15Z" fill="black"/>
<path d="M274.43 161.15H258.98V176.6H274.43V161.15Z" fill="black"/>
<path d="M96.59 178.91H81.14V194.36H96.59V178.91Z" fill="black"/>
<path d="M167.72 178.91H116.7V194.36H167.72V178.91Z" fill="black"/>
<path d="M238.86 178.91H187.84V194.36H238.86V178.91Z" fill="black"/>
<path d="M221.07 178.91H205.62V194.36H221.07V178.91Z" fill="black"/>
<path d="M274.43 178.91H258.98V194.36H274.43V178.91Z" fill="black"/>
<path d="M114.38 214.43H81.14V229.88H114.38V214.43Z" fill="black"/>
<path d="M167.74 214.43H134.5V229.88H167.74V214.43Z" fill="black"/>
<path d="M238.86 214.43H223.41V229.88H238.86V214.43Z" fill="black"/>
<path d="M274.43 214.43H258.98V229.88H274.43V214.43Z" fill="black"/>
<path d="M274.43 232.19H45.57V240.52C45.57 244.45 48.76 247.64 52.69 247.64H267.29C271.22 247.64 274.41 244.45 274.41 240.52V232.19H274.43Z" fill="black"/>
<path d="M96.59 196.67H81.14V212.12H96.59V196.67Z" fill="black"/>
<path d="M167.72 196.67H152.27V212.12H167.72V196.67Z" fill="black"/>
<path d="M132.15 196.67H116.7V212.12H132.15V196.67Z" fill="black"/>
<path d="M274.43 196.67H258.98V212.12H274.43V196.67Z" fill="black"/>
<path d="M238.86 196.67H187.84V212.12H238.86V196.67Z" fill="black"/>
</g>
<defs>
<linearGradient id="paint0_linear_256_8" x1="273.14" y1="46.86" x2="46.86" y2="273.14" gradientUnits="userSpaceOnUse">
<stop stop-color="#FFB68C"/>
<stop offset="0.11" stop-color="#FFAD7F"/>
<stop offset="0.5" stop-color="#FF9158"/>
<stop offset="0.81" stop-color="#FF803F"/>
<stop offset="1" stop-color="#FF7A37"/>
</linearGradient>
<clipPath id="clip0_256_8">
<rect width="320" height="320" fill="white"/>
</clipPath>
</defs>
</svg>
