<?xml version="1.0" encoding="UTF-8"?>
<svg xmlns="http://www.w3.org/2000/svg" xmlns:xlink="http://www.w3.org/1999/xlink" viewBox="0 0 1000 1000">
  <defs>
    <style>
      .cls-1 {
        fill: none;
        isolation: isolate;
      }

      .cls-2 {
        fill: url(#radial-gradient-6);
        mix-blend-mode: overlay;
      }

      .cls-3 {
        fill: #fcfeff;
      }

      .cls-4 {
        fill: #86cad8;
      }

      .cls-5 {
        fill: #111818;
      }

      .cls-6 {
        fill: #2c3333;
      }

      .cls-7 {
        fill: url(#radial-gradient-5);
      }

      .cls-8 {
        fill: url(#radial-gradient-3);
      }

      .cls-9 {
        fill: url(#radial-gradient-4);
      }

      .cls-10 {
        fill: url(#radial-gradient-2);
      }

      .cls-11 {
        fill: url(#radial-gradient);
      }
    </style>
    <radialGradient id="radial-gradient" cx="500" cy="500" fx="500" fy="500" r="450.17" gradientUnits="userSpaceOnUse">
      <stop offset=".84" stop-color="#2c3333"/>
      <stop offset=".91" stop-color="#2e3535" stop-opacity="1"/>
      <stop offset=".93" stop-color="#383f3f" stop-opacity=".99"/>
      <stop offset=".95" stop-color="#494f4f" stop-opacity=".96"/>
      <stop offset=".96" stop-color="#616767" stop-opacity=".94"/>
      <stop offset=".97" stop-color="#818686" stop-opacity=".9"/>
      <stop offset=".98" stop-color="#a8acac" stop-opacity=".85"/>
      <stop offset=".99" stop-color="#d5d8d9" stop-opacity=".8"/>
      <stop offset="1" stop-color="#fcfeff" stop-opacity=".75"/>
    </radialGradient>
    <radialGradient id="radial-gradient-2" cx=".78" cy="661.92" fx=".78" fy="661.92" r="121.48" gradientTransform="translate(10.86 -281.6)" gradientUnits="userSpaceOnUse">
      <stop offset="0" stop-color="#ec4e17"/>
      <stop offset=".17" stop-color="#ec521a"/>
      <stop offset=".34" stop-color="#ee5e25"/>
      <stop offset=".51" stop-color="#f17336"/>
      <stop offset=".69" stop-color="#f5904f"/>
      <stop offset=".87" stop-color="#fab56e"/>
      <stop offset="1" stop-color="#ffd78b"/>
    </radialGradient>
    <radialGradient id="radial-gradient-3" cx="636.58" cy="1254.31" fx="636.58" fy="1254.31" r="103.73" xlink:href="#radial-gradient-2"/>
    <radialGradient id="radial-gradient-4" cx="292.43" cy="1259.84" fx="292.43" fy="1259.84" r="249.95" gradientTransform="translate(10.86 -281.6)" gradientUnits="userSpaceOnUse">
      <stop offset="0" stop-color="red"/>
      <stop offset=".36" stop-color="#ff4200"/>
      <stop offset=".41" stop-color="#ff4e0b"/>
      <stop offset=".91" stop-color="#ffd78b"/>
    </radialGradient>
    <radialGradient id="radial-gradient-5" cx="16.19" cy="975.85" fx="16.19" fy="975.85" r="212.93" gradientTransform="translate(10.86 -281.6)" gradientUnits="userSpaceOnUse">
      <stop offset=".08" stop-color="red"/>
      <stop offset=".42" stop-color="#ec4e17"/>
      <stop offset=".52" stop-color="#ec521a"/>
      <stop offset=".62" stop-color="#ee5e25"/>
      <stop offset=".72" stop-color="#f17336"/>
      <stop offset=".82" stop-color="#f5904f"/>
      <stop offset=".92" stop-color="#fab56e"/>
      <stop offset="1" stop-color="#ffd78b"/>
    </radialGradient>
    <radialGradient id="radial-gradient-6" cx="500" cy="500" fx="500" fy="500" r="450.17" gradientUnits="userSpaceOnUse">
      <stop offset="0" stop-color="#fff" stop-opacity="0"/>
      <stop offset=".37" stop-color="#fdfefe" stop-opacity=".01"/>
      <stop offset=".51" stop-color="#f6fbfc" stop-opacity=".05"/>
      <stop offset=".62" stop-color="#eaf7f8" stop-opacity=".11"/>
      <stop offset=".7" stop-color="#daf1f2" stop-opacity=".2"/>
      <stop offset=".78" stop-color="#c4e9eb" stop-opacity=".32"/>
      <stop offset=".84" stop-color="#a9dfe2" stop-opacity=".46"/>
      <stop offset=".9" stop-color="#89d4d7" stop-opacity=".63"/>
      <stop offset=".96" stop-color="#65c6cb" stop-opacity=".82"/>
      <stop offset="1" stop-color="#45bbc1"/>
    </radialGradient>
  </defs>
  <g class="cls-1">
    <g id="Layer_1" data-name="Layer 1">
      <g>
        <circle class="cls-11" cx="500" cy="500" r="450.17"/>
        <g>
          <path class="cls-10" d="m129.68,366.67c0-28.3-7.64-54.8-20.91-77.61-34.73,62.65-54.8,134.54-55.63,211.05,45.78-26.85,76.54-76.53,76.54-133.44Z"/>
          <g>
            <path class="cls-4" d="m143.63,774.42l-4.24,3.94c-3.54,3.29-3.75,8.84-.45,12.39,1.72,1.86,4.06,2.8,6.42,2.8,2.14,0,4.28-.77,5.96-2.34l3.21-2.98c-3.72-4.52-7.35-9.13-10.9-13.8Z"/>
            <path class="cls-4" d="m302.93,638.4c-3.29-3.55-8.84-3.76-12.38-.46l-68.17,63.32c-.46,9.13-1.52,18.1-3.16,26.86l83.26-77.34c3.54-3.29,3.75-8.84.45-12.39Z"/>
          </g>
          <path class="cls-8" d="m733.75,884.54c-20.92-10.56-44.54-16.55-69.57-16.55-59.23,0-110.65,33.32-136.62,82.22,75.33-4.73,145.59-28.14,206.19-65.67Z"/>
          <path class="cls-9" d="m340.16,728.45c-67.57,0-127.31,33.36-163.77,84.47,81.25,85.15,195.84,138.21,322.82,138.21,13.85,0,27.55-.67,41.08-1.9.63-6.48.97-13.04.97-19.68,0-111.06-90.04-201.1-201.1-201.1Z"/>
        </g>
        <path class="cls-4" d="m200.88,845.7c-2.35,0-4.7-.94-6.42-2.8-3.29-3.55-3.09-9.09.45-12.39l151.17-140.41c3.54-3.29,9.1-3.08,12.38.46,3.29,3.55,3.09,9.09-.45,12.39l-151.17,140.41c-1.69,1.57-3.83,2.34-5.96,2.34Z"/>
        <path class="cls-4" d="m180.12,816.75l190.57-178.96c3.53-3.31,3.71-8.86.39-12.39-3.29-3.52-8.84-3.7-12.38-.39l-150.74,141.56c-7.24,17.83-16.96,34.39-28.74,49.25-3.77-3.88-7.47-7.83-11.1-11.85"/>
        <path class="cls-7" d="m222.64,691.08c0-100.27-73.39-183.38-169.38-198.59-.11,4.16-.18,8.33-.18,12.51,0,120.86,48.08,230.48,126.14,310.82,27.16-34.29,43.43-77.6,43.43-124.75Z"/>
        <path class="cls-6" d="m500,999.5C224.57,999.5.5,775.42.5,500S224.57.5,500,.5s499.5,224.07,499.5,499.5-224.07,499.5-499.5,499.5Zm0-946.43c-246.43,0-446.92,200.49-446.92,446.92s200.49,446.93,446.92,446.93,446.92-200.49,446.92-446.93S746.43,53.07,500,53.07Z"/>
        <g>
          <path class="cls-5" d="m510.45,459c0-21.43,17.38-38.81,38.81-38.81,17.49,0,32.27,11.57,37.12,27.46-.07-21.37-17.42-38.68-38.81-38.68s-38.81,17.38-38.81,38.81c0,3.95.59,7.76,1.69,11.34,0-.04,0-.09,0-.13Z"/>
          <path class="cls-5" d="m391.57,535.82c-21.84-6.89-43.67-13.78-65.51-20.67-3.1,4.15-4.85,7.42-4.46,9.28,23.37,7.37,46.74,14.75,70.11,22.12-.38-4.21-.61-8.76-.15-10.73Z"/>
          <path class="cls-5" d="m705.61,296.58c-1.74,25.59-6.71,56.96-18.94,90.98-32.26,89.74-94.97,142.34-125.99,164.91-4.44,22.22-8.89,44.45-13.33,66.67-19.51,17.78-39.02,35.56-58.52,53.34-6.63-24.13-13.25-48.27-19.88-72.4-6.26.69-14.06,1.03-22.95.22-8.48-.78-15.78-2.41-21.62-4.12-8.89,8.64-17.78,17.28-26.67,25.93-7.21-7.43-14.42-14.87-21.62-22.3-1.32.73-2.08,1.16-2.08,1.16l1.69,7.91c7.9,8.15,15.8,16.3,23.71,24.45,8.89-8.64,17.78-17.29,26.67-25.93,5.84,1.71,13.14,3.34,21.62,4.12,8.9.82,16.7.48,22.95-.22,6.63,24.13,13.25,48.27,19.88,72.4,19.51-17.78,39.02-35.56,58.52-53.34,4.44-22.22,8.89-44.45,13.33-66.67,31.02-22.57,93.74-75.17,125.99-164.91,12.89-35.87,19.23-76.71,20.7-103.02,0,0-1.22.28-3.45.82Z"/>
        </g>
        <path class="cls-3" d="m583.64,323.57c-75.27,33.74-120.96,84.78-142.97,113.34-22.72,4.94-45.44,9.88-68.15,14.82-17.53,20.5-35.06,40.99-52.6,61.49,23.88,7.54,47.76,15.07,71.65,22.61-.89,3.72.73,16.7,1.14,19.09.46,2.72,4.63,15.04,7.22,18.31-8.64,8.15-17.28,16.3-25.93,24.45,7.9,8.15,15.8,16.3,23.71,24.45,8.89-8.64,17.78-17.29,26.67-25.93,5.84,1.71,13.14,3.34,21.62,4.12,8.9.82,16.7.48,22.95-.22,6.63,24.13,13.25,48.27,19.88,72.4,19.51-17.78,39.02-35.56,58.52-53.34,4.44-22.22,8.89-44.45,13.33-66.67,31.02-22.57,93.74-75.17,125.99-164.91,12.89-35.87,17.73-68.8,19.2-95.11-30.53,2.42-74.27,9.62-122.23,31.11Zm-36.07,163.03c-21.43,0-38.81-17.38-38.81-38.81s17.38-38.81,38.81-38.81,38.81,17.38,38.81,38.81-17.38,38.81-38.81,38.81Z"/>
        <circle class="cls-2" cx="500" cy="500" r="450.17"/>
      </g>
    </g>
  </g>
</svg>