<?xml version="1.0" encoding="UTF-8"?><svg id="Layer_1" xmlns="http://www.w3.org/2000/svg" viewBox="0 0 1105 249"><defs><style>.cls-1,.cls-2{fill:#fdffff;}.cls-2{fill-rule:evenodd;}</style></defs><path class="cls-1" d="M326,16h46.4V232.15h-46.4V16Z"/><path class="cls-1" d="M496.92,71.58c18.56,0,33.82,5.76,45.78,17.29,11.96,11.53,17.94,30.57,17.94,57.12v86.15h-43.62v-83.68c0-27.38-10.72-41.07-32.17-41.07-11.34,0-20.11,3.81-26.29,11.42-6.19,7.62-9.28,18.32-9.28,32.11v81.21h-43.62V73.43h38.05l4.02,19.76c5.57-6.79,12.27-12.04,20.11-15.75,7.84-3.91,17.53-5.87,29.08-5.87Z"/><path class="cls-1" d="M747.13,16V232.15h-38.05l-4.33-21.92c-12.17,15.85-28.67,23.78-49.49,23.78-14.02,0-26.6-3.29-37.74-9.88-11.14-6.79-19.9-16.37-26.29-28.72-6.19-12.35-9.28-26.66-9.28-42.92s3.09-30.16,9.28-42.3c6.39-12.35,15.16-21.82,26.29-28.41,11.34-6.79,24.02-10.19,38.05-10.19,20.62,0,36.61,7.2,47.95,21.61V16h43.62Zm-81.66,182.49c11.75,0,21.14-4.12,28.15-12.35,7.01-8.44,10.52-19.45,10.52-33.04s-3.51-24.91-10.52-33.35c-7.01-8.44-16.4-12.66-28.15-12.66s-21.24,4.22-28.46,12.66c-7.01,8.44-10.52,19.45-10.52,33.04s3.51,24.6,10.52,33.04c7.22,8.44,16.7,12.66,28.46,12.66Z"/><path class="cls-1" d="M771.35,153.1c0-16.47,3.3-30.78,9.9-42.92,6.8-12.35,16.19-21.82,28.15-28.41,12.17-6.79,26.19-10.19,42.07-10.19s30.21,3.19,42.38,9.57c12.37,6.18,21.96,15.03,28.77,26.56,7.01,11.32,10.62,24.7,10.83,40.14,0,5.56-.41,10.5-1.24,14.82h-115.38v1.24c1.03,11.53,4.74,20.59,11.14,27.17,6.39,6.59,15.16,9.88,26.29,9.88,8.87,0,16.19-1.85,21.96-5.56,5.98-3.91,9.9-9.57,11.76-16.98h43c-1.65,10.5-5.67,19.97-12.06,28.41s-14.85,15.13-25.37,20.07c-10.52,4.74-22.58,7.1-36.19,7.1-17.74,0-33.1-3.29-46.09-9.88-12.79-6.59-22.68-15.95-29.7-28.1-6.81-12.35-10.21-26.66-10.21-42.92Zm118.47-18.84c-1.44-9.68-5.47-17.08-12.06-22.23-6.39-5.35-14.54-8.03-24.44-8.03s-17.53,2.78-24.13,8.34c-6.39,5.35-10.21,12.66-11.45,21.92h72.08Z"/><path class="cls-1" d="M994.88,151.25l-56.3-77.81h49.8l33.1,46.93,33.72-46.93h46.71l-55.99,77.81,59.08,80.9h-49.8l-36.5-49.71-36.2,49.71h-46.71l59.08-80.9Z"/><path class="cls-2" d="M125,249c69.04,0,125-55.74,125-124.5S194.04,0,125,0,0,55.74,0,124.5s55.96,124.5,125,124.5Zm0-42.74c50.49,0,91.42-40.66,91.42-90.82S175.49,44.6,125,44.6,33.58,65.28,33.58,115.44s40.93,90.82,91.42,90.82Z"/><path class="cls-2" d="M70.9,130.07c5.36,0,10.24-2.05,13.89-5.4,1.99,3.54,4.15,7.3,6.4,11.06,4.78,7.99,10.07,16.21,15.05,22.51,2.47,3.13,5.05,6.03,7.61,8.21,2.22,1.89,5.83,4.5,10.22,4.5s7.98-2.57,10.23-4.44c2.6-2.16,5.25-5.04,7.81-8.16,5.15-6.29,10.68-14.5,15.69-22.48,2.47-3.94,4.85-7.87,7.02-11.56,3.69,3.57,8.73,5.76,14.28,5.76,11.33,0,20.52-9.15,20.52-20.44s-9.19-20.44-20.52-20.44c-9.24,0-17.05,6.08-19.62,14.44-.51,.91-1.06,1.9-1.65,2.95-3.3,5.86-7.82,13.65-12.69,21.42-4.9,7.81-10.04,15.4-14.6,20.96-2.29,2.8-4.26,4.86-5.81,6.15-.24,.2-.45,.36-.64,.5-.16-.12-.34-.27-.54-.44-1.49-1.27-3.38-3.31-5.59-6.1-4.38-5.54-9.29-13.12-13.96-20.93-4.64-7.76-8.92-15.54-12.05-21.4-.42-.79-.83-1.55-1.2-2.27-2.3-8.78-10.32-15.26-19.86-15.26-11.33,0-20.52,9.15-20.52,20.44s9.19,20.44,20.52,20.44Z"/></svg>