<svg width="28" height="28" viewBox="0 0 28 28" fill="none" xmlns="http://www.w3.org/2000/svg">
<path d="M15.8365 16.2981L14.6352 19.5941C14.6054 19.6835 14.6054 19.7827 14.6352 19.882L16.7002 25.5508L19.0928 24.1708L16.2237 16.2981C16.1542 16.1194 15.906 16.1194 15.8365 16.2981Z" fill="#EBF2F2"/>
<path d="M18.2486 10.759C18.1792 10.5803 17.931 10.5803 17.8615 10.759L16.6602 14.0551C16.6304 14.1444 16.6304 14.2437 16.6602 14.343L20.0456 23.6255L22.4382 22.2455L18.2486 10.769V10.759Z" fill="#EBF2F2"/>
<path d="M14 3.53881C14.0596 3.53881 14.1191 3.55866 14.1688 3.58845L23.2825 8.85018C23.3917 8.90975 23.4513 9.02888 23.4513 9.14801V19.6715C23.4513 19.7906 23.3818 19.9097 23.2825 19.9693L14.1688 25.231C14.1191 25.2608 14.0596 25.2807 14 25.2807C13.9404 25.2807 13.8809 25.2608 13.8312 25.231L4.71751 19.9693C4.6083 19.9097 4.54874 19.7906 4.54874 19.6715V9.13809C4.54874 9.01895 4.61823 8.89982 4.71751 8.84025L13.8312 3.57852C13.8809 3.54874 13.9404 3.52888 14 3.52888V3.53881ZM14 2C13.6724 2 13.3547 2.07942 13.0569 2.24819L3.94314 7.50993C3.3574 7.84747 3 8.463 3 9.13809V19.6616C3 20.3366 3.3574 20.9522 3.94314 21.2897L13.0569 26.5514C13.3448 26.7202 13.6724 26.7996 14 26.7996C14.3276 26.7996 14.6453 26.7202 14.9431 26.5514L24.0569 21.2897C24.6426 20.9522 25 20.3366 25 19.6616V9.13809C25 8.463 24.6426 7.84747 24.0569 7.50993L14.9332 2.24819C14.6453 2.07942 14.3177 2 13.9901 2H14Z" fill="#EBF2F2"/>
<path d="M7.96388 23.6314L8.80775 21.3281L10.4955 22.7279L8.91695 24.1774L7.96388 23.6314Z" fill="#EBF2F2"/>
<path d="M13.2254 8.39469H10.9122C10.7435 8.39469 10.5846 8.5039 10.525 8.66274L5.57108 22.244L7.96367 23.6239L13.424 8.66274C13.4736 8.52375 13.3743 8.38477 13.2353 8.38477L13.2254 8.39469Z" fill="#F2F8F8"/>
<path d="M17.2758 8.39469H14.9626C14.7938 8.39469 14.635 8.5039 14.5754 8.66274L8.91656 24.17L11.3092 25.5499L17.4644 8.66274C17.514 8.52375 17.4148 8.38477 17.2758 8.38477V8.39469Z" fill="#F2F8F8"/>
</svg>
