<?xml version="1.0" encoding="UTF-8"?><svg id="Layer_1" xmlns="http://www.w3.org/2000/svg" xmlns:xlink="http://www.w3.org/1999/xlink" viewBox="0 0 150 150"><defs><style>.cls-1{fill:none;}.cls-2{fill:#7bebb0;}.cls-3{fill:#aa7ed9;}.cls-4{fill:#ac79db;}.cls-5{fill:#ab7cda;}.cls-6{fill:#a882d8;}.cls-7{fill:#9aa3cb;}.cls-8{fill:#9f99cf;}.cls-9{fill:#84d8b7;}.cls-10{fill:#8bc8bd;}.cls-11{fill:#c345ef;}.cls-12{fill:#c04ced;}.cls-13{fill:#9d9ecd;}.cls-14{fill:#c73af3;}.cls-15{fill:#97abc8;}.cls-16{fill:#b26ce0;}.cls-17{fill:#a784d7;}.cls-18{fill:#93b4c5;}.cls-19{fill:#9c9fcd;}.cls-20{fill:#c246ef;}.cls-21{fill:#b565e3;}.cls-22{fill:#ad77dc;}.cls-23{fill:#8bc7be;}.cls-24{fill:#85d4b9;}.cls-25{fill:#7de8b1;}.cls-26{fill:#87d0ba;}.cls-27{fill:#91b8c3;}.cls-28{fill:#be4feb;}.cls-29{fill:#bb57e8;}.cls-30{fill:#80e0b4;}.cls-31{fill:#94b1c6;}.cls-32{fill:#9d9dce;}.cls-33{fill:#c63ef2;}.cls-34{fill:#a38ed3;}.cls-35{fill:#c441f1;}.cls-36{fill:#91bac3;}.cls-37{fill:#a48bd4;}.cls-38{fill:#a589d5;}.cls-39{fill:#a58ad5;}.cls-40{fill:#79f0ae;}.cls-41{fill:#c540f1;}.cls-42{fill:#94b2c6;}.cls-43{fill:#a38fd3;}.cls-44{fill:#98a8ca;}.cls-45{fill:#b070df;}.cls-46{fill:#c937f5;}.cls-47{fill:#9d9cce;}.cls-48{fill:#b663e4;}.cls-49{fill:#b369e1;}.cls-50{fill:#a096d0;}.cls-51{fill:#bf4dec;}.cls-52{fill:#80e1b4;}.cls-53{fill:#b85ee6;}.cls-54{fill:#9ca0cd;}.cls-55{fill:#83dab6;}.cls-56{fill:#c838f4;}.cls-57{fill:#bc55e9;}.cls-58{fill:#7becaf;}.cls-59{fill:#bd53ea;}.cls-60{fill:#85d5b8;}.cls-61{fill:#8bc6be;}.cls-62{fill:#7fe3b3;}.cls-63{fill:#81dfb4;}.cls-64{fill:#ad76dc;}.cls-65{fill:#78f4ac;}.cls-66{fill:#7de7b1;}.cls-67{fill:#a193d1;}.cls-68{fill:#ae75dd;}.cls-69{fill:#7aeeaf;}.cls-70{fill:#c936f5;}.cls-71{fill:#bd51eb;}.cls-72{fill:#8acabc;}.cls-73{fill:#c148ee;}.cls-74{fill:#bf4eec;}.cls-75{fill:#a688d5;}.cls-76{fill:#ac7adb;}.cls-77{fill:#c839f4;}.cls-78{fill:#7bedaf;}.cls-79{fill:#b662e4;}.cls-80{fill:#a785d7;}.cls-81{fill:#8fbdc1;}.cls-82{fill:#b06fdf;}.cls-83{fill:#7fe2b3;}.cls-84{fill:#c73bf3;}.cls-85{fill:#8ec0c0;}.cls-86{fill:#b75fe5;}.cls-87{fill:#9ba2cc;}.cls-88{fill:#78f3ad;}.cls-89{fill:#c04bed;}.cls-90{fill:#af72de;}.cls-91{fill:#93b5c5;}.cls-92{fill:#8cc4bf;}.cls-93{fill:#7ceab0;}.cls-94{clip-path:url(#clippath-1);}.cls-95{clip-path:url(#clippath-2);}.cls-96{fill:#b466e3;}.cls-97{fill:#96adc8;}.cls-98{fill:#b071de;}.cls-99{fill:#99a6ca;}.cls-100{fill:#b26be1;}.cls-101{fill:#c442f0;}.cls-102{fill:#8dc3bf;}.cls-103{fill:#7aefae;}.cls-104{fill:#9e9bcf;}.cls-105{fill:#79f1ad;}.cls-106{fill:#83d9b7;}.cls-107{fill:#b16de0;}.cls-108{fill:#af73de;}.cls-109{fill:#fff;}.cls-110{fill:#b760e5;}.cls-111{fill:#78f2ad;}.cls-112{fill:#8ac9bd;}.cls-113{fill:#97acc8;}.cls-114{fill:#b95ce6;}.cls-115{fill:#86d2b9;}.cls-116{fill:#8fbec1;}.cls-117{fill:#91b9c3;}.cls-118{fill:#94b3c5;}.cls-119{fill:#92b7c4;}.cls-120{fill:#b95ae7;}.cls-121{fill:#a48dd4;}.cls-122{fill:#82dbb6;}.cls-123{fill:#a687d6;}.cls-124{fill:#bb56e9;}.cls-125{fill:#9aa5cb;}.cls-126{fill:#99a7ca;}.cls-127{fill:#bd52ea;}.cls-128{fill:#ba59e8;}.cls-129{fill:#92b6c4;}.cls-130{fill:#7ee4b2;}.cls-131{fill:#81deb5;}.cls-132{fill:#a194d1;}.cls-133{fill:#a48cd4;}.cls-134{fill:#98a9c9;}.cls-135{fill:#8ebfc1;}.cls-136{fill:#a981d8;}.cls-137{fill:#c04aed;}.cls-138{fill:#87d1ba;}.cls-139{fill:#95afc7;}.cls-140{fill:#a980d9;}.cls-141{fill:#89cbbc;}.cls-142{fill:#97aac9;}.cls-143{fill:#88cfbb;}.cls-144{fill:#90bcc2;}.cls-145{fill:#a290d2;}.cls-146{fill:#82dcb6;}.cls-147{fill:#a095d0;}.cls-148{fill:#81ddb5;}.cls-149{fill:#c53ff2;}.cls-150{fill:#96aec7;}.cls-151{fill:#a883d7;}.cls-152{fill:#aa7fd9;}.cls-153{fill:#95b0c6;}.cls-154{fill:#b85de6;}.cls-155{fill:#b368e2;}.cls-156{fill:#c63df2;}.cls-157{fill:#88cebb;}.cls-158{fill:#9f97d0;}.cls-159{fill:#90bbc2;}.cls-160{fill:#84d7b7;}.cls-161{fill:#b95be7;}.cls-162{fill:#ab7bda;}.cls-163{fill:#85d6b8;}.cls-164{fill:#a192d2;}.cls-165{fill:#9aa4cb;}.cls-166{fill:#fcffff;}.cls-167{fill:#b564e3;}.cls-168{fill:#c63cf3;}.cls-169{fill:#be50eb;}.cls-170{fill:#9ba1cc;}.cls-171{fill:#b661e4;}.cls-172{fill:#9e9acf;}.cls-173{fill:#a786d6;}.cls-174{fill:#7ce9b1;}.cls-175{fill:#c149ee;}.cls-176{fill:#7ee6b2;}.cls-177{fill:#7ee5b2;}.cls-178{fill:#aa7dda;}.cls-179{fill:#8ec1c0;}.cls-180{fill:#8dc2c0;}.cls-181{fill:#b467e2;}.cls-182{fill:#88cdbb;}.cls-183{fill:#ba58e8;}.cls-184{fill:#bc54e9;}.cls-185{fill:#c344f0;}.cls-186{fill:#8cc5be;}.cls-187{fill:#a291d2;}.cls-188{fill:#b16edf;}.cls-189{fill:#86d3b9;}.cls-190{clip-path:url(#clippath);}.cls-191{fill:#c343f0;}.cls-192{fill:#ad78dc;}.cls-193{fill:#b36ae1;}.cls-194{fill:#89ccbc;}.cls-195{fill:#c247ee;}.cls-196{fill:#ae74dd;}.cls-197{fill:#0f1616;}</style><clipPath id="clippath"><path class="cls-1" d="M34.84,84.41c.5-.5,1.18-.79,1.91-.79h65.92c1.2,0,1.81,1.45.96,2.31l-13.02,13.02c-.5.5-1.18.79-1.91.79H22.77c-1.2,0-1.81-1.45-.96-2.31l13.02-13.02Z"/></clipPath><clipPath id="clippath-1"><path class="cls-1" d="M34.84,35.78c.52-.5,1.2-.79,1.91-.79h65.92c1.2,0,1.81,1.45.96,2.31l-13.02,13.02c-.5.5-1.18.79-1.91.79H22.77c-1.2,0-1.81-1.45-.96-2.31l13.02-13.02Z"/></clipPath><clipPath id="clippath-2"><path class="cls-1" d="M90.61,59.94c-.5-.5-1.18-.79-1.91-.79H22.77c-1.2,0-1.81,1.45-.96,2.31l13.02,13.02c.5.5,1.18.79,1.91.79h65.92c1.2,0,1.81-1.45.96-2.31l-13.02-13.02Z"/></clipPath></defs><circle cx="62.72" cy="67.36" r="62.28"/><g class="cls-190"><polygon class="cls-19" points="104.48 83.65 104.42 83.62 104.48 83.62 104.48 83.65"/><polygon class="cls-13" points="104.48 84.21 103.34 83.62 104.42 83.62 104.48 83.65 104.48 84.21"/><polygon class="cls-32" points="104.48 84.78 102.25 83.62 103.34 83.62 104.48 84.21 104.48 84.78"/><polygon class="cls-47" points="104.48 85.35 101.16 83.62 102.25 83.62 104.48 84.78 104.48 85.35"/><polygon class="cls-104" points="104.48 85.92 100.08 83.62 101.16 83.62 104.48 85.35 104.48 85.92"/><polygon class="cls-172" points="104.48 86.48 98.99 83.62 100.08 83.62 104.48 85.92 104.48 86.48"/><polygon class="cls-8" points="104.48 87.05 97.9 83.62 98.99 83.62 104.48 86.48 104.48 87.05"/><polygon class="cls-158" points="104.48 87.62 96.82 83.62 97.9 83.62 104.48 87.05 104.48 87.62"/><polygon class="cls-50" points="104.48 88.18 95.73 83.62 96.82 83.62 104.48 87.62 104.48 88.18"/><polygon class="cls-147" points="104.48 88.75 94.64 83.62 95.73 83.62 104.48 88.18 104.48 88.75"/><polygon class="cls-132" points="104.48 89.32 93.56 83.62 94.64 83.62 104.48 88.75 104.48 89.32"/><polygon class="cls-67" points="104.48 89.39 104.28 89.78 92.47 83.62 93.56 83.62 104.48 89.32 104.48 89.39"/><polygon class="cls-164" points="104.28 89.78 104.04 90.23 91.38 83.62 92.47 83.62 104.28 89.78"/><polygon class="cls-187" points="104.04 90.23 103.81 90.67 90.3 83.62 91.38 83.62 104.04 90.23"/><polygon class="cls-145" points="103.81 90.67 103.58 91.12 89.21 83.62 90.3 83.62 103.81 90.67"/><polygon class="cls-43" points="103.58 91.12 103.35 91.56 88.12 83.62 89.21 83.62 103.58 91.12"/><polygon class="cls-34" points="103.35 91.56 103.11 92.01 87.04 83.62 88.12 83.62 103.35 91.56"/><polygon class="cls-121" points="103.11 92.01 102.88 92.46 85.95 83.62 87.04 83.62 103.11 92.01"/><polygon class="cls-133" points="102.88 92.46 102.65 92.9 84.86 83.62 85.95 83.62 102.88 92.46"/><polygon class="cls-37" points="102.65 92.9 102.41 93.35 83.77 83.62 84.86 83.62 102.65 92.9"/><polygon class="cls-39" points="102.41 93.35 102.18 93.79 82.69 83.62 83.77 83.62 102.41 93.35"/><polygon class="cls-38" points="102.18 93.79 101.95 94.24 81.6 83.62 82.69 83.62 102.18 93.79"/><polygon class="cls-75" points="101.95 94.24 101.72 94.69 80.51 83.62 81.6 83.62 101.95 94.24"/><polygon class="cls-123" points="101.72 94.69 101.48 95.13 79.43 83.62 80.51 83.62 101.72 94.69"/><polygon class="cls-173" points="101.48 95.13 101.25 95.58 78.34 83.62 79.43 83.62 101.48 95.13"/><polygon class="cls-80" points="101.25 95.58 101.02 96.02 77.25 83.62 78.34 83.62 101.25 95.58"/><polygon class="cls-17" points="101.02 96.02 100.79 96.47 76.17 83.62 77.25 83.62 101.02 96.02"/><polygon class="cls-151" points="100.79 96.47 100.55 96.91 75.08 83.62 76.17 83.62 100.79 96.47"/><polygon class="cls-6" points="100.55 96.91 100.32 97.36 73.99 83.62 75.08 83.62 100.55 96.91"/><polygon class="cls-136" points="100.32 97.36 100.09 97.81 72.91 83.62 73.99 83.62 100.32 97.36"/><polygon class="cls-140" points="100.09 97.81 99.85 98.25 71.82 83.62 72.91 83.62 100.09 97.81"/><polygon class="cls-152" points="99.85 98.25 99.62 98.7 70.73 83.62 71.82 83.62 99.85 98.25"/><polygon class="cls-3" points="99.62 98.7 99.39 99.14 69.65 83.62 70.73 83.62 99.62 98.7"/><polygon class="cls-178" points="99.39 99.14 99.16 99.59 68.56 83.62 69.65 83.62 99.39 99.14"/><polygon class="cls-5" points="99.16 99.59 99.08 99.73 98.34 99.73 67.47 83.62 68.56 83.62 99.16 99.59"/><polygon class="cls-162" points="97.26 99.73 66.39 83.62 67.47 83.62 98.34 99.73 97.26 99.73"/><polygon class="cls-76" points="96.17 99.73 65.3 83.62 66.39 83.62 97.26 99.73 96.17 99.73"/><polygon class="cls-4" points="95.08 99.73 64.21 83.62 65.3 83.62 96.17 99.73 95.08 99.73"/><polygon class="cls-192" points="94 99.73 63.13 83.62 64.21 83.62 95.08 99.73 94 99.73"/><polygon class="cls-22" points="92.91 99.73 62.04 83.62 63.13 83.62 94 99.73 92.91 99.73"/><polygon class="cls-64" points="91.82 99.73 60.95 83.62 62.04 83.62 92.91 99.73 91.82 99.73"/><polygon class="cls-68" points="90.74 99.73 59.87 83.62 60.95 83.62 91.82 99.73 90.74 99.73"/><polygon class="cls-196" points="89.65 99.73 58.78 83.62 59.87 83.62 90.74 99.73 89.65 99.73"/><polygon class="cls-108" points="88.56 99.73 57.69 83.62 58.78 83.62 89.65 99.73 88.56 99.73"/><polygon class="cls-90" points="87.48 99.73 56.61 83.62 57.69 83.62 88.56 99.73 87.48 99.73"/><polygon class="cls-98" points="86.39 99.73 55.52 83.62 56.61 83.62 87.48 99.73 86.39 99.73"/><polygon class="cls-45" points="85.3 99.73 54.43 83.62 55.52 83.62 86.39 99.73 85.3 99.73"/><polygon class="cls-82" points="84.22 99.73 53.35 83.62 54.43 83.62 85.3 99.73 84.22 99.73"/><polygon class="cls-188" points="83.13 99.73 52.26 83.62 53.35 83.62 84.22 99.73 83.13 99.73"/><polygon class="cls-107" points="82.04 99.73 51.17 83.62 52.26 83.62 83.13 99.73 82.04 99.73"/><polygon class="cls-16" points="80.96 99.73 50.08 83.62 51.17 83.62 82.04 99.73 80.96 99.73"/><polygon class="cls-100" points="79.87 99.73 49 83.62 50.08 83.62 80.96 99.73 79.87 99.73"/><polygon class="cls-193" points="78.78 99.73 47.91 83.62 49 83.62 79.87 99.73 78.78 99.73"/><polygon class="cls-49" points="77.7 99.73 46.82 83.62 47.91 83.62 78.78 99.73 77.7 99.73"/><polygon class="cls-155" points="76.61 99.73 45.74 83.62 46.82 83.62 77.7 99.73 76.61 99.73"/><polygon class="cls-181" points="75.52 99.73 44.65 83.62 45.74 83.62 76.61 99.73 75.52 99.73"/><polygon class="cls-96" points="74.44 99.73 43.56 83.62 44.65 83.62 75.52 99.73 74.44 99.73"/><polygon class="cls-21" points="73.35 99.73 42.48 83.62 43.56 83.62 74.44 99.73 73.35 99.73"/><polygon class="cls-167" points="72.26 99.73 41.39 83.62 42.48 83.62 73.35 99.73 72.26 99.73"/><polygon class="cls-48" points="71.17 99.73 40.3 83.62 41.39 83.62 72.26 99.73 71.17 99.73"/><polygon class="cls-79" points="70.09 99.73 39.22 83.62 40.3 83.62 71.17 99.73 70.09 99.73"/><polygon class="cls-171" points="69 99.73 38.13 83.62 39.22 83.62 70.09 99.73 69 99.73"/><polygon class="cls-110" points="67.91 99.73 37.04 83.62 38.13 83.62 69 99.73 67.91 99.73"/><polygon class="cls-86" points="66.83 99.73 35.96 83.62 37.04 83.62 67.91 99.73 66.83 99.73"/><polygon class="cls-53" points="65.74 99.73 34.87 83.62 35.96 83.62 66.83 99.73 65.74 99.73"/><polygon class="cls-154" points="64.65 99.73 33.78 83.62 34.87 83.62 65.74 99.73 64.65 99.73"/><polygon class="cls-114" points="63.57 99.73 32.7 83.62 33.78 83.62 64.65 99.73 63.57 99.73"/><polygon class="cls-161" points="62.48 99.73 31.61 83.62 32.7 83.62 63.57 99.73 62.48 99.73"/><polygon class="cls-120" points="61.39 99.73 30.52 83.62 31.61 83.62 62.48 99.73 61.39 99.73"/><polygon class="cls-128" points="60.31 99.73 29.44 83.62 30.52 83.62 61.39 99.73 60.31 99.73"/><polygon class="cls-183" points="59.22 99.73 28.35 83.62 29.44 83.62 60.31 99.73 59.22 99.73"/><polygon class="cls-29" points="58.13 99.73 27.26 83.62 28.35 83.62 59.22 99.73 58.13 99.73"/><polygon class="cls-124" points="57.05 99.73 26.32 83.69 26.36 83.62 27.26 83.62 58.13 99.73 57.05 99.73"/><polygon class="cls-57" points="55.96 99.73 26.09 84.14 26.32 83.69 57.05 99.73 55.96 99.73"/><polygon class="cls-184" points="54.87 99.73 25.86 84.59 26.09 84.14 55.96 99.73 54.87 99.73"/><polygon class="cls-59" points="53.79 99.73 25.63 85.03 25.86 84.59 54.87 99.73 53.79 99.73"/><polygon class="cls-127" points="52.7 99.73 25.39 85.48 25.63 85.03 53.79 99.73 52.7 99.73"/><polygon class="cls-71" points="51.61 99.73 25.16 85.92 25.39 85.48 52.7 99.73 51.61 99.73"/><polygon class="cls-169" points="50.53 99.73 24.93 86.37 25.16 85.92 51.61 99.73 50.53 99.73"/><polygon class="cls-28" points="49.44 99.73 24.69 86.81 24.93 86.37 50.53 99.73 49.44 99.73"/><polygon class="cls-74" points="48.35 99.73 24.46 87.26 24.69 86.81 49.44 99.73 48.35 99.73"/><polygon class="cls-51" points="47.27 99.73 24.23 87.71 24.46 87.26 48.35 99.73 47.27 99.73"/><polygon class="cls-12" points="46.18 99.73 24 88.15 24.23 87.71 47.27 99.73 46.18 99.73"/><polygon class="cls-89" points="45.09 99.73 23.76 88.6 24 88.15 46.18 99.73 45.09 99.73"/><polygon class="cls-137" points="44.01 99.73 23.53 89.04 23.76 88.6 45.09 99.73 44.01 99.73"/><polygon class="cls-175" points="42.92 99.73 23.3 89.49 23.53 89.04 44.01 99.73 42.92 99.73"/><polygon class="cls-73" points="41.83 99.73 23.07 89.94 23.3 89.49 42.92 99.73 41.83 99.73"/><polygon class="cls-195" points="40.75 99.73 22.83 90.38 23.07 89.94 41.83 99.73 40.75 99.73"/><polygon class="cls-20" points="39.66 99.73 22.6 90.83 22.83 90.38 40.75 99.73 39.66 99.73"/><polygon class="cls-11" points="38.57 99.73 22.37 91.27 22.6 90.83 39.66 99.73 38.57 99.73"/><polygon class="cls-185" points="37.48 99.73 22.13 91.72 22.37 91.27 38.57 99.73 37.48 99.73"/><polygon class="cls-191" points="36.4 99.73 21.9 92.16 22.13 91.72 37.48 99.73 36.4 99.73"/><polygon class="cls-101" points="35.31 99.73 21.67 92.61 21.9 92.16 36.4 99.73 35.31 99.73"/><polygon class="cls-35" points="34.22 99.73 21.44 93.06 21.67 92.61 35.31 99.73 34.22 99.73"/><polygon class="cls-41" points="33.14 99.73 21.2 93.5 21.44 93.06 34.22 99.73 33.14 99.73"/><polygon class="cls-149" points="32.05 99.73 20.97 93.95 21.2 93.5 33.14 99.73 32.05 99.73"/><polygon class="cls-33" points="30.96 99.73 20.97 94.51 20.97 93.96 20.97 93.95 32.05 99.73 30.96 99.73"/><polygon class="cls-156" points="29.88 99.73 20.97 95.08 20.97 94.51 30.96 99.73 29.88 99.73"/><polygon class="cls-168" points="28.79 99.73 20.97 95.65 20.97 95.08 29.88 99.73 28.79 99.73"/><polygon class="cls-84" points="27.7 99.73 20.97 96.22 20.97 95.65 28.79 99.73 27.7 99.73"/><polygon class="cls-14" points="26.62 99.73 20.97 96.78 20.97 96.22 27.7 99.73 26.62 99.73"/><polygon class="cls-77" points="25.53 99.73 20.97 97.35 20.97 96.78 26.62 99.73 25.53 99.73"/><polygon class="cls-56" points="24.44 99.73 20.97 97.92 20.97 97.35 25.53 99.73 24.44 99.73"/><polygon class="cls-46" points="23.36 99.73 20.97 98.48 20.97 97.92 24.44 99.73 23.36 99.73"/><polygon class="cls-70" points="22.27 99.73 20.97 99.05 20.97 98.48 23.36 99.73 22.27 99.73"/><polygon class="cls-70" points="20.97 99.05 22.27 99.73 20.97 99.73 20.97 99.05"/></g><g class="cls-94"><polygon class="cls-65" points="104.48 35.42 103.67 34.99 104.48 34.99 104.48 35.42"/><polygon class="cls-88" points="104.48 35.98 102.58 34.99 103.67 34.99 104.48 35.42 104.48 35.98"/><polygon class="cls-111" points="104.48 36.55 101.5 34.99 102.58 34.99 104.48 35.98 104.48 36.55"/><polygon class="cls-105" points="104.48 37.12 100.41 34.99 101.5 34.99 104.48 36.55 104.48 37.12"/><polygon class="cls-40" points="104.48 37.69 99.32 34.99 100.41 34.99 104.48 37.12 104.48 37.69"/><polygon class="cls-103" points="104.48 38.25 98.24 34.99 99.32 34.99 104.48 37.69 104.48 38.25"/><polygon class="cls-69" points="104.48 38.82 97.15 34.99 98.24 34.99 104.48 38.25 104.48 38.82"/><polygon class="cls-78" points="104.48 39.39 96.06 34.99 97.15 34.99 104.48 38.82 104.48 39.39"/><polygon class="cls-58" points="104.48 39.96 94.97 34.99 96.06 34.99 104.48 39.39 104.48 39.96"/><polygon class="cls-2" points="104.48 40.52 93.89 34.99 94.97 34.99 104.48 39.96 104.48 40.52"/><polygon class="cls-93" points="104.48 40.77 104.35 41.02 92.8 34.99 93.89 34.99 104.48 40.52 104.48 40.77"/><polygon class="cls-174" points="104.35 41.02 104.12 41.47 91.71 34.99 92.8 34.99 104.35 41.02"/><polygon class="cls-25" points="104.12 41.47 103.88 41.91 90.63 34.99 91.71 34.99 104.12 41.47"/><polygon class="cls-66" points="103.88 41.91 103.65 42.36 89.54 34.99 90.63 34.99 103.88 41.91"/><polygon class="cls-176" points="103.65 42.36 103.42 42.81 88.45 34.99 89.54 34.99 103.65 42.36"/><polygon class="cls-177" points="103.42 42.81 103.18 43.25 87.37 34.99 88.45 34.99 103.42 42.81"/><polygon class="cls-130" points="103.18 43.25 102.95 43.7 86.28 34.99 87.37 34.99 103.18 43.25"/><polygon class="cls-62" points="102.95 43.7 102.72 44.14 85.19 34.99 86.28 34.99 102.95 43.7"/><polygon class="cls-83" points="102.72 44.14 102.49 44.59 84.11 34.99 85.19 34.99 102.72 44.14"/><polygon class="cls-52" points="102.49 44.59 102.25 45.04 83.02 34.99 84.11 34.99 102.49 44.59"/><polygon class="cls-30" points="102.25 45.04 102.02 45.48 81.93 34.99 83.02 34.99 102.25 45.04"/><polygon class="cls-63" points="102.02 45.48 101.79 45.93 80.85 34.99 81.93 34.99 102.02 45.48"/><polygon class="cls-131" points="101.79 45.93 101.55 46.37 79.76 34.99 80.85 34.99 101.79 45.93"/><polygon class="cls-148" points="101.55 46.37 101.32 46.82 78.67 34.99 79.76 34.99 101.55 46.37"/><polygon class="cls-146" points="101.32 46.82 101.09 47.26 77.59 34.99 78.67 34.99 101.32 46.82"/><polygon class="cls-122" points="101.09 47.26 100.86 47.71 76.5 34.99 77.59 34.99 101.09 47.26"/><polygon class="cls-55" points="100.86 47.71 100.62 48.16 75.41 34.99 76.5 34.99 100.86 47.71"/><polygon class="cls-106" points="100.62 48.16 100.39 48.6 74.33 34.99 75.41 34.99 100.62 48.16"/><polygon class="cls-9" points="100.39 48.6 100.16 49.05 73.24 34.99 74.33 34.99 100.39 48.6"/><polygon class="cls-160" points="100.16 49.05 99.93 49.49 72.15 34.99 73.24 34.99 100.16 49.05"/><polygon class="cls-163" points="99.93 49.49 99.69 49.94 71.07 34.99 72.15 34.99 99.93 49.49"/><polygon class="cls-60" points="99.69 49.94 99.46 50.39 69.98 34.99 71.07 34.99 99.69 49.94"/><polygon class="cls-24" points="99.46 50.39 99.23 50.83 68.89 34.99 69.98 34.99 99.46 50.39"/><polygon class="cls-189" points="99.23 50.83 99.08 51.11 98.68 51.11 67.81 34.99 68.89 34.99 99.23 50.83"/><polygon class="cls-115" points="97.59 51.11 66.72 34.99 67.81 34.99 98.68 51.11 97.59 51.11"/><polygon class="cls-138" points="96.5 51.11 65.63 34.99 66.72 34.99 97.59 51.11 96.5 51.11"/><polygon class="cls-26" points="95.42 51.11 64.54 34.99 65.63 34.99 96.5 51.11 95.42 51.11"/><polygon class="cls-143" points="94.33 51.11 63.46 34.99 64.54 34.99 95.42 51.11 94.33 51.11"/><polygon class="cls-157" points="93.24 51.11 62.37 34.99 63.46 34.99 94.33 51.11 93.24 51.11"/><polygon class="cls-182" points="92.16 51.11 61.28 34.99 62.37 34.99 93.24 51.11 92.16 51.11"/><polygon class="cls-194" points="91.07 51.11 60.2 34.99 61.28 34.99 92.16 51.11 91.07 51.11"/><polygon class="cls-141" points="89.98 51.11 59.11 34.99 60.2 34.99 91.07 51.11 89.98 51.11"/><polygon class="cls-72" points="88.9 51.11 58.02 34.99 59.11 34.99 89.98 51.11 88.9 51.11"/><polygon class="cls-112" points="87.81 51.11 56.94 34.99 58.02 34.99 88.9 51.11 87.81 51.11"/><polygon class="cls-10" points="86.72 51.11 55.85 34.99 56.94 34.99 87.81 51.11 86.72 51.11"/><polygon class="cls-23" points="85.64 51.11 54.76 34.99 55.85 34.99 86.72 51.11 85.64 51.11"/><polygon class="cls-61" points="84.55 51.11 53.68 34.99 54.76 34.99 85.64 51.11 84.55 51.11"/><polygon class="cls-186" points="83.46 51.11 52.59 34.99 53.68 34.99 84.55 51.11 83.46 51.11"/><polygon class="cls-92" points="82.37 51.11 51.5 34.99 52.59 34.99 83.46 51.11 82.37 51.11"/><polygon class="cls-102" points="81.29 51.11 50.42 34.99 51.5 34.99 82.37 51.11 81.29 51.11"/><polygon class="cls-180" points="80.2 51.11 49.33 34.99 50.42 34.99 81.29 51.11 80.2 51.11"/><polygon class="cls-179" points="79.11 51.11 48.24 34.99 49.33 34.99 80.2 51.11 79.11 51.11"/><polygon class="cls-85" points="78.03 51.11 47.16 34.99 48.24 34.99 79.11 51.11 78.03 51.11"/><polygon class="cls-135" points="76.94 51.11 46.07 34.99 47.16 34.99 78.03 51.11 76.94 51.11"/><polygon class="cls-116" points="75.85 51.11 44.98 34.99 46.07 34.99 76.94 51.11 75.85 51.11"/><polygon class="cls-81" points="74.77 51.11 43.9 34.99 44.98 34.99 75.85 51.11 74.77 51.11"/><polygon class="cls-144" points="73.68 51.11 42.81 34.99 43.9 34.99 74.77 51.11 73.68 51.11"/><polygon class="cls-159" points="72.59 51.11 41.72 34.99 42.81 34.99 73.68 51.11 72.59 51.11"/><polygon class="cls-36" points="71.51 51.11 40.64 34.99 41.72 34.99 72.59 51.11 71.51 51.11"/><polygon class="cls-117" points="70.42 51.11 39.55 34.99 40.64 34.99 71.51 51.11 70.42 51.11"/><polygon class="cls-27" points="69.33 51.11 38.46 34.99 39.55 34.99 70.42 51.11 69.33 51.11"/><polygon class="cls-119" points="68.25 51.11 37.38 34.99 38.46 34.99 69.33 51.11 68.25 51.11"/><polygon class="cls-129" points="67.16 51.11 36.29 34.99 37.38 34.99 68.25 51.11 67.16 51.11"/><polygon class="cls-91" points="66.07 51.11 35.2 34.99 36.29 34.99 67.16 51.11 66.07 51.11"/><polygon class="cls-18" points="64.99 51.11 34.12 34.99 35.2 34.99 66.07 51.11 64.99 51.11"/><polygon class="cls-118" points="63.9 51.11 33.03 34.99 34.12 34.99 64.99 51.11 63.9 51.11"/><polygon class="cls-42" points="62.81 51.11 31.94 34.99 33.03 34.99 63.9 51.11 62.81 51.11"/><polygon class="cls-31" points="61.73 51.11 30.85 34.99 31.94 34.99 62.81 51.11 61.73 51.11"/><polygon class="cls-153" points="60.64 51.11 29.77 34.99 30.85 34.99 61.73 51.11 60.64 51.11"/><polygon class="cls-139" points="59.55 51.11 28.68 34.99 29.77 34.99 60.64 51.11 59.55 51.11"/><polygon class="cls-150" points="58.47 51.11 27.59 34.99 28.68 34.99 59.55 51.11 58.47 51.11"/><polygon class="cls-97" points="57.38 51.11 26.51 34.99 27.59 34.99 58.47 51.11 57.38 51.11"/><polygon class="cls-113" points="56.29 51.11 26.16 35.38 26.36 34.99 26.51 34.99 57.38 51.11 56.29 51.11"/><polygon class="cls-15" points="55.21 51.11 25.93 35.83 26.16 35.38 56.29 51.11 55.21 51.11"/><polygon class="cls-142" points="54.12 51.11 25.7 36.27 25.93 35.83 55.21 51.11 54.12 51.11"/><polygon class="cls-134" points="53.03 51.11 25.46 36.72 25.7 36.27 54.12 51.11 53.03 51.11"/><polygon class="cls-44" points="51.95 51.11 25.23 37.16 25.46 36.72 53.03 51.11 51.95 51.11"/><polygon class="cls-126" points="50.86 51.11 25 37.61 25.23 37.16 51.95 51.11 50.86 51.11"/><polygon class="cls-99" points="49.77 51.11 24.77 38.06 25 37.61 50.86 51.11 49.77 51.11"/><polygon class="cls-125" points="48.68 51.11 24.53 38.5 24.77 38.06 49.77 51.11 48.68 51.11"/><polygon class="cls-165" points="47.6 51.11 24.3 38.95 24.53 38.5 48.68 51.11 47.6 51.11"/><polygon class="cls-7" points="46.51 51.11 24.07 39.39 24.3 38.95 47.6 51.11 46.51 51.11"/><polygon class="cls-87" points="45.42 51.11 23.83 39.84 24.07 39.39 46.51 51.11 45.42 51.11"/><polygon class="cls-170" points="44.34 51.11 23.6 40.29 23.83 39.84 45.42 51.11 44.34 51.11"/><polygon class="cls-54" points="43.25 51.11 23.37 40.73 23.6 40.29 44.34 51.11 43.25 51.11"/><polygon class="cls-19" points="42.16 51.11 23.14 41.18 23.37 40.73 43.25 51.11 42.16 51.11"/><polygon class="cls-13" points="41.08 51.11 22.9 41.62 23.14 41.18 42.16 51.11 41.08 51.11"/><polygon class="cls-32" points="39.99 51.11 22.67 42.07 22.9 41.62 41.08 51.11 39.99 51.11"/><polygon class="cls-47" points="38.9 51.11 22.44 42.51 22.67 42.07 39.99 51.11 38.9 51.11"/><polygon class="cls-104" points="37.82 51.11 22.21 42.96 22.44 42.51 38.9 51.11 37.82 51.11"/><polygon class="cls-172" points="36.73 51.11 21.97 43.41 22.21 42.96 37.82 51.11 36.73 51.11"/><polygon class="cls-8" points="35.64 51.11 21.74 43.85 21.97 43.41 36.73 51.11 35.64 51.11"/><polygon class="cls-158" points="34.56 51.11 21.51 44.3 21.74 43.85 35.64 51.11 34.56 51.11"/><polygon class="cls-50" points="33.47 51.11 21.27 44.74 21.51 44.3 34.56 51.11 33.47 51.11"/><polygon class="cls-147" points="32.38 51.11 21.04 45.19 21.27 44.74 33.47 51.11 32.38 51.11"/><polygon class="cls-132" points="31.3 51.11 20.97 45.72 20.97 45.34 21.04 45.19 32.38 51.11 31.3 51.11"/><polygon class="cls-67" points="30.21 51.11 20.97 46.28 20.97 45.72 31.3 51.11 30.21 51.11"/><polygon class="cls-164" points="29.12 51.11 20.97 46.85 20.97 46.28 30.21 51.11 29.12 51.11"/><polygon class="cls-187" points="28.04 51.11 20.97 47.42 20.97 46.85 29.12 51.11 28.04 51.11"/><polygon class="cls-145" points="26.95 51.11 20.97 47.99 20.97 47.42 28.04 51.11 26.95 51.11"/><polygon class="cls-43" points="25.86 51.11 20.97 48.55 20.97 47.99 26.95 51.11 25.86 51.11"/><polygon class="cls-34" points="24.78 51.11 20.97 49.12 20.97 48.55 25.86 51.11 24.78 51.11"/><polygon class="cls-121" points="23.69 51.11 20.97 49.69 20.97 49.12 24.78 51.11 23.69 51.11"/><polygon class="cls-133" points="22.6 51.11 20.97 50.26 20.97 49.69 23.69 51.11 22.6 51.11"/><polygon class="cls-37" points="21.52 51.11 20.97 50.82 20.97 50.26 22.6 51.11 21.52 51.11"/><polygon class="cls-39" points="20.97 50.82 21.52 51.11 20.97 51.11 20.97 50.82"/></g><g class="cls-95"><polygon class="cls-72" points="104.48 59.25 104.29 59.15 104.48 59.15 104.48 59.25"/><polygon class="cls-112" points="104.48 59.82 103.2 59.15 104.29 59.15 104.48 59.25 104.48 59.82"/><polygon class="cls-10" points="104.48 60.38 102.12 59.15 103.2 59.15 104.48 59.82 104.48 60.38"/><polygon class="cls-23" points="104.48 60.95 101.03 59.15 102.12 59.15 104.48 60.38 104.48 60.95"/><polygon class="cls-61" points="104.48 61.52 99.94 59.15 101.03 59.15 104.48 60.95 104.48 61.52"/><polygon class="cls-186" points="104.48 62.08 98.86 59.15 99.94 59.15 104.48 61.52 104.48 62.08"/><polygon class="cls-92" points="104.48 62.65 97.77 59.15 98.86 59.15 104.48 62.08 104.48 62.65"/><polygon class="cls-102" points="104.48 63.22 96.68 59.15 97.77 59.15 104.48 62.65 104.48 63.22"/><polygon class="cls-180" points="104.48 63.79 95.6 59.15 96.68 59.15 104.48 63.22 104.48 63.79"/><polygon class="cls-179" points="104.48 64.35 94.51 59.15 95.6 59.15 104.48 63.79 104.48 64.35"/><polygon class="cls-85" points="104.48 64.92 93.42 59.15 94.51 59.15 104.48 64.35 104.48 64.92"/><polygon class="cls-135" points="104.48 65.49 92.34 59.15 93.42 59.15 104.48 64.92 104.48 65.49"/><polygon class="cls-116" points="104.48 66.06 91.25 59.15 92.34 59.15 104.48 65.49 104.48 66.06"/><polygon class="cls-81" points="104.48 66.62 90.16 59.15 91.25 59.15 104.48 66.06 104.48 66.62"/><polygon class="cls-144" points="104.48 67.19 89.08 59.15 90.16 59.15 104.48 66.62 104.48 67.19"/><polygon class="cls-159" points="104.48 67.76 87.99 59.15 89.08 59.15 104.48 67.19 104.48 67.76"/><polygon class="cls-36" points="104.48 68.33 86.9 59.15 87.99 59.15 104.48 67.76 104.48 68.33"/><polygon class="cls-117" points="104.48 68.89 85.82 59.15 86.9 59.15 104.48 68.33 104.48 68.89"/><polygon class="cls-27" points="104.48 69.46 84.73 59.15 85.82 59.15 104.48 68.89 104.48 69.46"/><polygon class="cls-119" points="104.48 70.03 83.64 59.15 84.73 59.15 104.48 69.46 104.48 70.03"/><polygon class="cls-129" points="104.48 70.6 82.56 59.15 83.64 59.15 104.48 70.03 104.48 70.6"/><polygon class="cls-91" points="104.48 71.16 81.47 59.15 82.56 59.15 104.48 70.6 104.48 71.16"/><polygon class="cls-18" points="104.48 71.73 80.38 59.15 81.47 59.15 104.48 71.16 104.48 71.73"/><polygon class="cls-118" points="104.48 72.3 79.3 59.15 80.38 59.15 104.48 71.73 104.48 72.3"/><polygon class="cls-42" points="104.48 72.87 78.21 59.15 79.3 59.15 104.48 72.3 104.48 72.87"/><polygon class="cls-31" points="104.48 73.43 77.12 59.15 78.21 59.15 104.48 72.87 104.48 73.43"/><polygon class="cls-153" points="104.48 74 76.04 59.15 77.12 59.15 104.48 73.43 104.48 74"/><polygon class="cls-139" points="104.48 74.57 74.95 59.15 76.04 59.15 104.48 74 104.48 74.57"/><polygon class="cls-150" points="104.48 75.13 73.86 59.15 74.95 59.15 104.48 74.57 104.48 75.13"/><polygon class="cls-97" points="103.65 75.27 72.77 59.15 73.86 59.15 104.48 75.13 104.48 75.27 103.65 75.27"/><polygon class="cls-113" points="102.56 75.27 71.69 59.15 72.77 59.15 103.65 75.27 102.56 75.27"/><polygon class="cls-15" points="101.47 75.27 70.6 59.15 71.69 59.15 102.56 75.27 101.47 75.27"/><polygon class="cls-142" points="100.39 75.27 69.51 59.15 70.6 59.15 101.47 75.27 100.39 75.27"/><polygon class="cls-134" points="99.3 75.27 68.43 59.15 69.51 59.15 100.39 75.27 99.3 75.27"/><polygon class="cls-44" points="98.21 75.27 67.34 59.15 68.43 59.15 99.3 75.27 98.21 75.27"/><polygon class="cls-126" points="97.13 75.27 66.25 59.15 67.34 59.15 98.21 75.27 97.13 75.27"/><polygon class="cls-99" points="96.04 75.27 65.17 59.15 66.25 59.15 97.13 75.27 96.04 75.27"/><polygon class="cls-125" points="94.95 75.27 64.08 59.15 65.17 59.15 96.04 75.27 94.95 75.27"/><polygon class="cls-165" points="93.86 75.27 62.99 59.15 64.08 59.15 94.95 75.27 93.86 75.27"/><polygon class="cls-7" points="92.78 75.27 61.91 59.15 62.99 59.15 93.86 75.27 92.78 75.27"/><polygon class="cls-87" points="91.69 75.27 60.82 59.15 61.91 59.15 92.78 75.27 91.69 75.27"/><polygon class="cls-170" points="90.6 75.27 59.73 59.15 60.82 59.15 91.69 75.27 90.6 75.27"/><polygon class="cls-54" points="89.52 75.27 58.65 59.15 59.73 59.15 90.6 75.27 89.52 75.27"/><polygon class="cls-19" points="88.43 75.27 57.56 59.15 58.65 59.15 89.52 75.27 88.43 75.27"/><polygon class="cls-13" points="87.34 75.27 56.47 59.15 57.56 59.15 88.43 75.27 87.34 75.27"/><polygon class="cls-32" points="86.26 75.27 55.39 59.15 56.47 59.15 87.34 75.27 86.26 75.27"/><polygon class="cls-47" points="85.17 75.27 54.3 59.15 55.39 59.15 86.26 75.27 85.17 75.27"/><polygon class="cls-104" points="84.08 75.27 53.21 59.15 54.3 59.15 85.17 75.27 84.08 75.27"/><polygon class="cls-172" points="83 75.27 52.13 59.15 53.21 59.15 84.08 75.27 83 75.27"/><polygon class="cls-8" points="81.91 75.27 51.04 59.15 52.13 59.15 83 75.27 81.91 75.27"/><polygon class="cls-158" points="80.82 75.27 49.95 59.15 51.04 59.15 81.91 75.27 80.82 75.27"/><polygon class="cls-50" points="79.74 75.27 48.87 59.15 49.95 59.15 80.82 75.27 79.74 75.27"/><polygon class="cls-147" points="78.65 75.27 47.78 59.15 48.87 59.15 79.74 75.27 78.65 75.27"/><polygon class="cls-132" points="77.56 75.27 46.69 59.15 47.78 59.15 78.65 75.27 77.56 75.27"/><polygon class="cls-67" points="76.48 75.27 45.61 59.15 46.69 59.15 77.56 75.27 76.48 75.27"/><polygon class="cls-164" points="75.39 75.27 44.52 59.15 45.61 59.15 76.48 75.27 75.39 75.27"/><polygon class="cls-187" points="74.3 75.27 43.43 59.15 44.52 59.15 75.39 75.27 74.3 75.27"/><polygon class="cls-145" points="73.22 75.27 42.34 59.15 43.43 59.15 74.3 75.27 73.22 75.27"/><polygon class="cls-43" points="72.13 75.27 41.26 59.15 42.34 59.15 73.22 75.27 72.13 75.27"/><polygon class="cls-34" points="71.04 75.27 40.17 59.15 41.26 59.15 72.13 75.27 71.04 75.27"/><polygon class="cls-121" points="69.96 75.27 39.08 59.15 40.17 59.15 71.04 75.27 69.96 75.27"/><polygon class="cls-133" points="68.87 75.27 38 59.15 39.08 59.15 69.96 75.27 68.87 75.27"/><polygon class="cls-37" points="67.78 75.27 36.91 59.15 38 59.15 68.87 75.27 67.78 75.27"/><polygon class="cls-39" points="66.7 75.27 35.82 59.15 36.91 59.15 67.78 75.27 66.7 75.27"/><polygon class="cls-38" points="65.61 75.27 34.74 59.15 35.82 59.15 66.7 75.27 65.61 75.27"/><polygon class="cls-75" points="64.52 75.27 33.65 59.15 34.74 59.15 65.61 75.27 64.52 75.27"/><polygon class="cls-123" points="63.44 75.27 32.56 59.15 33.65 59.15 64.52 75.27 63.44 75.27"/><polygon class="cls-173" points="62.35 75.27 31.48 59.15 32.56 59.15 63.44 75.27 62.35 75.27"/><polygon class="cls-80" points="61.26 75.27 30.39 59.15 31.48 59.15 62.35 75.27 61.26 75.27"/><polygon class="cls-17" points="60.17 75.27 29.3 59.15 30.39 59.15 61.26 75.27 60.17 75.27"/><polygon class="cls-151" points="59.09 75.27 28.22 59.15 29.3 59.15 60.17 75.27 59.09 75.27"/><polygon class="cls-6" points="58 75.27 27.13 59.15 28.22 59.15 59.09 75.27 58 75.27"/><polygon class="cls-136" points="56.91 75.27 26.04 59.15 27.13 59.15 58 75.27 56.91 75.27"/><polygon class="cls-140" points="55.83 75.27 24.96 59.15 26.04 59.15 56.91 75.27 55.83 75.27"/><polygon class="cls-152" points="54.74 75.27 23.87 59.15 24.96 59.15 55.83 75.27 54.74 75.27"/><polygon class="cls-3" points="53.65 75.27 22.78 59.15 23.87 59.15 54.74 75.27 53.65 75.27"/><polygon class="cls-178" points="52.57 75.27 21.7 59.15 22.78 59.15 53.65 75.27 52.57 75.27"/><polygon class="cls-5" points="51.48 75.27 20.97 59.33 20.97 59.15 21.7 59.15 52.57 75.27 51.48 75.27"/><polygon class="cls-162" points="50.39 75.27 20.97 59.9 20.97 59.33 51.48 75.27 50.39 75.27"/><polygon class="cls-76" points="49.31 75.27 20.97 60.47 20.97 59.9 50.39 75.27 49.31 75.27"/><polygon class="cls-4" points="48.22 75.27 20.97 61.04 20.97 60.47 49.31 75.27 48.22 75.27"/><polygon class="cls-192" points="47.13 75.27 20.97 61.6 20.97 61.04 48.22 75.27 47.13 75.27"/><polygon class="cls-22" points="46.05 75.27 20.97 62.17 20.97 61.6 47.13 75.27 46.05 75.27"/><polygon class="cls-64" points="44.96 75.27 20.97 62.74 20.97 62.17 46.05 75.27 44.96 75.27"/><polygon class="cls-68" points="43.87 75.27 20.97 63.31 20.97 62.74 44.96 75.27 43.87 75.27"/><polygon class="cls-196" points="42.79 75.27 20.97 63.87 20.97 63.31 43.87 75.27 42.79 75.27"/><polygon class="cls-108" points="41.7 75.27 20.97 64.44 20.97 63.87 42.79 75.27 41.7 75.27"/><polygon class="cls-90" points="40.61 75.27 20.97 65.01 20.97 64.44 41.7 75.27 40.61 75.27"/><polygon class="cls-98" points="39.53 75.27 20.97 65.58 20.97 65.01 40.61 75.27 39.53 75.27"/><polygon class="cls-45" points="38.44 75.27 20.97 66.14 20.97 65.58 39.53 75.27 38.44 75.27"/><polygon class="cls-82" points="37.35 75.27 20.97 66.71 20.97 66.14 38.44 75.27 37.35 75.27"/><polygon class="cls-188" points="36.27 75.27 20.97 67.28 20.97 66.71 37.35 75.27 36.27 75.27"/><polygon class="cls-107" points="35.18 75.27 20.97 67.85 20.97 67.28 36.27 75.27 35.18 75.27"/><polygon class="cls-16" points="34.09 75.27 20.97 68.41 20.97 67.85 35.18 75.27 34.09 75.27"/><polygon class="cls-100" points="33.01 75.27 20.97 68.98 20.97 68.41 34.09 75.27 33.01 75.27"/><polygon class="cls-193" points="31.92 75.27 20.97 69.55 20.97 68.98 33.01 75.27 31.92 75.27"/><polygon class="cls-49" points="30.83 75.27 20.97 70.12 20.97 69.55 31.92 75.27 30.83 75.27"/><polygon class="cls-155" points="29.75 75.27 20.97 70.68 20.97 70.12 30.83 75.27 29.75 75.27"/><polygon class="cls-181" points="28.66 75.27 20.97 71.25 20.97 70.68 29.75 75.27 28.66 75.27"/><polygon class="cls-96" points="27.57 75.27 20.97 71.82 20.97 71.25 28.66 75.27 27.57 75.27"/><polygon class="cls-21" points="26.48 75.27 20.97 72.38 20.97 71.82 27.57 75.27 26.48 75.27"/><polygon class="cls-167" points="25.4 75.27 20.97 72.95 20.97 72.38 26.48 75.27 25.4 75.27"/><polygon class="cls-48" points="24.31 75.27 20.97 73.52 20.97 72.95 25.4 75.27 24.31 75.27"/><polygon class="cls-79" points="23.22 75.27 20.97 74.09 20.97 73.52 24.31 75.27 23.22 75.27"/><polygon class="cls-171" points="22.14 75.27 20.97 74.65 20.97 74.09 23.22 75.27 22.14 75.27"/><polygon class="cls-110" points="21.05 75.27 20.97 75.22 20.97 74.65 22.14 75.27 21.05 75.27"/><polygon class="cls-86" points="20.97 75.22 21.05 75.27 20.97 75.27 20.97 75.22"/></g><circle class="cls-166" cx="115.18" cy="110.54" r="34.08"/><path class="cls-109" d="M115.18,144.92c-9.18,0-17.81-3.58-24.31-10.07-6.49-6.49-10.07-15.12-10.07-24.31s3.58-17.81,10.07-24.31c6.49-6.49,15.12-10.07,24.31-10.07s17.81,3.58,24.31,10.07c6.49,6.49,10.07,15.12,10.07,24.31s-3.58,17.81-10.07,24.31c-6.49,6.49-15.12,10.07-24.31,10.07ZM115.18,76.76c-9.02,0-17.51,3.51-23.89,9.89-6.38,6.38-9.89,14.86-9.89,23.88s3.51,17.51,9.89,23.89c6.38,6.38,14.86,9.89,23.89,9.89s17.51-3.51,23.89-9.89c6.38-6.38,9.89-14.86,9.89-23.89s-3.51-17.51-9.89-23.88c-6.38-6.38-14.86-9.89-23.89-9.89Z"/><path class="cls-197" d="M119.91,119.46c0-1.28-.35-2.29-1.06-3.05-.71-.75-1.91-1.45-3.61-2.09-1.7-.64-3.16-1.27-4.39-1.9-1.23-.63-2.28-1.35-3.16-2.17-.88-.82-1.56-1.78-2.05-2.88-.49-1.1-.74-2.42-.74-3.94,0-2.63.84-4.78,2.52-6.46s3.91-2.66,6.7-2.94v-4.99h3.73v5.06c2.75.39,4.91,1.54,6.46,3.44,1.56,1.91,2.33,4.38,2.33,7.41h-6.74c0-1.87-.39-3.26-1.16-4.19-.77-.93-1.8-1.39-3.09-1.39s-2.26.36-2.96,1.09c-.7.72-1.05,1.72-1.05,3,0,1.18.34,2.13,1.03,2.85.68.72,1.96,1.45,3.82,2.19,1.86.75,3.39,1.45,4.59,2.11,1.2.66,2.21,1.41,3.03,2.24.82.83,1.45,1.78,1.89,2.85.44,1.07.65,2.31.65,3.72,0,2.65-.82,4.79-2.47,6.44-1.65,1.65-3.92,2.62-6.81,2.92v4.64h-3.71v-4.62c-3.19-.34-5.66-1.47-7.41-3.4-1.75-1.92-2.63-4.48-2.63-7.67h6.74c0,1.85.44,3.27,1.32,4.26.88.99,2.14,1.48,3.79,1.48,1.37,0,2.45-.36,3.24-1.09s1.19-1.7,1.19-2.93Z"/></svg>