<?xml version="1.0" encoding="UTF-8"?><svg id="Layer_1" xmlns="http://www.w3.org/2000/svg" xmlns:xlink="http://www.w3.org/1999/xlink" viewBox="0 0 150 150"><defs><style>.cls-1{clip-rule:evenodd;}.cls-1,.cls-2,.cls-3{fill:#fff;}.cls-2{fill-rule:evenodd;}.cls-4{fill:#639ff7;}.cls-5{fill:#fcffff;}.cls-6{clip-path:url(#clippath);}.cls-7{fill:#0f1616;}</style><clipPath id="clippath"><path class="cls-1" d="M83.45,58.7c3.59,4.51,5.75,10.24,5.75,16.45s-2.21,12.1-5.91,16.65l-.32.39-.09-.51c-.07-.41-.16-.85-.25-1.29-1.84-8.12-7.87-15.09-17.81-20.75-6.69-3.8-10.54-8.37-11.55-13.57-.64-3.36-.16-6.74.76-9.64.94-2.9,2.32-5.31,3.5-6.76l3.86-4.72c.67-.83,1.96-.83,2.62,0l19.44,23.74h0ZM89.55,53.99l-25.86-31.61c-.48-.6-1.43-.6-1.91,0l-25.88,31.61-.09.12c-4.74,5.91-7.59,13.41-7.59,21.58,0,19.02,15.46,34.46,34.51,34.46s34.51-15.44,34.51-34.46c0-8.17-2.85-15.67-7.61-21.58l-.07-.12h0ZM42.09,58.61l2.3-2.83.07.53c.05.41.12.83.21,1.24,1.5,7.84,6.86,14.4,15.78,19.46,7.78,4.42,12.28,9.5,13.6,15.09.55,2.32.64,4.62.41,6.63l-.02.12-.12.05c-3.5,1.7-7.45,2.67-11.62,2.67-14.61,0-26.45-11.82-26.45-26.41,0-6.26,2.19-12.03,5.84-16.54h0Z"/></clipPath></defs><circle class="cls-4" cx="62.72" cy="67.36" r="62.28"/><path class="cls-2" d="M83.45,58.7c3.59,4.51,5.75,10.24,5.75,16.45s-2.21,12.1-5.91,16.65l-.32.39-.09-.51c-.07-.41-.16-.85-.25-1.29-1.84-8.12-7.87-15.09-17.81-20.75-6.69-3.8-10.54-8.37-11.55-13.57-.64-3.36-.16-6.74.76-9.64.94-2.9,2.32-5.31,3.5-6.76l3.86-4.72c.67-.83,1.96-.83,2.62,0l19.44,23.74h0ZM89.55,53.99l-25.86-31.61c-.48-.6-1.43-.6-1.91,0l-25.88,31.61-.09.12c-4.74,5.91-7.59,13.41-7.59,21.58,0,19.02,15.46,34.46,34.51,34.46s34.51-15.44,34.51-34.46c0-8.17-2.85-15.67-7.61-21.58l-.07-.12h0ZM42.09,58.61l2.3-2.83.07.53c.05.41.12.83.21,1.24,1.5,7.84,6.86,14.4,15.78,19.46,7.78,4.42,12.28,9.5,13.6,15.09.55,2.32.64,4.62.41,6.63l-.02.12-.12.05c-3.5,1.7-7.45,2.67-11.62,2.67-14.61,0-26.45-11.82-26.45-26.41,0-6.26,2.19-12.03,5.84-16.54h0Z"/><g class="cls-6"><polygon class="cls-2" points="36.47 55.78 36.25 55.87 36.25 55.78 36.47 55.78"/><polygon class="cls-2" points="37.65 55.78 36.25 56.32 36.25 55.87 36.47 55.78 37.65 55.78"/><polygon class="cls-2" points="38.83 55.78 36.25 56.77 36.25 56.32 37.65 55.78 38.83 55.78"/><polygon class="cls-2" points="40.02 55.78 36.25 57.22 36.25 56.77 38.83 55.78 40.02 55.78"/><polygon class="cls-2" points="41.2 55.78 36.25 57.67 36.25 57.22 40.02 55.78 41.2 55.78"/><polygon class="cls-2" points="42.38 55.78 36.25 58.12 36.25 57.67 41.2 55.78 42.38 55.78"/><polygon class="cls-2" points="43.57 55.78 36.25 58.57 36.25 58.12 42.38 55.78 43.57 55.78"/><polygon class="cls-2" points="44.75 55.78 36.25 59.02 36.25 58.57 43.57 55.78 44.75 55.78"/><polygon class="cls-2" points="45.93 55.78 36.25 59.47 36.25 59.02 44.75 55.78 45.93 55.78"/><polygon class="cls-2" points="47.12 55.78 36.25 59.92 36.25 59.47 45.93 55.78 47.12 55.78"/><polygon class="cls-2" points="48.3 55.78 36.25 60.37 36.25 59.92 47.12 55.78 48.3 55.78"/><polygon class="cls-2" points="49.48 55.78 36.25 60.82 36.25 60.37 48.3 55.78 49.48 55.78"/><polygon class="cls-2" points="50.66 55.78 36.25 61.27 36.25 60.82 49.48 55.78 50.66 55.78"/><polygon class="cls-2" points="51.85 55.78 36.25 61.72 36.25 61.27 50.66 55.78 51.85 55.78"/><polygon class="cls-2" points="53.03 55.78 36.25 62.17 36.25 61.72 51.85 55.78 53.03 55.78"/><polygon class="cls-2" points="54.21 55.78 36.25 62.62 36.25 62.17 53.03 55.78 54.21 55.78"/><polygon class="cls-2" points="55.4 55.78 36.25 63.07 36.25 62.62 54.21 55.78 55.4 55.78"/><polygon class="cls-2" points="56.58 55.78 36.25 63.52 36.25 63.07 55.4 55.78 56.58 55.78"/><polygon class="cls-2" points="57.76 55.78 36.25 63.97 36.25 63.52 56.58 55.78 57.76 55.78"/><polygon class="cls-2" points="58.95 55.78 36.25 64.42 36.25 63.97 57.76 55.78 58.95 55.78"/><polygon class="cls-2" points="60.13 55.78 36.25 64.87 36.25 64.42 58.95 55.78 60.13 55.78"/><polygon class="cls-2" points="61.31 55.78 36.25 65.32 36.25 64.87 60.13 55.78 61.31 55.78"/><polygon class="cls-2" points="61.75 55.78 61.84 56.03 36.25 65.77 36.25 65.32 61.31 55.78 61.75 55.78"/><polygon class="cls-2" points="61.84 56.03 61.99 56.42 36.25 66.22 36.25 65.77 61.84 56.03"/><polygon class="cls-2" points="61.99 56.42 62.14 56.81 36.25 66.67 36.25 66.22 61.99 56.42"/><polygon class="cls-2" points="62.14 56.81 62.29 57.21 36.25 67.12 36.25 66.67 62.14 56.81"/><polygon class="cls-2" points="62.29 57.21 62.44 57.6 36.25 67.57 36.25 67.12 62.29 57.21"/><polygon class="cls-2" points="62.44 57.6 62.59 57.99 36.25 68.02 36.25 67.57 62.44 57.6"/><polygon class="cls-2" points="62.59 57.99 62.74 58.39 36.25 68.47 36.25 68.02 62.59 57.99"/><polygon class="cls-2" points="62.74 58.39 62.89 58.78 36.25 68.92 36.25 68.47 62.74 58.39"/><polygon class="cls-2" points="62.89 58.78 63.04 59.17 36.25 69.37 36.25 68.92 62.89 58.78"/><polygon class="cls-2" points="63.04 59.17 63.19 59.57 36.25 69.82 36.25 69.37 63.04 59.17"/><polygon class="cls-2" points="63.19 59.57 63.34 59.96 36.25 70.27 36.25 69.82 63.19 59.57"/><polygon class="cls-2" points="63.34 59.96 63.49 60.35 36.25 70.72 36.25 70.27 63.34 59.96"/><polygon class="cls-2" points="63.49 60.35 63.64 60.75 36.25 71.17 36.25 70.72 63.49 60.35"/><polygon class="cls-2" points="63.64 60.75 63.79 61.14 36.25 71.62 36.25 71.17 63.64 60.75"/><polygon class="cls-2" points="63.79 61.14 63.94 61.53 36.25 72.07 36.25 71.62 63.79 61.14"/><polygon class="cls-2" points="63.94 61.53 64.09 61.93 36.25 72.52 36.25 72.07 63.94 61.53"/><polygon class="cls-2" points="64.09 61.93 64.24 62.32 36.25 72.97 36.25 72.52 64.09 61.93"/><polygon class="cls-2" points="64.24 62.32 64.39 62.71 36.25 73.43 36.25 72.97 64.24 62.32"/><polygon class="cls-2" points="64.39 62.71 64.54 63.11 36.25 73.88 36.25 73.43 64.39 62.71"/><polygon class="cls-2" points="64.54 63.11 64.69 63.5 36.25 74.33 36.25 73.88 64.54 63.11"/><polygon class="cls-2" points="64.69 63.5 64.84 63.89 36.25 74.78 36.25 74.33 64.69 63.5"/><polygon class="cls-2" points="64.84 63.89 64.99 64.29 36.25 75.23 36.25 74.78 64.84 63.89"/><polygon class="cls-2" points="64.99 64.29 65.14 64.68 36.25 75.68 36.25 75.23 64.99 64.29"/><polygon class="cls-2" points="65.14 64.68 65.28 65.07 36.25 76.13 36.25 75.68 65.14 64.68"/><polygon class="cls-2" points="65.28 65.07 65.43 65.47 36.25 76.58 36.25 76.13 65.28 65.07"/><polygon class="cls-2" points="65.43 65.47 65.58 65.86 36.25 77.03 36.25 76.58 65.43 65.47"/><polygon class="cls-2" points="65.58 65.86 65.73 66.25 36.25 77.48 36.25 77.03 65.58 65.86"/><polygon class="cls-2" points="65.73 66.25 65.88 66.65 36.25 77.93 36.25 77.48 65.73 66.25"/><polygon class="cls-2" points="65.88 66.65 66.03 67.04 36.25 78.38 36.25 77.93 65.88 66.65"/><polygon class="cls-2" points="66.03 67.04 66.18 67.43 36.25 78.83 36.25 78.38 66.03 67.04"/><polygon class="cls-2" points="66.18 67.43 66.33 67.83 36.25 79.28 36.25 78.83 66.18 67.43"/><polygon class="cls-2" points="66.33 67.83 66.48 68.22 36.25 79.73 36.25 79.28 66.33 67.83"/><polygon class="cls-2" points="66.48 68.22 66.63 68.61 36.25 80.18 36.25 79.73 66.48 68.22"/><polygon class="cls-2" points="66.63 68.61 66.78 69.01 36.25 80.63 36.25 80.18 66.63 68.61"/><polygon class="cls-2" points="66.78 69.01 66.93 69.4 36.25 81.08 36.25 80.63 66.78 69.01"/><polygon class="cls-2" points="66.93 69.4 67.08 69.79 36.25 81.53 36.25 81.08 66.93 69.4"/><polygon class="cls-2" points="67.08 69.79 67.23 70.19 36.25 81.98 36.25 81.53 67.08 69.79"/><polygon class="cls-2" points="67.23 70.19 67.38 70.58 36.25 82.43 36.25 81.98 67.23 70.19"/><polygon class="cls-2" points="67.38 70.58 67.53 70.97 36.25 82.88 36.25 82.43 67.38 70.58"/><polygon class="cls-2" points="67.53 70.97 67.68 71.37 36.25 83.33 36.25 82.88 67.53 70.97"/><polygon class="cls-2" points="67.68 71.37 67.83 71.76 36.25 83.78 36.25 83.33 67.68 71.37"/><polygon class="cls-2" points="67.83 71.76 67.98 72.15 36.25 84.23 36.25 83.78 67.83 71.76"/><polygon class="cls-2" points="67.98 72.15 68.13 72.55 36.25 84.68 36.25 84.23 67.98 72.15"/><polygon class="cls-2" points="68.13 72.55 68.28 72.94 36.25 85.13 36.25 84.68 68.13 72.55"/><polygon class="cls-2" points="68.28 72.94 68.43 73.33 36.25 85.58 36.25 85.13 68.28 72.94"/><polygon class="cls-2" points="68.43 73.33 68.58 73.73 36.25 86.03 36.25 85.58 68.43 73.33"/><polygon class="cls-2" points="68.58 73.73 68.73 74.12 36.25 86.48 36.25 86.03 68.58 73.73"/><polygon class="cls-2" points="68.73 74.12 68.88 74.51 36.25 86.93 36.25 86.48 68.73 74.12"/><polygon class="cls-2" points="68.88 74.51 69.03 74.91 36.25 87.38 36.25 86.93 68.88 74.51"/><polygon class="cls-2" points="69.03 74.91 69.18 75.3 36.25 87.83 36.25 87.38 69.03 74.91"/><polygon class="cls-2" points="69.18 75.3 69.33 75.69 36.25 88.28 36.25 87.83 69.18 75.3"/><polygon class="cls-2" points="69.33 75.69 69.48 76.09 36.25 88.73 36.25 88.28 69.33 75.69"/><polygon class="cls-2" points="69.48 76.09 69.63 76.48 36.25 89.18 36.25 88.73 69.48 76.09"/><polygon class="cls-2" points="69.63 76.48 69.78 76.87 36.25 89.63 36.25 89.18 69.63 76.48"/><polygon class="cls-2" points="69.78 76.87 69.93 77.27 36.25 90.08 36.25 89.63 69.78 76.87"/><polygon class="cls-2" points="69.93 77.27 70.07 77.66 36.25 90.53 36.25 90.08 69.93 77.27"/><polygon class="cls-2" points="70.07 77.66 70.22 78.05 36.25 90.98 36.25 90.53 70.07 77.66"/><polygon class="cls-2" points="70.22 78.05 70.37 78.45 36.25 91.44 36.25 90.98 70.22 78.05"/><polygon class="cls-2" points="70.37 78.45 70.52 78.84 36.34 91.85 36.25 91.61 36.25 91.44 70.37 78.45"/><rect class="cls-3" x="35.21" y="85.33" width="36.58" height=".42" transform="translate(-26.93 24.63) rotate(-20.84)"/><rect class="cls-3" x="35.36" y="85.72" width="36.58" height=".42" transform="translate(-27.06 24.71) rotate(-20.84)"/><rect class="cls-3" x="35.51" y="86.12" width="36.58" height=".42" transform="translate(-27.19 24.78) rotate(-20.84)"/><rect class="cls-3" x="35.66" y="86.51" width="36.58" height=".42" transform="translate(-27.32 24.86) rotate(-20.84)"/><rect class="cls-3" x="35.81" y="86.9" width="36.58" height=".42" transform="translate(-27.45 24.94) rotate(-20.84)"/><rect class="cls-3" x="35.96" y="87.3" width="36.58" height=".42" transform="translate(-27.58 25.02) rotate(-20.84)"/><rect class="cls-3" x="36.11" y="87.69" width="36.58" height=".42" transform="translate(-27.71 25.1) rotate(-20.84)"/><rect class="cls-3" x="36.26" y="88.08" width="36.58" height=".42" transform="translate(-27.84 25.18) rotate(-20.84)"/><rect class="cls-3" x="36.41" y="88.48" width="36.58" height=".42" transform="translate(-27.97 25.26) rotate(-20.84)"/><rect class="cls-3" x="36.56" y="88.87" width="36.58" height=".42" transform="translate(-28.1 25.34) rotate(-20.84)"/><rect class="cls-3" x="36.71" y="89.26" width="36.58" height=".42" transform="translate(-28.23 25.42) rotate(-20.84)"/><rect class="cls-3" x="36.86" y="89.66" width="36.58" height=".42" transform="translate(-28.36 25.5) rotate(-20.84)"/><rect class="cls-3" x="37.01" y="90.05" width="36.58" height=".42" transform="translate(-28.49 25.57) rotate(-20.84)"/><rect class="cls-3" x="37.16" y="90.44" width="36.58" height=".42" transform="translate(-28.62 25.65) rotate(-20.84)"/><rect class="cls-3" x="37.31" y="90.84" width="36.58" height=".42" transform="translate(-28.75 25.73) rotate(-20.84)"/><rect class="cls-3" x="37.46" y="91.23" width="36.58" height=".42" transform="translate(-28.88 25.81) rotate(-20.84)"/><rect class="cls-3" x="37.61" y="91.62" width="36.58" height=".42" transform="translate(-29.01 25.89) rotate(-20.84)"/><rect class="cls-3" x="37.76" y="92.02" width="36.58" height=".42" transform="translate(-29.14 25.97) rotate(-20.84)"/><rect class="cls-3" x="37.91" y="92.41" width="36.58" height=".42" transform="translate(-29.27 26.05) rotate(-20.84)"/><rect class="cls-3" x="38.06" y="92.8" width="36.58" height=".42" transform="translate(-29.4 26.13) rotate(-20.84)"/><rect class="cls-3" x="38.21" y="93.2" width="36.58" height=".42" transform="translate(-29.53 26.21) rotate(-20.84)"/><rect class="cls-3" x="38.36" y="93.59" width="36.58" height=".42" transform="translate(-29.66 26.29) rotate(-20.84)"/><rect class="cls-3" x="38.51" y="93.98" width="36.58" height=".42" transform="translate(-29.79 26.36) rotate(-20.84)"/><rect class="cls-3" x="38.66" y="94.38" width="36.58" height=".42" transform="translate(-29.92 26.44) rotate(-20.84)"/><polygon class="cls-2" points="74.12 88.28 74.27 88.67 40.41 101.56 40.03 101.56 39.93 101.29 74.12 88.28"/><polygon class="cls-2" points="74.27 88.67 74.42 89.06 41.59 101.56 40.41 101.56 74.27 88.67"/><polygon class="cls-2" points="74.42 89.06 74.57 89.46 42.77 101.56 41.59 101.56 74.42 89.06"/><polygon class="cls-2" points="74.57 89.46 74.68 89.77 74.68 89.86 43.95 101.56 42.77 101.56 74.57 89.46"/><polygon class="cls-2" points="74.68 90.31 45.14 101.56 43.95 101.56 74.68 89.86 74.68 90.31"/><polygon class="cls-2" points="74.68 90.76 46.32 101.56 45.14 101.56 74.68 90.31 74.68 90.76"/><polygon class="cls-2" points="74.68 91.21 47.5 101.56 46.32 101.56 74.68 90.76 74.68 91.21"/><polygon class="cls-2" points="74.68 91.66 48.69 101.56 47.5 101.56 74.68 91.21 74.68 91.66"/><polygon class="cls-2" points="74.68 92.11 49.87 101.56 48.69 101.56 74.68 91.66 74.68 92.11"/><polygon class="cls-2" points="74.68 92.56 51.05 101.56 49.87 101.56 74.68 92.11 74.68 92.56"/><polygon class="cls-2" points="74.68 93.01 52.24 101.56 51.05 101.56 74.68 92.56 74.68 93.01"/><polygon class="cls-2" points="74.68 93.46 53.42 101.56 52.24 101.56 74.68 93.01 74.68 93.46"/><polygon class="cls-2" points="74.68 93.91 54.6 101.56 53.42 101.56 74.68 93.46 74.68 93.91"/><polygon class="cls-2" points="74.68 94.36 55.78 101.56 54.6 101.56 74.68 93.91 74.68 94.36"/><polygon class="cls-2" points="74.68 94.82 56.97 101.56 55.78 101.56 74.68 94.36 74.68 94.82"/><polygon class="cls-2" points="74.68 95.27 58.15 101.56 56.97 101.56 74.68 94.82 74.68 95.27"/><polygon class="cls-2" points="74.68 95.72 59.33 101.56 58.15 101.56 74.68 95.27 74.68 95.72"/><polygon class="cls-2" points="74.68 96.17 60.52 101.56 59.33 101.56 74.68 95.72 74.68 96.17"/><polygon class="cls-2" points="74.68 96.62 61.7 101.56 60.52 101.56 74.68 96.17 74.68 96.62"/><polygon class="cls-2" points="74.68 97.07 62.88 101.56 61.7 101.56 74.68 96.62 74.68 97.07"/><polygon class="cls-2" points="74.68 97.52 64.07 101.56 62.88 101.56 74.68 97.07 74.68 97.52"/><polygon class="cls-2" points="74.68 97.97 65.25 101.56 64.07 101.56 74.68 97.52 74.68 97.97"/><polygon class="cls-2" points="74.68 98.42 66.43 101.56 65.25 101.56 74.68 97.97 74.68 98.42"/><polygon class="cls-2" points="74.68 98.87 67.61 101.56 66.43 101.56 74.68 98.42 74.68 98.87"/><polygon class="cls-2" points="74.68 99.32 68.8 101.56 67.61 101.56 74.68 98.87 74.68 99.32"/><polygon class="cls-2" points="74.68 99.77 69.98 101.56 68.8 101.56 74.68 99.32 74.68 99.77"/><polygon class="cls-2" points="74.68 100.22 71.16 101.56 69.98 101.56 74.68 99.77 74.68 100.22"/><polygon class="cls-2" points="74.68 100.67 72.35 101.56 71.16 101.56 74.68 100.22 74.68 100.67"/><polygon class="cls-2" points="74.68 101.12 73.53 101.56 72.35 101.56 74.68 100.67 74.68 101.12"/><polygon class="cls-2" points="73.53 101.56 74.68 101.12 74.68 101.56 73.53 101.56"/><polygon class="cls-2" points="80.54 21.78 85.67 35.25 28.22 57.12 28.22 21.78 80.54 21.78"/><polygon class="cls-2" points="85.67 35.25 85.82 35.65 28.22 57.57 28.22 57.12 85.67 35.25"/><polygon class="cls-2" points="85.82 35.65 85.97 36.04 28.22 58.02 28.22 57.57 85.82 35.65"/><polygon class="cls-2" points="85.97 36.04 86.12 36.43 28.22 58.47 28.22 58.02 85.97 36.04"/><polygon class="cls-2" points="86.12 36.43 86.27 36.83 28.22 58.92 28.22 58.47 86.12 36.43"/><polygon class="cls-2" points="86.27 36.83 86.42 37.22 28.22 59.37 28.22 58.92 86.27 36.83"/><polygon class="cls-2" points="86.42 37.22 86.57 37.61 28.22 59.82 28.22 59.37 86.42 37.22"/><polygon class="cls-2" points="86.57 37.61 86.72 38.01 28.22 60.27 28.22 59.82 86.57 37.61"/><polygon class="cls-2" points="86.72 38.01 86.87 38.4 28.22 60.72 28.22 60.27 86.72 38.01"/><polygon class="cls-2" points="86.87 38.4 87.02 38.79 28.22 61.17 28.22 60.72 86.87 38.4"/><polygon class="cls-2" points="87.02 38.79 87.17 39.19 28.22 61.62 28.22 61.17 87.02 38.79"/><polygon class="cls-2" points="87.17 39.19 87.31 39.58 28.22 62.07 28.22 61.62 87.17 39.19"/><polygon class="cls-2" points="87.31 39.58 87.46 39.97 28.22 62.52 28.22 62.07 87.31 39.58"/><polygon class="cls-2" points="87.46 39.97 87.61 40.37 28.22 62.97 28.22 62.52 87.46 39.97"/><polygon class="cls-2" points="87.61 40.37 87.76 40.76 28.22 63.42 28.22 62.97 87.61 40.37"/><polygon class="cls-2" points="87.76 40.76 87.91 41.15 28.22 63.87 28.22 63.42 87.76 40.76"/><polygon class="cls-2" points="87.91 41.15 88.06 41.55 28.22 64.32 28.22 63.87 87.91 41.15"/><polygon class="cls-2" points="88.06 41.55 88.21 41.94 28.22 64.77 28.22 64.32 88.06 41.55"/><polygon class="cls-2" points="88.21 41.94 88.36 42.33 28.22 65.22 28.22 64.77 88.21 41.94"/><polygon class="cls-2" points="88.36 42.33 88.51 42.73 28.22 65.67 28.22 65.22 88.36 42.33"/><polygon class="cls-2" points="88.51 42.73 88.66 43.12 28.22 66.12 28.22 65.67 88.51 42.73"/><polygon class="cls-2" points="88.66 43.12 88.81 43.51 28.22 66.58 28.22 66.12 88.66 43.12"/><polygon class="cls-2" points="88.81 43.51 88.96 43.91 28.22 67.03 28.22 66.58 88.81 43.51"/><polygon class="cls-2" points="88.96 43.91 89.11 44.3 28.22 67.48 28.22 67.03 88.96 43.91"/><polygon class="cls-2" points="89.11 44.3 89.26 44.69 28.22 67.93 28.22 67.48 89.11 44.3"/><polygon class="cls-2" points="89.26 44.69 89.41 45.09 28.22 68.38 28.22 67.93 89.26 44.69"/><polygon class="cls-2" points="89.41 45.09 89.56 45.48 28.22 68.83 28.22 68.38 89.41 45.09"/><polygon class="cls-2" points="89.56 45.48 89.71 45.87 28.22 69.28 28.22 68.83 89.56 45.48"/><polygon class="cls-2" points="89.71 45.87 89.86 46.27 28.22 69.73 28.22 69.28 89.71 45.87"/><polygon class="cls-2" points="89.86 46.27 90.01 46.66 28.22 70.18 28.22 69.73 89.86 46.27"/><polygon class="cls-2" points="90.01 46.66 90.16 47.05 28.22 70.63 28.22 70.18 90.01 46.66"/><polygon class="cls-2" points="90.16 47.05 90.31 47.45 28.22 71.08 28.22 70.63 90.16 47.05"/><polygon class="cls-2" points="90.31 47.45 90.46 47.84 28.22 71.53 28.22 71.08 90.31 47.45"/><polygon class="cls-2" points="90.46 47.84 90.61 48.23 28.22 71.98 28.22 71.53 90.46 47.84"/><polygon class="cls-2" points="90.61 48.23 90.76 48.63 28.22 72.43 28.22 71.98 90.61 48.23"/><polygon class="cls-2" points="90.76 48.63 90.91 49.02 28.22 72.88 28.22 72.43 90.76 48.63"/><polygon class="cls-2" points="90.91 49.02 91.06 49.41 28.22 73.33 28.22 72.88 90.91 49.02"/><polygon class="cls-2" points="91.06 49.41 91.21 49.81 28.22 73.78 28.22 73.33 91.06 49.41"/><polygon class="cls-2" points="91.21 49.81 91.36 50.2 28.22 74.23 28.22 73.78 91.21 49.81"/><polygon class="cls-2" points="91.36 50.2 91.51 50.59 28.22 74.68 28.22 74.23 91.36 50.2"/><polygon class="cls-2" points="91.51 50.59 91.66 50.98 28.22 75.13 28.22 74.68 91.51 50.59"/><polygon class="cls-2" points="91.66 50.98 91.81 51.38 28.22 75.58 28.22 75.13 91.66 50.98"/><polygon class="cls-2" points="91.81 51.38 91.95 51.77 28.22 76.03 28.22 75.58 91.81 51.38"/><polygon class="cls-2" points="91.95 51.77 92.1 52.16 28.22 76.48 28.22 76.03 91.95 51.77"/><polygon class="cls-2" points="92.1 52.16 92.25 52.56 28.22 76.93 28.22 76.48 92.1 52.16"/><polygon class="cls-2" points="92.25 52.56 92.4 52.95 28.22 77.38 28.22 76.93 92.25 52.56"/><polygon class="cls-2" points="92.4 52.95 92.55 53.34 28.22 77.83 28.22 77.38 92.4 52.95"/><polygon class="cls-2" points="92.55 53.34 92.7 53.74 28.22 78.28 28.22 77.83 92.55 53.34"/><polygon class="cls-2" points="92.7 53.74 92.85 54.13 28.22 78.73 28.22 78.28 92.7 53.74"/><polygon class="cls-2" points="92.85 54.13 93 54.52 28.22 79.18 28.22 78.73 92.85 54.13"/><polygon class="cls-2" points="93 54.52 93.15 54.92 28.22 79.63 28.22 79.18 93 54.52"/><polygon class="cls-2" points="93.15 54.92 93.3 55.31 28.22 80.08 28.22 79.63 93.15 54.92"/><polygon class="cls-2" points="93.3 55.31 93.45 55.7 28.22 80.53 28.22 80.08 93.3 55.31"/><polygon class="cls-2" points="93.45 55.7 93.6 56.1 28.22 80.98 28.22 80.53 93.45 55.7"/><polygon class="cls-2" points="93.6 56.1 93.75 56.49 28.22 81.43 28.22 80.98 93.6 56.1"/><polygon class="cls-2" points="93.75 56.49 93.9 56.88 28.22 81.88 28.22 81.43 93.75 56.49"/><polygon class="cls-2" points="93.9 56.88 94.05 57.28 28.22 82.33 28.22 81.88 93.9 56.88"/><polygon class="cls-2" points="94.05 57.28 94.2 57.67 28.22 82.78 28.22 82.33 94.05 57.28"/><polygon class="cls-2" points="94.2 57.67 94.35 58.06 28.22 83.23 28.22 82.78 94.2 57.67"/><polygon class="cls-2" points="94.35 58.06 94.5 58.46 28.22 83.68 28.22 83.23 94.35 58.06"/><polygon class="cls-2" points="94.5 58.46 94.65 58.85 28.22 84.13 28.22 83.68 94.5 58.46"/><polygon class="cls-2" points="94.65 58.85 94.8 59.24 28.22 84.59 28.22 84.13 94.65 58.85"/><polygon class="cls-2" points="94.8 59.24 94.95 59.64 28.22 85.04 28.22 84.59 94.8 59.24"/><polygon class="cls-2" points="94.95 59.64 95.1 60.03 28.22 85.49 28.22 85.04 94.95 59.64"/><polygon class="cls-2" points="95.1 60.03 95.25 60.42 28.22 85.94 28.22 85.49 95.1 60.03"/><polygon class="cls-2" points="95.25 60.42 95.4 60.82 28.22 86.39 28.22 85.94 95.25 60.42"/><polygon class="cls-2" points="95.4 60.82 95.55 61.21 28.22 86.84 28.22 86.39 95.4 60.82"/><polygon class="cls-2" points="95.55 61.21 95.7 61.6 28.22 87.29 28.22 86.84 95.55 61.21"/><polygon class="cls-2" points="95.7 61.6 95.85 62 28.22 87.74 28.22 87.29 95.7 61.6"/><polygon class="cls-2" points="95.85 62 96 62.39 28.22 88.19 28.22 87.74 95.85 62"/><polygon class="cls-2" points="96 62.39 96.15 62.78 28.22 88.64 28.22 88.19 96 62.39"/><polygon class="cls-2" points="96.15 62.78 96.3 63.18 28.22 89.09 28.22 88.64 96.15 62.78"/><polygon class="cls-2" points="96.3 63.18 96.45 63.57 28.22 89.54 28.22 89.09 96.3 63.18"/><polygon class="cls-2" points="96.45 63.57 96.6 63.96 28.22 89.99 28.22 89.54 96.45 63.57"/><polygon class="cls-2" points="96.6 63.96 96.74 64.36 28.22 90.44 28.22 89.99 96.6 63.96"/><polygon class="cls-2" points="96.74 64.36 96.89 64.75 28.22 90.89 28.22 90.44 96.74 64.36"/><polygon class="cls-2" points="96.89 64.75 97.04 65.14 28.22 91.34 28.22 90.89 96.89 64.75"/><polygon class="cls-2" points="97.04 65.14 97.19 65.54 28.22 91.79 28.22 91.34 97.04 65.14"/><polygon class="cls-2" points="97.19 65.54 97.23 65.63 97.23 65.97 28.22 92.24 28.22 91.79 97.19 65.54"/><polygon class="cls-2" points="97.23 66.42 28.22 92.69 28.22 92.24 97.23 65.97 97.23 66.42"/><polygon class="cls-2" points="97.23 66.87 28.22 93.14 28.22 92.69 97.23 66.42 97.23 66.87"/><polygon class="cls-2" points="97.23 67.32 28.22 93.59 28.22 93.14 97.23 66.87 97.23 67.32"/><polygon class="cls-2" points="97.23 67.77 28.22 94.04 28.22 93.59 97.23 67.32 97.23 67.77"/><polygon class="cls-2" points="97.23 68.22 28.22 94.49 28.22 94.04 97.23 67.77 97.23 68.22"/><polygon class="cls-2" points="97.23 68.67 28.22 94.94 28.22 94.49 97.23 68.22 97.23 68.67"/><polygon class="cls-2" points="97.23 69.13 28.22 95.39 28.22 94.94 97.23 68.67 97.23 69.13"/><polygon class="cls-2" points="97.23 69.58 28.22 95.84 28.22 95.39 97.23 69.13 97.23 69.58"/><polygon class="cls-2" points="97.23 70.03 28.22 96.29 28.22 95.84 97.23 69.58 97.23 70.03"/><polygon class="cls-2" points="97.23 70.48 28.27 96.72 28.22 96.58 28.22 96.29 97.23 70.03 97.23 70.48"/><polygon class="cls-2" points="97.23 70.93 28.42 97.12 28.27 96.72 97.23 70.48 97.23 70.93"/><polygon class="cls-2" points="97.23 71.38 28.57 97.51 28.42 97.12 97.23 70.93 97.23 71.38"/><polygon class="cls-2" points="97.23 71.83 28.72 97.9 28.57 97.51 97.23 71.38 97.23 71.83"/><polygon class="cls-2" points="97.23 72.28 28.87 98.3 28.72 97.9 97.23 71.83 97.23 72.28"/><polygon class="cls-2" points="97.23 72.73 29.02 98.69 28.87 98.3 97.23 72.28 97.23 72.73"/><polygon class="cls-2" points="97.23 73.18 29.17 99.08 29.02 98.69 97.23 72.73 97.23 73.18"/><polygon class="cls-2" points="97.23 73.63 29.32 99.47 29.17 99.08 97.23 73.18 97.23 73.63"/><polygon class="cls-2" points="97.23 74.08 29.47 99.87 29.32 99.47 97.23 73.63 97.23 74.08"/><polygon class="cls-2" points="97.23 74.53 29.62 100.26 29.47 99.87 97.23 74.08 97.23 74.53"/><polygon class="cls-2" points="97.23 74.98 29.77 100.65 29.62 100.26 97.23 74.53 97.23 74.98"/><polygon class="cls-2" points="97.23 75.43 29.92 101.05 29.77 100.65 97.23 74.98 97.23 75.43"/><polygon class="cls-2" points="97.23 75.88 30.07 101.44 29.92 101.05 97.23 75.43 97.23 75.88"/><polygon class="cls-2" points="97.23 76.33 30.22 101.83 30.07 101.44 97.23 75.88 97.23 76.33"/><polygon class="cls-2" points="97.23 76.78 30.37 102.23 30.22 101.83 97.23 76.33 97.23 76.78"/><polygon class="cls-2" points="97.23 77.23 30.51 102.62 30.37 102.23 97.23 76.78 97.23 77.23"/><polygon class="cls-2" points="97.23 77.68 30.66 103.01 30.51 102.62 97.23 77.23 97.23 77.68"/><polygon class="cls-2" points="97.23 78.13 30.81 103.41 30.66 103.01 97.23 77.68 97.23 78.13"/><polygon class="cls-2" points="97.23 78.58 30.96 103.8 30.81 103.41 97.23 78.13 97.23 78.58"/><polygon class="cls-2" points="97.23 79.03 31.11 104.19 30.96 103.8 97.23 78.58 97.23 79.03"/><polygon class="cls-2" points="97.23 79.48 31.26 104.59 31.11 104.19 97.23 79.03 97.23 79.48"/><polygon class="cls-2" points="97.23 79.93 31.41 104.98 31.26 104.59 97.23 79.48 97.23 79.93"/><polygon class="cls-2" points="97.23 80.38 31.56 105.37 31.41 104.98 97.23 79.93 97.23 80.38"/><polygon class="cls-2" points="97.23 80.83 31.71 105.77 31.56 105.37 97.23 80.38 97.23 80.83"/><polygon class="cls-2" points="97.23 81.28 31.86 106.16 31.71 105.77 97.23 80.83 97.23 81.28"/><polygon class="cls-2" points="97.23 81.73 32.01 106.55 31.86 106.16 97.23 81.28 97.23 81.73"/><polygon class="cls-2" points="97.23 82.18 32.16 106.95 32.01 106.55 97.23 81.73 97.23 82.18"/><polygon class="cls-2" points="97.23 82.63 32.31 107.34 32.16 106.95 97.23 82.18 97.23 82.63"/><polygon class="cls-2" points="97.23 83.08 32.46 107.73 32.31 107.34 97.23 82.63 97.23 83.08"/><polygon class="cls-2" points="97.23 83.53 32.61 108.13 32.46 107.73 97.23 83.08 97.23 83.53"/><polygon class="cls-2" points="97.23 83.98 32.76 108.52 32.61 108.13 97.23 83.53 97.23 83.98"/><polygon class="cls-2" points="97.23 84.43 32.91 108.91 32.76 108.52 97.23 83.98 97.23 84.43"/><polygon class="cls-2" points="97.23 84.88 33.06 109.31 32.91 108.91 97.23 84.43 97.23 84.88"/><polygon class="cls-2" points="97.23 85.33 33.21 109.7 33.06 109.31 97.23 84.88 97.23 85.33"/><polygon class="cls-2" points="97.23 85.78 33.36 110.09 33.21 109.7 97.23 85.33 97.23 85.78"/><polygon class="cls-2" points="97.23 86.23 34.42 110.14 33.38 110.14 33.36 110.09 97.23 85.78 97.23 86.23"/><polygon class="cls-2" points="97.23 86.68 35.61 110.14 34.42 110.14 97.23 86.23 97.23 86.68"/><polygon class="cls-2" points="97.23 87.14 36.79 110.14 35.61 110.14 97.23 86.68 97.23 87.14"/><polygon class="cls-2" points="97.23 87.59 37.97 110.14 36.79 110.14 97.23 87.14 97.23 87.59"/><polygon class="cls-2" points="97.23 88.04 39.16 110.14 37.97 110.14 97.23 87.59 97.23 88.04"/><polygon class="cls-2" points="97.23 88.49 40.34 110.14 39.16 110.14 97.23 88.04 97.23 88.49"/><polygon class="cls-2" points="97.23 88.94 41.52 110.14 40.34 110.14 97.23 88.49 97.23 88.94"/><polygon class="cls-2" points="97.23 89.39 42.7 110.14 41.52 110.14 97.23 88.94 97.23 89.39"/><polygon class="cls-2" points="97.23 89.84 43.89 110.14 42.7 110.14 97.23 89.39 97.23 89.84"/><polygon class="cls-2" points="97.23 90.29 45.07 110.14 43.89 110.14 97.23 89.84 97.23 90.29"/><polygon class="cls-2" points="97.23 90.74 46.25 110.14 45.07 110.14 97.23 90.29 97.23 90.74"/><polygon class="cls-2" points="97.23 91.19 47.44 110.14 46.25 110.14 97.23 90.74 97.23 91.19"/><polygon class="cls-2" points="97.23 91.64 48.62 110.14 47.44 110.14 97.23 91.19 97.23 91.64"/><polygon class="cls-2" points="97.23 92.09 49.8 110.14 48.62 110.14 97.23 91.64 97.23 92.09"/><polygon class="cls-2" points="97.23 92.54 50.99 110.14 49.8 110.14 97.23 92.09 97.23 92.54"/><polygon class="cls-2" points="97.23 92.99 52.17 110.14 50.99 110.14 97.23 92.54 97.23 92.99"/><polygon class="cls-2" points="97.23 93.44 53.35 110.14 52.17 110.14 97.23 92.99 97.23 93.44"/><polygon class="cls-2" points="97.23 93.89 54.53 110.14 53.35 110.14 97.23 93.44 97.23 93.89"/><polygon class="cls-2" points="97.23 94.34 55.72 110.14 54.53 110.14 97.23 93.89 97.23 94.34"/><polygon class="cls-2" points="97.23 94.79 56.9 110.14 55.72 110.14 97.23 94.34 97.23 94.79"/><polygon class="cls-2" points="97.23 95.24 58.08 110.14 56.9 110.14 97.23 94.79 97.23 95.24"/><polygon class="cls-2" points="97.23 95.69 59.27 110.14 58.08 110.14 97.23 95.24 97.23 95.69"/><polygon class="cls-2" points="97.23 96.14 60.45 110.14 59.27 110.14 97.23 95.69 97.23 96.14"/><polygon class="cls-2" points="97.23 96.59 61.63 110.14 60.45 110.14 97.23 96.14 97.23 96.59"/><polygon class="cls-2" points="97.23 97.04 62.82 110.14 61.63 110.14 97.23 96.59 97.23 97.04"/><polygon class="cls-2" points="97.23 97.49 64 110.14 62.82 110.14 97.23 97.04 97.23 97.49"/><polygon class="cls-2" points="97.23 97.94 65.18 110.14 64 110.14 97.23 97.49 97.23 97.94"/><polygon class="cls-2" points="97.23 98.39 66.36 110.14 65.18 110.14 97.23 97.94 97.23 98.39"/><polygon class="cls-2" points="97.23 98.84 67.55 110.14 66.36 110.14 97.23 98.39 97.23 98.84"/><polygon class="cls-2" points="97.23 99.29 68.73 110.14 67.55 110.14 97.23 98.84 97.23 99.29"/><polygon class="cls-2" points="97.23 99.74 69.91 110.14 68.73 110.14 97.23 99.29 97.23 99.74"/><polygon class="cls-2" points="97.23 100.19 71.1 110.14 69.91 110.14 97.23 99.74 97.23 100.19"/><polygon class="cls-2" points="97.23 100.64 72.28 110.14 71.1 110.14 97.23 100.19 97.23 100.64"/><polygon class="cls-2" points="97.23 101.09 73.46 110.14 72.28 110.14 97.23 100.64 97.23 101.09"/><polygon class="cls-2" points="97.23 101.54 74.65 110.14 73.46 110.14 97.23 101.09 97.23 101.54"/><polygon class="cls-2" points="97.23 101.99 75.83 110.14 74.65 110.14 97.23 101.54 97.23 101.99"/><polygon class="cls-2" points="97.23 102.44 77.01 110.14 75.83 110.14 97.23 101.99 97.23 102.44"/><polygon class="cls-2" points="97.23 102.89 78.19 110.14 77.01 110.14 97.23 102.44 97.23 102.89"/><polygon class="cls-2" points="97.23 103.34 79.38 110.14 78.19 110.14 97.23 102.89 97.23 103.34"/><polygon class="cls-2" points="97.23 103.79 80.56 110.14 79.38 110.14 97.23 103.34 97.23 103.79"/><polygon class="cls-2" points="97.23 104.24 81.74 110.14 80.56 110.14 97.23 103.79 97.23 104.24"/><polygon class="cls-2" points="97.23 104.7 82.93 110.14 81.74 110.14 97.23 104.24 97.23 104.7"/><polygon class="cls-2" points="82.93 110.14 97.23 104.7 97.23 110.14 82.93 110.14"/><polygon class="cls-2" points="76.69 34.13 78.2 38.1 52.62 47.83 52.62 34.13 76.69 34.13"/><polygon class="cls-2" points="78.2 38.1 78.35 38.49 52.62 48.28 52.62 47.83 78.2 38.1"/><polygon class="cls-2" points="78.35 38.49 78.49 38.88 52.62 48.73 52.62 48.28 78.35 38.49"/><polygon class="cls-2" points="78.49 38.88 78.64 39.28 52.62 49.18 52.62 48.73 78.49 38.88"/><polygon class="cls-2" points="78.64 39.28 78.79 39.67 52.62 49.63 52.62 49.18 78.64 39.28"/><polygon class="cls-2" points="78.79 39.67 78.94 40.06 52.62 50.08 52.62 49.63 78.79 39.67"/><polygon class="cls-2" points="78.94 40.06 79.09 40.46 52.62 50.53 52.62 50.08 78.94 40.06"/><polygon class="cls-2" points="79.09 40.46 79.24 40.85 52.62 50.98 52.62 50.53 79.09 40.46"/><polygon class="cls-2" points="79.24 40.85 79.39 41.24 52.62 51.43 52.62 50.98 79.24 40.85"/><polygon class="cls-2" points="79.39 41.24 79.54 41.64 52.62 51.88 52.62 51.43 79.39 41.24"/><polygon class="cls-2" points="79.54 41.64 79.69 42.03 52.62 52.33 52.62 51.88 79.54 41.64"/><polygon class="cls-2" points="79.69 42.03 79.84 42.42 52.62 52.78 52.62 52.33 79.69 42.03"/><polygon class="cls-2" points="79.84 42.42 79.99 42.82 52.62 53.23 52.62 52.78 79.84 42.42"/><polygon class="cls-2" points="79.99 42.82 80.14 43.21 52.62 53.68 52.62 53.23 79.99 42.82"/><polygon class="cls-2" points="80.14 43.21 80.29 43.6 52.62 54.13 52.62 53.68 80.14 43.21"/><polygon class="cls-2" points="80.29 43.6 80.44 44 52.62 54.58 52.62 54.13 80.29 43.6"/><polygon class="cls-2" points="80.44 44 80.59 44.39 52.62 55.03 52.62 54.58 80.44 44"/><polygon class="cls-2" points="80.59 44.39 80.74 44.78 52.62 55.48 52.62 55.03 80.59 44.39"/><polygon class="cls-2" points="80.74 44.78 80.89 45.18 52.62 55.93 52.62 55.48 80.74 44.78"/><polygon class="cls-2" points="80.89 45.18 81.04 45.57 52.62 56.39 52.62 55.93 80.89 45.18"/><polygon class="cls-2" points="81.04 45.57 81.19 45.96 52.62 56.84 52.62 56.39 81.04 45.57"/><polygon class="cls-2" points="81.19 45.96 81.34 46.36 52.62 57.29 52.62 56.84 81.19 45.96"/><polygon class="cls-2" points="81.34 46.36 81.49 46.75 52.62 57.74 52.62 57.29 81.34 46.36"/><polygon class="cls-2" points="81.49 46.75 81.64 47.14 52.62 58.19 52.62 57.74 81.49 46.75"/><polygon class="cls-2" points="81.64 47.14 81.79 47.54 52.62 58.64 52.62 58.19 81.64 47.14"/><polygon class="cls-2" points="81.79 47.54 81.94 47.93 52.72 59.05 52.62 58.81 52.62 58.64 81.79 47.54"/><rect class="cls-3" x="51.77" y="53.48" width="31.27" height=".42" transform="translate(-14.69 27.49) rotate(-20.84)"/><rect class="cls-3" x="51.92" y="53.87" width="31.27" height=".42" transform="translate(-14.82 27.57) rotate(-20.84)"/><rect class="cls-3" x="52.07" y="54.26" width="31.27" height=".42" transform="translate(-14.95 27.64) rotate(-20.84)"/><rect class="cls-3" x="52.22" y="54.66" width="31.27" height=".42" transform="translate(-15.08 27.72) rotate(-20.84)"/><rect class="cls-3" x="52.37" y="55.05" width="31.27" height=".42" transform="translate(-15.21 27.8) rotate(-20.84)"/><rect class="cls-3" x="52.52" y="55.44" width="31.27" height=".42" transform="translate(-15.34 27.88) rotate(-20.84)"/><rect class="cls-3" x="52.67" y="55.84" width="31.27" height=".42" transform="translate(-15.47 27.96) rotate(-20.84)"/><rect class="cls-3" x="52.82" y="56.23" width="31.27" height=".42" transform="translate(-15.6 28.04) rotate(-20.84)"/><rect class="cls-3" x="52.97" y="56.62" width="31.27" height=".42" transform="translate(-15.73 28.12) rotate(-20.84)"/><rect class="cls-3" x="53.12" y="57.02" width="31.27" height=".42" transform="translate(-15.86 28.2) rotate(-20.84)"/><rect class="cls-3" x="53.27" y="57.41" width="31.27" height=".42" transform="translate(-15.99 28.28) rotate(-20.84)"/><rect class="cls-3" x="53.42" y="57.8" width="31.27" height=".42" transform="translate(-16.12 28.36) rotate(-20.84)"/><rect class="cls-3" x="53.57" y="58.2" width="31.27" height=".42" transform="translate(-16.25 28.43) rotate(-20.84)"/><rect class="cls-3" x="53.72" y="58.59" width="31.27" height=".42" transform="translate(-16.38 28.51) rotate(-20.84)"/><rect class="cls-3" x="53.87" y="58.98" width="31.27" height=".42" transform="translate(-16.51 28.59) rotate(-20.84)"/><rect class="cls-3" x="54.01" y="59.38" width="31.27" height=".42" transform="translate(-16.64 28.67) rotate(-20.84)"/><rect class="cls-3" x="54.16" y="59.77" width="31.27" height=".42" transform="translate(-16.77 28.75) rotate(-20.84)"/><rect class="cls-3" x="54.31" y="60.16" width="31.27" height=".42" transform="translate(-16.9 28.83) rotate(-20.84)"/><rect class="cls-3" x="54.46" y="60.56" width="31.27" height=".42" transform="translate(-17.03 28.91) rotate(-20.84)"/><rect class="cls-3" x="54.61" y="60.95" width="31.27" height=".42" transform="translate(-17.16 28.99) rotate(-20.84)"/><rect class="cls-3" x="54.76" y="61.34" width="31.27" height=".42" transform="translate(-17.29 29.07) rotate(-20.84)"/><rect class="cls-3" x="54.91" y="61.74" width="31.27" height=".42" transform="translate(-17.42 29.15) rotate(-20.84)"/><rect class="cls-3" x="55.06" y="62.13" width="31.27" height=".42" transform="translate(-17.55 29.22) rotate(-20.84)"/><rect class="cls-3" x="55.21" y="62.52" width="31.27" height=".42" transform="translate(-17.68 29.3) rotate(-20.84)"/><rect class="cls-3" x="55.36" y="62.92" width="31.27" height=".42" transform="translate(-17.81 29.38) rotate(-20.84)"/><rect class="cls-3" x="55.51" y="63.31" width="31.27" height=".42" transform="translate(-17.94 29.46) rotate(-20.84)"/><rect class="cls-3" x="55.66" y="63.7" width="31.27" height=".42" transform="translate(-18.07 29.54) rotate(-20.84)"/><rect class="cls-3" x="55.81" y="64.1" width="31.27" height=".42" transform="translate(-18.2 29.62) rotate(-20.84)"/><rect class="cls-3" x="55.96" y="64.49" width="31.27" height=".42" transform="translate(-18.33 29.7) rotate(-20.84)"/><rect class="cls-3" x="56.11" y="64.88" width="31.27" height=".42" transform="translate(-18.46 29.78) rotate(-20.84)"/><rect class="cls-3" x="56.26" y="65.28" width="31.27" height=".42" transform="translate(-18.59 29.86) rotate(-20.84)"/><rect class="cls-3" x="56.41" y="65.67" width="31.27" height=".42" transform="translate(-18.72 29.93) rotate(-20.84)"/><rect class="cls-3" x="56.56" y="66.06" width="31.27" height=".42" transform="translate(-18.85 30.01) rotate(-20.84)"/><rect class="cls-3" x="56.71" y="66.46" width="31.27" height=".42" transform="translate(-18.98 30.09) rotate(-20.84)"/><rect class="cls-3" x="56.86" y="66.85" width="31.27" height=".42" transform="translate(-19.11 30.17) rotate(-20.84)"/><rect class="cls-3" x="57.01" y="67.24" width="31.27" height=".42" transform="translate(-19.24 30.25) rotate(-20.84)"/><rect class="cls-3" x="57.16" y="67.63" width="31.27" height=".42" transform="translate(-19.37 30.33) rotate(-20.84)"/><rect class="cls-3" x="57.31" y="68.03" width="31.27" height=".42" transform="translate(-19.5 30.41) rotate(-20.84)"/><rect class="cls-3" x="57.46" y="68.42" width="31.27" height=".42" transform="translate(-19.63 30.49) rotate(-20.84)"/><rect class="cls-3" x="57.61" y="68.81" width="31.27" height=".42" transform="translate(-19.76 30.57) rotate(-20.84)"/><rect class="cls-3" x="57.76" y="69.21" width="31.27" height=".42" transform="translate(-19.89 30.65) rotate(-20.84)"/><rect class="cls-3" x="57.91" y="69.6" width="31.27" height=".42" transform="translate(-20.02 30.72) rotate(-20.84)"/><rect class="cls-3" x="58.06" y="69.99" width="31.27" height=".42" transform="translate(-20.15 30.8) rotate(-20.84)"/><rect class="cls-3" x="58.21" y="70.39" width="31.27" height=".42" transform="translate(-20.28 30.88) rotate(-20.84)"/><rect class="cls-3" x="58.36" y="70.78" width="31.27" height=".42" transform="translate(-20.41 30.96) rotate(-20.84)"/><rect class="cls-3" x="58.51" y="71.17" width="31.27" height=".42" transform="translate(-20.54 31.04) rotate(-20.84)"/><rect class="cls-3" x="58.66" y="71.57" width="31.27" height=".42" transform="translate(-20.67 31.12) rotate(-20.84)"/><rect class="cls-3" x="58.8" y="71.96" width="31.27" height=".42" transform="translate(-20.8 31.2) rotate(-20.84)"/><polygon class="cls-2" points="89.12 66.81 89.2 67.01 89.2 67.23 60.05 78.32 59.9 77.93 89.12 66.81"/><polygon class="cls-2" points="89.2 67.68 60.2 78.72 60.05 78.32 89.2 67.23 89.2 67.68"/><polygon class="cls-2" points="89.2 68.13 60.35 79.11 60.2 78.72 89.2 67.68 89.2 68.13"/><polygon class="cls-2" points="89.2 68.58 60.5 79.5 60.35 79.11 89.2 68.13 89.2 68.58"/><polygon class="cls-2" points="89.2 69.03 60.65 79.9 60.5 79.5 89.2 68.58 89.2 69.03"/><polygon class="cls-2" points="89.2 69.48 60.8 80.29 60.65 79.9 89.2 69.03 89.2 69.48"/><polygon class="cls-2" points="89.2 69.93 60.95 80.68 60.8 80.29 89.2 69.48 89.2 69.93"/><polygon class="cls-2" points="89.2 70.38 61.1 81.08 60.95 80.68 89.2 69.93 89.2 70.38"/><polygon class="cls-2" points="89.2 70.83 61.25 81.47 61.1 81.08 89.2 70.38 89.2 70.83"/><polygon class="cls-2" points="89.2 71.28 61.4 81.86 61.25 81.47 89.2 70.83 89.2 71.28"/><polygon class="cls-2" points="89.2 71.73 61.55 82.25 61.4 81.86 89.2 71.28 89.2 71.73"/><polygon class="cls-2" points="89.2 72.18 61.7 82.65 61.55 82.25 89.2 71.73 89.2 72.18"/><polygon class="cls-2" points="89.2 72.63 61.85 83.04 61.7 82.65 89.2 72.18 89.2 72.63"/><polygon class="cls-2" points="89.2 73.08 62 83.43 61.85 83.04 89.2 72.63 89.2 73.08"/><polygon class="cls-2" points="89.2 73.53 62.15 83.83 62 83.43 89.2 73.08 89.2 73.53"/><polygon class="cls-2" points="89.2 73.98 62.3 84.22 62.15 83.83 89.2 73.53 89.2 73.98"/><polygon class="cls-2" points="89.2 74.43 62.45 84.61 62.3 84.22 89.2 73.98 89.2 74.43"/><polygon class="cls-2" points="89.2 74.88 62.6 85.01 62.45 84.61 89.2 74.43 89.2 74.88"/><polygon class="cls-2" points="89.2 75.33 62.75 85.4 62.6 85.01 89.2 74.88 89.2 75.33"/><polygon class="cls-2" points="89.2 75.78 62.9 85.79 62.75 85.4 89.2 75.33 89.2 75.78"/><polygon class="cls-2" points="89.2 76.23 63.05 86.19 62.9 85.79 89.2 75.78 89.2 76.23"/><polygon class="cls-2" points="89.2 76.68 63.2 86.58 63.05 86.19 89.2 76.23 89.2 76.68"/><polygon class="cls-2" points="89.2 77.13 63.34 86.97 63.2 86.58 89.2 76.68 89.2 77.13"/><polygon class="cls-2" points="89.2 77.58 63.49 87.37 63.34 86.97 89.2 77.13 89.2 77.58"/><polygon class="cls-2" points="89.2 78.03 63.64 87.76 63.49 87.37 89.2 77.58 89.2 78.03"/><polygon class="cls-2" points="89.2 78.48 63.79 88.15 63.64 87.76 89.2 78.03 89.2 78.48"/><polygon class="cls-2" points="89.2 78.93 63.94 88.55 63.79 88.15 89.2 78.48 89.2 78.93"/><polygon class="cls-2" points="89.2 79.38 64.09 88.94 63.94 88.55 89.2 78.93 89.2 79.38"/><polygon class="cls-2" points="89.2 79.84 64.24 89.33 64.09 88.94 89.2 79.38 89.2 79.84"/><polygon class="cls-2" points="89.2 80.29 64.39 89.73 64.24 89.33 89.2 79.84 89.2 80.29"/><polygon class="cls-2" points="89.2 80.74 64.54 90.12 64.39 89.73 89.2 80.29 89.2 80.74"/><polygon class="cls-2" points="89.2 81.19 64.69 90.51 64.54 90.12 89.2 80.74 89.2 81.19"/><polygon class="cls-2" points="89.2 81.64 64.84 90.91 64.69 90.51 89.2 81.19 89.2 81.64"/><polygon class="cls-2" points="89.2 82.09 64.99 91.3 64.84 90.91 89.2 81.64 89.2 82.09"/><polygon class="cls-2" points="89.2 82.54 65.14 91.69 64.99 91.3 89.2 82.09 89.2 82.54"/><polygon class="cls-2" points="89.2 82.99 65.29 92.09 65.14 91.69 89.2 82.54 89.2 82.99"/><polygon class="cls-2" points="89.2 83.44 66.19 92.2 65.33 92.2 65.29 92.09 89.2 82.99 89.2 83.44"/><polygon class="cls-2" points="89.2 83.89 67.37 92.2 66.19 92.2 89.2 83.44 89.2 83.89"/><polygon class="cls-2" points="89.2 84.34 68.55 92.2 67.37 92.2 89.2 83.89 89.2 84.34"/><polygon class="cls-2" points="89.2 84.79 69.74 92.2 68.55 92.2 89.2 84.34 89.2 84.79"/><polygon class="cls-2" points="89.2 85.24 70.92 92.2 69.74 92.2 89.2 84.79 89.2 85.24"/><polygon class="cls-2" points="89.2 85.69 72.1 92.2 70.92 92.2 89.2 85.24 89.2 85.69"/><polygon class="cls-2" points="89.2 86.14 73.29 92.2 72.1 92.2 89.2 85.69 89.2 86.14"/><polygon class="cls-2" points="89.2 86.59 74.47 92.2 73.29 92.2 89.2 86.14 89.2 86.59"/><polygon class="cls-2" points="89.2 87.04 75.65 92.2 74.47 92.2 89.2 86.59 89.2 87.04"/><polygon class="cls-2" points="89.2 87.49 76.83 92.2 75.65 92.2 89.2 87.04 89.2 87.49"/><polygon class="cls-2" points="89.2 87.94 78.02 92.2 76.83 92.2 89.2 87.49 89.2 87.94"/><polygon class="cls-2" points="89.2 88.39 79.2 92.2 78.02 92.2 89.2 87.94 89.2 88.39"/><polygon class="cls-2" points="89.2 88.84 80.38 92.2 79.2 92.2 89.2 88.39 89.2 88.84"/><polygon class="cls-2" points="89.2 89.29 81.57 92.2 80.38 92.2 89.2 88.84 89.2 89.29"/><polygon class="cls-2" points="89.2 89.74 82.75 92.2 81.57 92.2 89.2 89.29 89.2 89.74"/><polygon class="cls-2" points="89.2 90.19 83.93 92.2 82.75 92.2 89.2 89.74 89.2 90.19"/><polygon class="cls-2" points="89.2 90.64 85.12 92.2 83.93 92.2 89.2 90.19 89.2 90.64"/><polygon class="cls-2" points="89.2 91.09 86.3 92.2 85.12 92.2 89.2 90.64 89.2 91.09"/><polygon class="cls-2" points="89.2 91.54 87.48 92.2 86.3 92.2 89.2 91.09 89.2 91.54"/><polygon class="cls-2" points="89.2 91.99 88.66 92.2 87.48 92.2 89.2 91.54 89.2 91.99"/><polygon class="cls-2" points="88.66 92.2 89.2 91.99 89.2 92.2 88.66 92.2"/></g><circle class="cls-5" cx="115.18" cy="110.54" r="34.08"/><path class="cls-3" d="M115.18,144.92c-9.18,0-17.81-3.58-24.31-10.07-6.49-6.49-10.07-15.12-10.07-24.31s3.58-17.81,10.07-24.31c6.49-6.49,15.12-10.07,24.31-10.07s17.81,3.58,24.31,10.07c6.49,6.49,10.07,15.12,10.07,24.31s-3.58,17.81-10.07,24.31c-6.49,6.49-15.12,10.07-24.31,10.07ZM115.18,76.76c-9.02,0-17.51,3.51-23.89,9.89-6.38,6.38-9.89,14.86-9.89,23.88s3.51,17.51,9.89,23.89c6.38,6.38,14.86,9.89,23.89,9.89s17.51-3.51,23.89-9.89c6.38-6.38,9.89-14.86,9.89-23.89s-3.51-17.51-9.89-23.88c-6.38-6.38-14.86-9.89-23.89-9.89Z"/><path class="cls-7" d="M119.91,119.46c0-1.28-.35-2.29-1.06-3.05-.71-.75-1.91-1.45-3.61-2.09-1.7-.64-3.16-1.27-4.39-1.9-1.23-.63-2.28-1.35-3.16-2.17-.88-.82-1.56-1.78-2.05-2.88-.49-1.1-.74-2.42-.74-3.94,0-2.63.84-4.78,2.52-6.46s3.91-2.66,6.7-2.94v-4.99h3.73v5.06c2.75.39,4.91,1.54,6.46,3.44,1.56,1.91,2.33,4.38,2.33,7.41h-6.74c0-1.87-.39-3.26-1.16-4.19-.77-.93-1.8-1.39-3.09-1.39s-2.26.36-2.96,1.09c-.7.72-1.05,1.72-1.05,3,0,1.18.34,2.13,1.03,2.85.68.72,1.96,1.45,3.82,2.19,1.86.75,3.39,1.45,4.59,2.11,1.2.66,2.21,1.41,3.03,2.24.82.83,1.45,1.78,1.89,2.85.44,1.07.65,2.31.65,3.72,0,2.65-.82,4.79-2.47,6.44-1.65,1.65-3.92,2.62-6.81,2.92v4.64h-3.71v-4.62c-3.19-.34-5.66-1.47-7.41-3.4-1.75-1.92-2.63-4.48-2.63-7.67h6.74c0,1.85.44,3.27,1.32,4.26.88.99,2.14,1.48,3.79,1.48,1.37,0,2.45-.36,3.24-1.09s1.19-1.7,1.19-2.93Z"/></svg>