<svg width="24" height="24" viewBox="0 0 24 24" fill="none" xmlns="http://www.w3.org/2000/svg">
<path d="M12.05 19L14.9 16.175L12.05 13.35L11 14.4L12.075 15.475C11.6083 15.4917 11.1543 15.4167 10.713 15.25C10.2717 15.0833 9.87567 14.825 9.525 14.475C9.19167 14.1417 8.93733 13.7583 8.762 13.325C8.58667 12.8917 8.49933 12.4583 8.5 12.025C8.5 11.7417 8.53767 11.4583 8.613 11.175C8.68833 10.8917 8.79233 10.6167 8.925 10.35L7.825 9.25C7.54167 9.66667 7.33333 10.1083 7.2 10.575C7.06667 11.0417 7 11.5167 7 12C7 12.6333 7.125 13.2583 7.375 13.875C7.625 14.4917 7.99167 15.0417 8.475 15.525C8.95833 16.0083 9.5 16.371 10.1 16.613C10.7 16.855 11.3167 16.984 11.95 17L11 17.95L12.05 19ZM16.175 14.75C16.4583 14.3333 16.6667 13.8917 16.8 13.425C16.9333 12.9583 17 12.4833 17 12C17 11.3667 16.879 10.7373 16.637 10.112C16.395 9.48667 16.0327 8.93267 15.55 8.45C15.0667 7.96667 14.5207 7.60833 13.912 7.375C13.3033 7.14167 12.6827 7.025 12.05 7.025L13 6.05L11.95 5L9.1 7.825L11.95 10.65L13 9.6L11.9 8.5C12.35 8.5 12.8083 8.58767 13.275 8.763C13.7417 8.93833 14.1417 9.19233 14.475 9.525C14.8083 9.85833 15.0627 10.2417 15.238 10.675C15.4133 11.1083 15.5007 11.5417 15.5 11.975C15.5 12.2583 15.4627 12.5417 15.388 12.825C15.3133 13.1083 15.209 13.3833 15.075 13.65L16.175 14.75ZM12 22C10.6167 22 9.31667 21.7373 8.1 21.212C6.88333 20.6867 5.825 19.9743 4.925 19.075C4.025 18.175 3.31267 17.1167 2.788 15.9C2.26333 14.6833 2.00067 13.3833 2 12C2 10.6167 2.26267 9.31667 2.788 8.1C3.31333 6.88333 4.02567 5.825 4.925 4.925C5.825 4.025 6.88333 3.31267 8.1 2.788C9.31667 2.26333 10.6167 2.00067 12 2C13.3833 2 14.6833 2.26267 15.9 2.788C17.1167 3.31333 18.175 4.02567 19.075 4.925C19.975 5.825 20.6877 6.88333 21.213 8.1C21.7383 9.31667 22.0007 10.6167 22 12C22 13.3833 21.7373 14.6833 21.212 15.9C20.6867 17.1167 19.9743 18.175 19.075 19.075C18.175 19.975 17.1167 20.6877 15.9 21.213C14.6833 21.7383 13.3833 22.0007 12 22Z" fill="#627171"/>
</svg>
