<?xml version="1.0" encoding="utf-8"?>
<!-- Generator: Adobe Illustrator 27.1.1, SVG Export Plug-In . SVG Version: 6.00 Build 0)  -->
<svg version="1.1" id="Layer_1" xmlns="http://www.w3.org/2000/svg" xmlns:xlink="http://www.w3.org/1999/xlink" x="0px" y="0px"
	 viewBox="0 0 646 646" style="enable-background:new 0 0 646 646;" xml:space="preserve">
<style type="text/css">
	.st0{clip-path:url(#SVGID_00000093138963425210852840000005880509225692609208_);}
	.st1{fill:none;stroke:url(#SVGID_00000055688556468543946760000012951681806055109028_);stroke-width:11.9873;stroke-opacity:0.5;}
	.st2{fill:url(#SVGID_00000039114053982872542780000009218557331517633928_);}
	.st3{fill:url(#SVGID_00000065076291082525417130000011796815549416977852_);fill-opacity:0.6;}
	.st4{fill:none;stroke:url(#SVGID_00000181799873021021159240000006400187128247152317_);stroke-width:4.9947;}
	.st5{fill:none;stroke:url(#SVGID_00000164483957454075973020000018227684666151141772_);stroke-width:4.9947;}
	.st6{fill:url(#SVGID_00000135654008857260071360000016466522796299410612_);}
	.st7{fill:url(#SVGID_00000106136295786553956270000017249647352905233081_);}
	.st8{fill:url(#SVGID_00000034774450853204982530000013844422162502478496_);}
	.st9{fill:#84EE75;}
	.st10{fill:url(#SVGID_00000133500686896318911820000017146141003493297026_);}
	.st11{fill:url(#SVGID_00000163062331578326685460000017832016824283840141_);}
	.st12{fill:url(#SVGID_00000051363716609784331910000011456425362773399740_);}
	.st13{fill:url(#SVGID_00000029039575822952537740000003058772751219130541_);}
	.st14{fill:url(#SVGID_00000168083112783023986890000008734716877840605075_);}
	.st15{fill:url(#SVGID_00000034065144858538230190000002895820621299802778_);}
	.st16{fill:url(#SVGID_00000072257353432118220380000009792651690664227771_);}
	.st17{fill:url(#SVGID_00000115503678705591916270000003395830273130684585_);}
</style>
<g>
	<g>
		<defs>
			<rect id="SVGID_1_" x="0.3" y="0.3" width="645.3" height="645.3"/>
		</defs>
		<clipPath id="SVGID_00000147900291523233047550000015795556350232391055_">
			<use xlink:href="#SVGID_1_"  style="overflow:visible;"/>
		</clipPath>
		<g style="clip-path:url(#SVGID_00000147900291523233047550000015795556350232391055_);">
			
				<linearGradient id="SVGID_00000023258642143454706300000006662301797346199457_" gradientUnits="userSpaceOnUse" x1="323" y1="647.6587" x2="323" y2="2.3413" gradientTransform="matrix(1 0 0 -1 0 648)">
				<stop  offset="0" style="stop-color:#A945F7"/>
				<stop  offset="1" style="stop-color:#2EB453"/>
			</linearGradient>
			
				<path style="fill:none;stroke:url(#SVGID_00000023258642143454706300000006662301797346199457_);stroke-width:11.9873;stroke-opacity:0.5;" d="
				M323,639.7C148.1,639.7,6.3,497.9,6.3,323S148.1,6.3,323,6.3S639.7,148.1,639.7,323S497.9,639.7,323,639.7z"/>
			<g>
				
					<linearGradient id="SVGID_00000067200449370467279620000008574124140203397259_" gradientUnits="userSpaceOnUse" x1="234.4734" y1="704.1001" x2="411.1351" y2="-52.4237" gradientTransform="matrix(1 0 0 -1 0 648)">
					<stop  offset="0" style="stop-color:#000000;stop-opacity:0"/>
					<stop  offset="0.6057" style="stop-color:#000000;stop-opacity:7.811970e-02"/>
					<stop  offset="1" style="stop-color:#000000;stop-opacity:0.26"/>
				</linearGradient>
				<path style="fill:url(#SVGID_00000067200449370467279620000008574124140203397259_);" d="M323,645.7L323,645.7
					c178.2,0,322.7-144.5,322.7-322.7l0,0l0,0C645.7,144.8,501.2,0.3,323,0.3l0,0l0,0C144.8,0.3,0.3,144.8,0.3,323l0,0l0,0
					C0.3,501.2,144.8,645.7,323,645.7L323,645.7z"/>
			</g>
			
				<linearGradient id="SVGID_00000139259371408437206460000004230439479298817178_" gradientUnits="userSpaceOnUse" x1="234.4734" y1="704.1001" x2="411.1351" y2="-52.4237" gradientTransform="matrix(1 0 0 -1 0 648)">
				<stop  offset="0" style="stop-color:#8177FA;stop-opacity:0.5"/>
				<stop  offset="0.4712" style="stop-color:#FFFFFF;stop-opacity:7.811970e-02"/>
				<stop  offset="1" style="stop-color:#4CFB72;stop-opacity:0.25"/>
			</linearGradient>
			<path style="fill:url(#SVGID_00000139259371408437206460000004230439479298817178_);fill-opacity:0.6;" d="M323,645.7L323,645.7
				c178.2,0,322.7-144.5,322.7-322.7l0,0l0,0C645.7,144.8,501.2,0.3,323,0.3l0,0l0,0C144.8,0.3,0.3,144.8,0.3,323l0,0l0,0
				C0.3,501.2,144.8,645.7,323,645.7L323,645.7z"/>
			<g>
				
					<linearGradient id="SVGID_00000009557829940209331630000018431146217261960349_" gradientUnits="userSpaceOnUse" x1="323" y1="647.6587" x2="323" y2="325" gradientTransform="matrix(1 0 0 -1 0 648)">
					<stop  offset="0" style="stop-color:#FFFFFF"/>
					<stop  offset="1" style="stop-color:#FFFFFF;stop-opacity:0"/>
				</linearGradient>
				<path style="fill:none;stroke:url(#SVGID_00000009557829940209331630000018431146217261960349_);stroke-width:4.9947;" d="
					M323,643.2C146.2,643.2,2.8,499.8,2.8,323S146.2,2.8,323,2.8S643.2,146.2,643.2,323S499.8,643.2,323,643.2z"/>
			</g>
			<g>
				
					<linearGradient id="SVGID_00000174570279293923249520000018137776115978999716_" gradientUnits="userSpaceOnUse" x1="323" y1="2.3413" x2="323" y2="103.1716" gradientTransform="matrix(1 0 0 -1 0 648)">
					<stop  offset="0" style="stop-color:#000000"/>
					<stop  offset="1" style="stop-color:#000000;stop-opacity:0"/>
				</linearGradient>
				<path style="fill:none;stroke:url(#SVGID_00000174570279293923249520000018137776115978999716_);stroke-width:4.9947;" d="
					M323,643.2C146.2,643.2,2.8,499.8,2.8,323S146.2,2.8,323,2.8S643.2,146.2,643.2,323S499.8,643.2,323,643.2z"/>
			</g>
			<g>
				
					<linearGradient id="SVGID_00000131342658600531929190000011375970105086937730_" gradientUnits="userSpaceOnUse" x1="271.6729" y1="289.4249" x2="246.077" y2="330.3366" gradientTransform="matrix(1 0 0 -1 0 648)">
					<stop  offset="0" style="stop-color:#5DD14A"/>
					<stop  offset="1" style="stop-color:#56CB45"/>
				</linearGradient>
				<path style="fill:url(#SVGID_00000131342658600531929190000011375970105086937730_);" d="M323.9,344L230,390.1l39.1-73.3
					L323.9,344z"/>
				
					<linearGradient id="SVGID_00000106119456021745968990000003163426469565499039_" gradientUnits="userSpaceOnUse" x1="298.7568" y1="381.209" x2="345.4495" y2="318.2317" gradientTransform="matrix(1 0 0 -1 0 648)">
					<stop  offset="0" style="stop-color:#31F110"/>
					<stop  offset="1" style="stop-color:#B5F8A9"/>
				</linearGradient>
				<path style="fill:url(#SVGID_00000106119456021745968990000003163426469565499039_);" d="M324.1,210.9l-55,105.9l54.6,27.2
					L324.1,210.9z"/>
				
					<linearGradient id="SVGID_00000098193278018517478920000016093674195653641911_" gradientUnits="userSpaceOnUse" x1="289.6169" y1="437.9886" x2="357.8317" y2="304.4958" gradientTransform="matrix(1 0 0 -1 0 648)">
					<stop  offset="0" style="stop-color:#8EEA7F"/>
					<stop  offset="1" style="stop-color:#9CE092"/>
				</linearGradient>
				<path style="fill:url(#SVGID_00000098193278018517478920000016093674195653641911_);" d="M324.1,210.9l-0.5,133.3l55.5-26.9
					L324.1,210.9z"/>
				<path class="st9" d="M417.4,391.1L323.6,344l55.5-26.7L417.4,391.1z"/>
				
					<linearGradient id="SVGID_00000058574665518979221760000012254000605079011750_" gradientUnits="userSpaceOnUse" x1="325.2701" y1="235.5614" x2="360.6806" y2="270.7671" gradientTransform="matrix(1 0 0 -1 0 648)">
					<stop  offset="0" style="stop-color:#16CE19"/>
					<stop  offset="1" style="stop-color:#7AC074"/>
				</linearGradient>
				<path style="fill:url(#SVGID_00000058574665518979221760000012254000605079011750_);" d="M323.2,439.3l0.4-95.4l93.9,47.3
					L323.2,439.3z"/>
				
					<linearGradient id="SVGID_00000071552534371299932980000005970664032630251155_" gradientUnits="userSpaceOnUse" x1="276.5127" y1="281.3767" x2="307.8436" y2="225.275" gradientTransform="matrix(1 0 0 -1 0 648)">
					<stop  offset="0" style="stop-color:#62BB53"/>
					<stop  offset="1" style="stop-color:#3DA831"/>
				</linearGradient>
				<path style="fill:url(#SVGID_00000071552534371299932980000005970664032630251155_);" d="M230,390.1l93.5,49v-94.9L230,390.1z"
					/>
			</g>
			
				<linearGradient id="SVGID_00000085966683218907117630000006473398632085448087_" gradientUnits="userSpaceOnUse" x1="234.1977" y1="272.8552" x2="190.5199" y2="342.6474" gradientTransform="matrix(1 0 0 -1 0 648)">
				<stop  offset="0" style="stop-color:#90D1D5;stop-opacity:0.34"/>
				<stop  offset="1" style="stop-color:#6FFF59"/>
			</linearGradient>
			<path style="fill:url(#SVGID_00000085966683218907117630000006473398632085448087_);" d="M323.3,350.3l-160.1,78.6l66.6-125
				L323.3,350.3z"/>
			
				<linearGradient id="SVGID_00000089544269039007138240000006030966880966968496_" gradientUnits="userSpaceOnUse" x1="341.1301" y1="429.2828" x2="215.2113" y2="301.9116" gradientTransform="matrix(1 0 0 -1 0 648)">
				<stop  offset="0" style="stop-color:#8691F2;stop-opacity:0.76"/>
				<stop  offset="1" style="stop-color:#45F325;stop-opacity:0.17"/>
			</linearGradient>
			<path style="fill:url(#SVGID_00000089544269039007138240000006030966880966968496_);" d="M323.6,123.2l-93.8,180.7l93.2,46.4
				L323.6,123.2z"/>
			
				<linearGradient id="SVGID_00000111886267854560678980000017240345601170225283_" gradientUnits="userSpaceOnUse" x1="264.7587" y1="526.3155" x2="381.1696" y2="298.5744" gradientTransform="matrix(1 0 0 -1 0 648)">
				<stop  offset="0" style="stop-color:#8A64F6"/>
				<stop  offset="1" style="stop-color:#9CE092;stop-opacity:0.54"/>
			</linearGradient>
			<path style="fill:url(#SVGID_00000111886267854560678980000017240345601170225283_);" d="M323.6,123.2l-0.9,227.4l94.7-45.8
				L323.6,123.2z"/>
			
				<linearGradient id="SVGID_00000106833903104014385430000001358885862240608955_" gradientUnits="userSpaceOnUse" x1="379.5803" y1="310.8639" x2="486.0536" y2="203.4985" gradientTransform="matrix(1 0 0 -1 0 648)">
				<stop  offset="0" style="stop-color:#8BC6E7"/>
				<stop  offset="0.9635" style="stop-color:#62F854;stop-opacity:3.645830e-02"/>
				<stop  offset="1" style="stop-color:#88D77D;stop-opacity:0"/>
			</linearGradient>
			<path style="fill:url(#SVGID_00000106833903104014385430000001358885862240608955_);" d="M482.8,430.7l-160.1-80.4l94.7-45.5
				L482.8,430.7z"/>
			
				<linearGradient id="SVGID_00000028302098415460384240000010734736874092868244_" gradientUnits="userSpaceOnUse" x1="377.7015" y1="126.7941" x2="402.8949" y2="258.3449" gradientTransform="matrix(1 0 0 -1 0 648)">
				<stop  offset="0" style="stop-color:#8379F5"/>
				<stop  offset="1" style="stop-color:#7AC074;stop-opacity:0.35"/>
			</linearGradient>
			<path style="fill:url(#SVGID_00000028302098415460384240000010734736874092868244_);" d="M322.1,512.8l0.6-162.8l160.1,80.7
				L322.1,512.8z"/>
			
				<linearGradient id="SVGID_00000134211110948069425220000007508355355692750249_" gradientUnits="userSpaceOnUse" x1="239.8513" y1="278.4126" x2="257.3279" y2="164.2484" gradientTransform="matrix(1 0 0 -1 0 648)">
				<stop  offset="0" style="stop-color:#9AB8F4"/>
				<stop  offset="1" style="stop-color:#50844A;stop-opacity:0.43"/>
			</linearGradient>
			<path style="fill:url(#SVGID_00000134211110948069425220000007508355355692750249_);" d="M163.2,428.9l159.5,83.6V350.6
				L163.2,428.9z"/>
		</g>
	</g>
</g>
</svg>
