<svg width="150" height="150" viewBox="0 0 150 150" fill="none" xmlns="http://www.w3.org/2000/svg">
<rect x="0.331848" y="5.08582" width="124.562" height="124.578" rx="62.2812" fill="#C7AC64"/>
<path fill-rule="evenodd" clip-rule="evenodd" d="M36.3928 35.7301L21.2938 67.4392C21.2334 67.554 21.2126 67.6856 21.2346 67.8135C21.2566 67.9415 21.3202 68.0585 21.4155 68.1466L62.1742 107.223C62.2915 107.328 62.4438 107.387 62.6017 107.387C62.7596 107.387 62.9118 107.328 63.0291 107.223L103.812 68.1466C103.906 68.0579 103.969 67.9409 103.991 67.8133C104.013 67.6856 103.993 67.5543 103.934 67.4392L88.8349 35.7301C88.7948 35.6198 88.7209 35.525 88.6237 35.4592C88.5266 35.3934 88.4111 35.3599 88.2938 35.3636H36.9285C36.8127 35.3667 36.7003 35.4029 36.6044 35.4679C36.5085 35.5328 36.4332 35.6238 36.3874 35.7301H36.3928Z" fill="white"/>
<path fill-rule="evenodd" clip-rule="evenodd" d="M67.8583 70.683C67.5661 70.7074 66.0538 70.8048 62.6869 70.8048C60.0045 70.8048 58.1012 70.7317 57.4181 70.683C47.0522 70.2204 39.3201 68.4145 39.3201 66.2677C39.3201 64.121 47.0522 62.2921 57.4181 61.8295V68.8785C58.0944 68.9272 60.0288 69.0489 62.7112 69.0489C65.9307 69.0489 67.5404 68.9028 67.834 68.8785V61.8295C78.1755 62.2921 85.9076 64.098 85.9076 66.2434C85.9076 68.3888 78.1971 70.2204 67.8583 70.683ZM67.8583 61.122V54.8035H82.2986V45.1694H42.9792V54.8035H57.4181V61.122C45.686 61.6631 36.8568 63.9749 36.8568 66.7804C36.8568 69.586 45.686 71.8788 57.4181 72.4388V92.6606H67.8583V72.4388C79.5661 71.8977 88.3723 69.5846 88.3723 66.8048C88.3723 64.0249 79.5661 61.6577 67.8583 61.1234V61.122Z" fill="#C7AC64"/>
<path d="M115.02 144.92C105.84 144.92 97.21 141.34 90.71 134.85C84.22 128.36 80.64 119.73 80.64 110.54C80.64 101.35 84.22 92.73 90.71 86.23C97.2 79.74 105.83 76.16 115.02 76.16C124.21 76.16 132.83 79.74 139.33 86.23C145.82 92.72 149.4 101.35 149.4 110.54C149.4 119.73 145.82 128.35 139.33 134.85C132.84 141.34 124.21 144.92 115.02 144.92ZM115.02 76.76C106 76.76 97.52 80.27 91.14 86.65C84.76 93.03 81.25 101.51 81.25 110.53C81.25 119.55 84.76 128.04 91.14 134.42C97.52 140.8 106 144.31 115.02 144.31C124.04 144.31 132.53 140.8 138.91 134.42C145.29 128.04 148.8 119.56 148.8 110.53C148.8 101.5 145.29 93.03 138.91 86.65C132.53 80.27 124.05 76.76 115.02 76.76Z" fill="white"/>
<path d="M115.02 144.62C133.842 144.62 149.1 129.362 149.1 110.54C149.1 91.7182 133.842 76.46 115.02 76.46C96.1981 76.46 80.94 91.7182 80.94 110.54C80.94 129.362 96.1981 144.62 115.02 144.62Z" fill="#FCFFFF"/>
<path d="M119.74 119.46C119.74 118.18 119.39 117.17 118.68 116.41C117.97 115.66 116.77 114.96 115.07 114.32C113.37 113.68 111.91 113.05 110.68 112.42C109.45 111.79 108.4 111.07 107.52 110.25C106.64 109.43 105.96 108.47 105.47 107.37C104.98 106.27 104.73 104.95 104.73 103.43C104.73 100.8 105.57 98.65 107.25 96.97C108.93 95.29 111.16 94.31 113.95 94.03V89.04H117.68V94.1C120.43 94.49 122.59 95.64 124.14 97.54C125.7 99.45 126.47 101.92 126.47 104.95H119.73C119.73 103.08 119.34 101.69 118.57 100.76C117.8 99.83 116.77 99.37 115.48 99.37C114.19 99.37 113.22 99.73 112.52 100.46C111.82 101.18 111.47 102.18 111.47 103.46C111.47 104.64 111.81 105.59 112.5 106.31C113.18 107.03 114.46 107.76 116.32 108.5C118.18 109.25 119.71 109.95 120.91 110.61C122.11 111.27 123.12 112.02 123.94 112.85C124.76 113.68 125.39 114.63 125.83 115.7C126.27 116.77 126.48 118.01 126.48 119.42C126.48 122.07 125.66 124.21 124.01 125.86C122.36 127.51 120.09 128.48 117.2 128.78V133.42H113.49V128.8C110.3 128.46 107.83 127.33 106.08 125.4C104.33 123.48 103.45 120.92 103.45 117.73H110.19C110.19 119.58 110.63 121 111.51 121.99C112.39 122.98 113.65 123.47 115.3 123.47C116.67 123.47 117.75 123.11 118.54 122.38C119.33 121.65 119.73 120.68 119.73 119.45L119.74 119.46Z" fill="#0F1616"/>
</svg>
