<svg width="150" height="150" viewBox="0 0 150 150" fill="none" xmlns="http://www.w3.org/2000/svg">
<path d="M62.7199 129.64C97.1162 129.64 125 101.756 125 67.3601C125 32.9638 97.1162 5.08008 62.7199 5.08008C28.3237 5.08008 0.439941 32.9638 0.439941 67.3601C0.439941 101.756 28.3237 129.64 62.7199 129.64Z" fill="#2D2D2D"/>
<path d="M100.67 99.8389C100.505 99.8389 100.337 99.8389 100.171 99.8389C96.8952 99.8389 93.6221 99.8328 90.3459 99.8481C89.9846 99.8481 89.7397 99.7379 89.4917 99.4807C83.8334 93.5958 78.1659 87.7202 72.5045 81.8353C70.6766 79.9369 68.518 78.5867 65.9399 78.0141C61.2186 76.9639 57.082 78.1519 53.6313 81.526C51.436 83.6724 49.3509 85.932 47.2168 88.1396C43.5609 91.9271 39.902 95.7146 36.2492 99.5052C36.0594 99.7012 35.8849 99.8481 35.5756 99.8451C32.1739 99.8328 28.7753 99.8389 25.3735 99.8359C25.2817 99.8359 25.1898 99.8236 25 99.8114C25.1562 99.6399 25.2603 99.5174 25.3735 99.4011C31.5401 93.0049 37.7067 86.6087 43.8732 80.2094C45.2204 78.8102 46.5646 77.4048 47.9179 76.0117C50.9522 72.8916 54.5744 70.8157 58.861 69.9951C64.9693 68.8286 70.5235 70.1635 75.4837 73.9082C76.3319 74.5481 77.1249 75.2737 77.8628 76.0361C85.3796 83.8102 92.8781 91.5995 100.383 99.3827C100.49 99.496 100.594 99.6093 100.698 99.7257C100.689 99.7624 100.68 99.7991 100.667 99.8328L100.67 99.8389Z" fill="white" stroke="white" stroke-miterlimit="10"/>
<path d="M100.572 34.0949C100.45 34.2266 100.327 34.3582 100.202 34.4899C93.3494 41.5964 86.4939 48.703 79.6384 55.8095C78.8975 56.5781 78.1718 57.3558 77.4094 58.1029C74.1975 61.2443 70.3825 63.2468 65.9305 63.8652C59.1088 64.8144 53.181 62.8303 48.2729 58.011C45.4223 55.2125 42.7064 52.2762 39.9324 49.398C35.1437 44.4348 30.358 39.4715 25.5723 34.5083C25.4437 34.3766 25.3182 34.2419 25.1406 34.0551C25.3029 34.0306 25.3886 34.0092 25.4713 34.0092C28.8883 34.0092 32.3053 34.0122 35.7193 34C36.0347 34 36.2031 34.1623 36.3868 34.3552C40.1376 38.2498 43.8914 42.1414 47.6421 46.0331C49.5466 48.0079 51.448 49.9828 53.3525 51.9547C55.2692 53.9387 57.5595 55.2798 60.2723 55.7881C64.8344 56.6454 68.8087 55.4207 72.1308 52.1843C73.7229 50.6319 75.2324 48.9939 76.7787 47.3925C80.9703 43.0508 85.162 38.7122 89.3445 34.3644C89.5925 34.1072 89.8405 34 90.1987 34C93.4902 34.0122 96.7817 34.0061 100.073 34.0061C100.223 34.0061 100.373 34.0061 100.523 34.0061C100.536 34.0367 100.551 34.0674 100.563 34.098L100.572 34.0949Z" fill="white" stroke="white" stroke-miterlimit="10"/>
<path d="M115.18 144.621C134.002 144.621 149.26 129.363 149.26 110.541C149.26 91.7191 134.002 76.4609 115.18 76.4609C96.3582 76.4609 81.1001 91.7191 81.1001 110.541C81.1001 129.363 96.3582 144.621 115.18 144.621Z" fill="#FCFFFF"/>
<path d="M115.18 144.92C106 144.92 97.3698 141.34 90.8698 134.85C84.3798 128.36 80.7998 119.73 80.7998 110.54C80.7998 101.35 84.3798 92.7302 90.8698 86.2302C97.3598 79.7402 105.99 76.1602 115.18 76.1602C124.37 76.1602 132.99 79.7402 139.49 86.2302C145.98 92.7202 149.56 101.35 149.56 110.54C149.56 119.73 145.98 128.35 139.49 134.85C133 141.34 124.37 144.92 115.18 144.92ZM115.18 76.7602C106.16 76.7602 97.6698 80.2702 91.2898 86.6502C84.9098 93.0302 81.3998 101.51 81.3998 110.53C81.3998 119.55 84.9098 128.04 91.2898 134.42C97.6698 140.8 106.15 144.31 115.18 144.31C124.21 144.31 132.69 140.8 139.07 134.42C145.45 128.04 148.96 119.56 148.96 110.53C148.96 101.5 145.45 93.0202 139.07 86.6502C132.69 80.2702 124.21 76.7602 115.18 76.7602Z" fill="white"/>
<path d="M119.91 119.459C119.91 118.179 119.56 117.169 118.85 116.409C118.14 115.659 116.94 114.959 115.24 114.319C113.54 113.679 112.08 113.049 110.85 112.419C109.62 111.789 108.57 111.069 107.69 110.249C106.81 109.429 106.13 108.469 105.64 107.369C105.15 106.269 104.9 104.949 104.9 103.429C104.9 100.799 105.74 98.6491 107.42 96.9691C109.1 95.2891 111.33 94.3091 114.12 94.0291V89.0391H117.85V94.0991C120.6 94.4891 122.76 95.6391 124.31 97.5391C125.87 99.4491 126.64 101.919 126.64 104.949H119.9C119.9 103.079 119.51 101.689 118.74 100.759C117.97 99.8291 116.94 99.3691 115.65 99.3691C114.36 99.3691 113.39 99.7291 112.69 100.459C111.99 101.179 111.64 102.179 111.64 103.459C111.64 104.639 111.98 105.589 112.67 106.309C113.35 107.029 114.63 107.759 116.49 108.499C118.35 109.249 119.88 109.949 121.08 110.609C122.28 111.269 123.29 112.019 124.11 112.849C124.93 113.679 125.56 114.629 126 115.699C126.44 116.769 126.65 118.009 126.65 119.419C126.65 122.069 125.83 124.209 124.18 125.859C122.53 127.509 120.26 128.479 117.37 128.779V133.419H113.66V128.799C110.47 128.459 108 127.329 106.25 125.399C104.5 123.479 103.62 120.919 103.62 117.729H110.36C110.36 119.579 110.8 120.999 111.68 121.989C112.56 122.979 113.82 123.469 115.47 123.469C116.84 123.469 117.92 123.109 118.71 122.379C119.5 121.649 119.9 120.679 119.9 119.449L119.91 119.459Z" fill="#0F1616"/>
</svg>
