<?xml version="1.0" encoding="UTF-8"?>
<svg id="Layer_1" data-name="Layer 1" xmlns="http://www.w3.org/2000/svg" viewBox="0 0 500 500">
  <defs>
    <style>
      .cls-1 {
        fill: #fcffff;
      }

      .cls-2 {
        fill: #111818;
        fill-rule: evenodd;
        stroke: #221f20;
        stroke-miterlimit: 10;
      }
    </style>
  </defs>
  <circle class="cls-1" cx="249.38" cy="250.59" r="249.5"/>
  <path class="cls-2" d="m250,489.04c132.55,0,240-107.02,240-239.04S382.55,10.96,250,10.96,10,117.98,10,250s107.45,239.04,240,239.04h0Zm0-82.06c96.94,0,175.52-78.07,175.52-174.38s-78.58-136.01-175.52-136.01-175.52,39.71-175.52,136.01,78.58,174.38,175.52,174.38Z"/>
  <path class="cls-2" d="m146.12,260.7c10.29,0,19.66-3.93,26.67-10.36,3.82,6.8,7.97,14.01,12.29,21.23,9.17,15.34,19.34,31.12,28.9,43.22,4.75,6.01,9.7,11.57,14.62,15.76,4.26,3.63,11.2,8.64,19.61,8.64s15.32-4.94,19.64-8.52c5-4.15,10.09-9.68,15-15.67,9.89-12.07,20.51-27.83,30.13-43.16,4.74-7.56,9.3-15.11,13.48-22.2,7.09,6.85,16.77,11.07,27.43,11.07,21.76,0,39.4-17.57,39.4-39.24s-17.64-39.25-39.4-39.25c-17.73,0-32.73,11.67-37.68,27.72-.97,1.75-2.03,3.64-3.17,5.66-6.34,11.26-15.01,26.21-24.37,41.12-9.41,15-19.28,29.56-28.03,40.24-4.4,5.37-8.17,9.33-11.16,11.81-.46.38-.87.7-1.22.96-.31-.24-.65-.52-1.05-.85-2.87-2.44-6.49-6.36-10.73-11.72-8.41-10.64-17.83-25.19-26.8-40.18-8.91-14.9-17.13-29.85-23.14-41.1-.81-1.52-1.58-2.98-2.31-4.35-4.42-16.86-19.81-29.31-38.13-29.31-21.76,0-39.4,17.57-39.4,39.25s17.64,39.24,39.4,39.24h.02Z"/>
</svg>