<?xml version="1.0" encoding="utf-8"?>
<!-- Generator: Adobe Illustrator 25.2.2, SVG Export Plug-In . SVG Version: 6.00 Build 0)  -->
<svg version="1.1" id="Ebene_1" xmlns="http://www.w3.org/2000/svg" xmlns:xlink="http://www.w3.org/1999/xlink" x="0px" y="0px"
	 viewBox="0 0 283.5 283.5" style="enable-background:new 0 0 283.5 283.5;" xml:space="preserve">
<style type="text/css">
	.st0{fill:url(#SVGID_1_);}
	.st1{fill:#FFFFFF;}
	.st2{fill:#460782;}
	.st3{fill-rule:evenodd;clip-rule:evenodd;fill:#460782;}
</style>
<linearGradient id="SVGID_1_" gradientUnits="userSpaceOnUse" x1="141.7" y1="947.7336" x2="141.7" y2="1153.2604" gradientTransform="matrix(1 0 0 1 0 -869.8354)">
	<stop  offset="0" style="stop-color:#3A056C"/>
	<stop  offset="1" style="stop-color:#4D078D"/>
</linearGradient>
<path class="st0" d="M141.8,0C63.4,0,0,63.4,0,141.8s63.4,141.7,141.7,141.7s141.7-63.4,141.7-141.7S219.9,0,141.8,0z M19.5,86.7
	C33.3,55.2,58.3,30.6,90,17.2C122.7,3.4,158.7,3,191.8,16c66.9,26.4,101.2,102,77.4,169.5L19.5,86.7z"/>
<path class="st1" d="M19.5,86.7C33.3,55.2,58.3,30.6,90,17.2C122.7,3.4,158.7,3,191.8,16c66.9,26.4,101.2,102,77.4,169.5L19.5,86.7z
	"/>
<g>
	<path class="st1" d="M78.8,171.3c-2.2-1-4.1-3.7-4.1-6.1V152l40.9,17.5l0.2,49.6c0,11.4,0,12,8.3,15.6l24.6,10.4v17.7l-40.9-17.5
		c-4.5-2-8.3-7.5-8.3-12.4v-17.7l-8.3-3.5c-4.5-2-8.3-7.5-8.3-12.4v-8.9l16.3,6.9v-17.7L78.8,171.3z"/>
	<path class="st1" d="M148.5,227.6l-8.3-3.5c-8.3-3.9-8.3-3.3-8.3-12.4V152l8.3,3.5c4.5,2,8.3,7.5,8.3,12.4V227.6z"/>
	<path class="st2" d="M182.1,125.4v-7.7l16.1-15.9c2-1.8,3.3-3.5,4.1-5.1c1-1.6,1.4-3.3,1.4-5.1c0-1.8-0.6-3.1-1.6-4.1
		s-3-1.6-5.5-1.6H183v-7.5c2.2-0.4,4.3-0.8,6.9-1c2.6-0.4,5.3-0.6,8.5-0.6c3.7,0,6.7,0.6,8.9,1.6s3.7,2.6,4.5,4.5
		c1,2,1.4,4.3,1.4,7.1c0,3.3-0.6,6.1-2,8.5s-3.1,4.9-5.7,7.5l-10.6,10.8H215v8.7h-32.9V125.4z M219.7,125.4l11.8-17.9l-11.8-16.9
		h9.6l7.7,11l6.9-11h9.8L242,108.7l11.8,16.9H244l-7.7-11l-6.9,11h-9.6v-0.2H219.7z"/>
</g>
<path class="st3" d="M167.1,57.2c-1.1-9.6-9.5-12.7-20.1-13.4l-0.2-13.4l-8.2,0.1l0.2,13c-2.1,0-4.3,0.1-6.5,0.2l-0.2-13.1l-8.2,0.1
	l0.2,13.4c-1.8,0.1-3.5,0.1-5.2,0.2l0,0l-11.3,0.2l0.2,8.7c0,0,6-0.2,5.9-0.1c3.3-0.1,4.4,1.8,4.8,3.5l0.3,15.2c0.2,0,0.5,0,0.9,0
	h-0.9l0.4,21.3c-0.1,1-0.7,2.7-3,2.7c0.1,0.1-5.9,0.1-5.9,0.1l-1.5,9.8l10.6-0.2c1.2,0,2.4,0,3.6,0l0,0c0.8,0,1.5,0,2.3,0l0.2,13.5
	l8.2-0.1l-0.2-13.4c2.2,0,4.4,0,6.5-0.1l0.2,13.3l8.2-0.1l-0.2-13.5c13.7-1,23.3-4.6,24.3-17.5c0.8-10.4-4.2-14.9-12-16.6
	C165,68.5,167.9,64.2,167.1,57.2z M135,95.6c6.7,0,21.3-0.1,21.2-9.3c-0.2-9.5-14.2-8.9-21.1-8.6c-0.8,0-1.4,0.1-2,0.1l0.3,17.9
	C133.9,95.6,134.4,95.6,135,95.6z M151.9,61.1c0.1,8.4-12,8.4-17.6,8.4c-0.5,0-1,0-1.3,0l-0.3-16.3c0.5,0,1,0,1.7-0.1
	C140.1,53,151.8,52.5,151.9,61.1z"/>
</svg>
