<svg width="64" height="64" viewBox="0 0 64 64" fill="none" xmlns="http://www.w3.org/2000/svg">
<path d="M0.417969 25.1827V56.5563H63.5778V25.1827H0.417969ZM1.56135 26.3261H10.1463C9.86058 30.9343 6.1696 34.6253 1.56135 34.911V26.3261ZM1.56135 55.4129V46.8279C6.1696 47.1137 9.86058 50.8046 10.1463 55.4129H1.56135ZM62.4344 55.4129H53.8494C54.1352 50.8046 57.8262 47.1137 62.4344 46.8279V55.4129ZM62.4344 45.6845C57.1955 45.9733 52.9949 50.174 52.7061 55.4129H11.2897C11.0009 50.174 6.80025 45.9733 1.56135 45.6845V36.0544C6.80025 35.7656 11.0009 31.565 11.2897 26.3261H52.7061C52.9949 31.565 57.1955 35.7656 62.4344 36.0544V45.6845ZM62.4344 34.911C57.8262 34.6253 54.1352 30.9343 53.8494 26.3261H62.4344V34.911Z" fill="#F7F6F2"/>
<path d="M60.5679 21.1571H3.42578V22.3005H60.5679V21.1571Z" fill="#F7F6F2"/>
<path d="M53.937 16.5851H10.0508V17.7285H53.937V16.5851Z" fill="#F7F6F2"/>
<path d="M49.8253 12.0134H14.168V13.1567H49.8253V12.0134Z" fill="#F7F6F2"/>
<path d="M46.8543 7.44287H17.1406V8.58625H46.8543V7.44287Z" fill="#F7F6F2"/>
<path d="M31.9954 31.6318C26.9022 31.6318 22.7578 35.7761 22.7578 40.8701C22.7578 45.9634 26.9022 50.1077 31.9954 50.1077C37.0886 50.1077 41.233 45.9634 41.233 40.8701C41.233 35.7761 37.0886 31.6318 31.9954 31.6318ZM31.9954 48.9643C27.5321 48.9643 23.9012 45.3334 23.9012 40.8701C23.9012 36.4061 27.5321 32.7752 31.9954 32.7752C36.4587 32.7752 40.0896 36.4061 40.0896 40.8701C40.0896 45.3334 36.4587 48.9643 31.9954 48.9643Z" fill="#F7F6F2"/>
<path d="M14.8969 37.0983C12.8172 37.0983 11.125 38.7905 11.125 40.8702C11.125 42.9498 12.8172 44.642 14.8969 44.642C16.9758 44.642 18.668 42.9498 18.668 40.8702C18.668 38.7905 16.9758 37.0983 14.8969 37.0983ZM14.8969 43.4987C13.4472 43.4987 12.2684 42.3199 12.2684 40.8702C12.2684 39.4205 13.4472 38.2416 14.8969 38.2416C16.3458 38.2416 17.5246 39.4205 17.5246 40.8702C17.5246 42.3199 16.3458 43.4987 14.8969 43.4987Z" fill="#F7F6F2"/>
<path d="M49.186 37.0983C47.1063 37.0983 45.4141 38.7905 45.4141 40.8702C45.4141 42.9498 47.1063 44.642 49.186 44.642C51.2656 44.642 52.9578 42.9498 52.9578 40.8702C52.9578 38.7905 51.2656 37.0983 49.186 37.0983ZM49.186 43.4987C47.7363 43.4987 46.5574 42.3199 46.5574 40.8702C46.5574 39.4205 47.7363 38.2416 49.186 38.2416C50.6356 38.2416 51.8145 39.4205 51.8145 40.8702C51.8145 42.3199 50.6356 43.4987 49.186 43.4987Z" fill="#F7F6F2"/>
</svg>
