<?xml version="1.0" encoding="utf-8"?>
<!-- Generator: Adobe Illustrator 26.0.2, SVG Export Plug-In . SVG Version: 6.00 Build 0)  -->
<svg version="1.1" id="Ebene_1" xmlns="http://www.w3.org/2000/svg" xmlns:xlink="http://www.w3.org/1999/xlink" x="0px" y="0px"
	 viewBox="0 0 284 284" style="enable-background:new 0 0 284 284;" xml:space="preserve">
<style type="text/css">
	.st0{clip-path:url(#SVGID_00000028303134221112064040000008614373298410482874_);}
	.st1{fill:url(#SVGID_00000173148509073904977780000005273110430731878279_);}
	.st2{fill:#FFFFFF;}
	.st3{fill:#ED254E;}
	.st4{fill-rule:evenodd;clip-rule:evenodd;fill:#ED254E;}
</style>
<g>
	<defs>
		<rect id="SVGID_1_" y="-0.000002" width="283.464996" height="283.464996"/>
	</defs>
	<clipPath id="SVGID_00000103984007916280751960000000546175811894756285_">
		<use xlink:href="#SVGID_1_"  style="overflow:visible;"/>
	</clipPath>
	<g style="clip-path:url(#SVGID_00000103984007916280751960000000546175811894756285_);">
		
			<linearGradient id="SVGID_00000017510752454402727950000016169396233260589957_" gradientUnits="userSpaceOnUse" x1="141.731903" y1="205.576065" x2="141.731903" y2="0.074545" gradientTransform="matrix(1 0 0 -1 0 283.464569)">
			<stop  offset="0" style="stop-color:#ED254E"/>
			<stop  offset="1" style="stop-color:#370D6E"/>
		</linearGradient>
		<path style="fill:url(#SVGID_00000017510752454402727950000016169396233260589957_);" d="M141.832001-0.000002
			c-78.390106,0-141.782196,63.392101-141.782196,141.781998c0,78.391006,63.392094,141.682999,141.68219,141.682999
			c78.290009,0,141.682007-63.39299,141.682007-141.682999C283.414001,63.492096,219.921997-0.000002,141.832001-0.000002z
			 M19.5474,86.689201C33.3456,55.193096,58.342499,30.596199,90.038597,17.197899
			c32.695404-13.798321,68.691399-14.198271,101.787407-1.199901c66.891006,26.396698,101.186996,101.987,77.389999,169.479004
			L19.5474,86.689201z"/>
		<path class="st2" d="M19.5474,86.689201C33.3456,55.193195,58.342499,30.596199,90.038597,17.197899
			c32.695404-13.798271,68.691399-14.198221,101.787407-1.1998c66.891006,26.396696,101.186996,101.9869,77.389999,169.478912
			L19.5474,86.689201z"/>
		<path class="st2" d="M78.839699,171.279007c-2.199699-1-4.099503-3.700012-4.099503-6.100006v-13.197998l40.894806,17.498001
			l0.199997,49.593994c0,11.397995,0,11.998001,8.299004,15.598007l24.597,10.397995v17.697998l-40.895004-17.498001
			c-4.499001-1.998993-8.298897-7.498993-8.298897-12.397995v-17.697998l-8.298904-3.499008
			c-4.499496-2-8.298996-7.5-8.298996-12.399002v-8.898987l16.297997,6.898987v-17.696991L78.839699,171.279007z"/>
		<path class="st2" d="M148.531006,227.572006l-8.299011-3.5c-8.298996-3.900009-8.298996-3.300003-8.298996-12.39801v-59.692993
			l8.298996,3.5c4.5,1.998993,8.299011,7.498993,8.299011,12.397995V227.572006z"/>
		<path class="st3" d="M215.056,129.115005l11.798996-17.897003L215.056,94.319801h9.598999l7.699005,10.998199l6.899002-10.998199
			h9.798996l-11.699005,18.098198l11.798996,16.897003h-9.798996l-7.69899-10.998001l-6.899002,10.998001h-9.598999v-0.199997
			H215.056L215.056,129.115005z"/>
		<path class="st3" d="M169.847,104.025002h19.253998V111.819H169.847V104.025002z"/>
		<path class="st3" d="M191.393005,95.391403l-3.896011-7.335007L201.556,79.957802h8.404007v49.358192H200.638V90.272903
			L191.393005,95.391403z"/>
	</g>
</g>
<path class="st4" d="M167.100006,57.199997C166,47.599995,157.600006,44.499996,147,43.799999l-0.199997-13.399998l-8.199997,0.1
	L138.800003,43.5c-2.100006,0-4.300003,0.099998-6.5,0.200001l-0.199997-13.099998l-8.199997,0.1l0.199997,13.4
	c-1.800003,0.099998-3.5,0.099998-5.199997,0.200001l0,0l-11.300003,0.200001l0.199997,8.700001c0,0,6-0.200001,5.900002-0.099998
	c3.300003-0.099998,4.400002,1.799999,4.800003,3.5l0.300003,15.200005c0.199997,0,0.5,0,0.900002,0h-0.900002l0.400002,21.299995
	c-0.099998,1-0.699997,2.699997-3,2.699997c0.099998,0.099998-5.900002,0.099998-5.900002,0.099998l-1.5,9.800003
	l10.599998-0.199997c1.199997,0,2.400002,0,3.599998,0l0,0c0.800003,0,1.5,0,2.300003,0l0.199997,13.5l8.200005-0.099998
	l-0.199997-13.400002c2.199997,0,4.399994,0,6.5-0.099998l0.199997,13.300003l8.199997-0.099998l-0.199997-13.5
	c13.699997-1,23.300003-4.599998,24.300003-17.5c0.800003-10.400002-4.199997-14.900002-12-16.599998
	C165,68.5,167.899994,64.199997,167.100006,57.199997z M135,95.599998c6.699997,0,21.300003-0.099998,21.199997-9.300003
	C156,76.799995,142,77.399994,135.099991,77.699997c-0.800003,0-1.399994,0.099998-2,0.099998l0.300003,17.900002
	C133.899994,95.599998,134.399994,95.599998,135,95.599998z M151.899994,61.099995C152,69.5,139.899994,69.5,134.299988,69.5
	c-0.5,0-1,0-1.300003,0l-0.300003-16.300003c0.5,0,1,0,1.699997-0.099998
	C140.100006,52.999996,151.800003,52.499996,151.899994,61.099995z"/>
</svg>
