<svg width="58" height="58" viewBox="0 0 58 58" fill="none" xmlns="http://www.w3.org/2000/svg">
<path d="M57.5 29C57.5 44.7402 44.7399 57.5 29 57.5C13.2601 57.5 0.5 44.7402 0.5 29C0.5 13.2598 13.2601 0.5 29 0.5C44.7399 0.5 57.5 13.2598 57.5 29ZM29 48.5446C40.9887 48.5446 50.7082 38.8507 50.7082 26.888C50.7082 20.8879 48.2596 16.6064 44.2819 13.8449C40.3299 11.1011 34.914 9.88735 29 9.88735C23.086 9.88735 17.6697 11.1 13.717 13.8431C9.73875 16.6041 7.28949 20.8856 7.28949 26.888C7.28949 38.8554 17.0115 48.5446 29 48.5446Z" fill="#020203" stroke="#F7F6F2"/>
<path d="M16.8689 29.7218L16.8677 29.7218C16.0674 29.7224 15.2839 29.5043 14.6064 29.0935C13.9289 28.6827 13.3852 28.0962 13.0354 27.4022C12.6856 26.7082 12.5432 25.9336 12.6233 25.1661C12.7034 24.3984 13.0031 23.6667 13.49 23.0544C13.977 22.4419 14.6321 21.9732 15.3817 21.7031C16.1314 21.4331 16.9445 21.3732 17.728 21.5305C18.5114 21.6878 19.2322 22.0558 19.8091 22.5908C20.3859 23.1258 20.7955 23.8061 20.9933 24.5537L21.0087 24.612L21.0375 24.6649L21.3165 25.1774L21.3172 25.1787C22.0474 26.51 23.0466 28.277 24.129 30.0413C25.1202 31.6995 26.2144 33.2971 27.4055 34.8253C27.8126 35.348 28.2678 35.8332 28.7654 36.2748L28.7711 36.2798L28.7769 36.2846C28.8334 36.3319 28.8851 36.3716 28.9294 36.4039L29.2217 36.6175L29.5158 36.4064C29.5661 36.3703 29.6239 36.3268 29.6868 36.2758L29.6869 36.2759L29.6961 36.268C30.215 35.8257 30.6917 35.3382 31.1203 34.8116L31.1213 34.8104C32.3582 33.2815 33.5014 31.6827 34.5449 30.0223C35.683 28.2598 36.7312 26.4884 37.5009 25.1617C37.6138 24.9781 37.7229 24.7849 37.8198 24.6132C37.8439 24.5704 37.8673 24.529 37.8898 24.4895L37.916 24.4433L37.9319 24.3927C38.2016 23.5361 38.7519 22.7862 39.502 22.2587C40.2523 21.731 41.1608 21.4554 42.0891 21.4757C43.0173 21.496 43.9119 21.811 44.6369 22.3707L44.9424 21.9749L44.6369 22.3707C45.3616 22.9302 45.8766 23.7031 46.1065 24.5703C46.3363 25.4373 46.2692 26.3537 45.9149 27.1809C45.5605 28.0083 44.9371 28.703 44.137 29.1571C43.3366 29.6114 42.4045 29.7993 41.4828 29.6909C40.5611 29.5825 39.703 29.1842 39.0382 28.5588L38.5853 28.1329L38.2664 28.6665C37.7708 29.496 37.2138 30.3897 36.6433 31.2682L36.6433 31.2682L36.6396 31.274C35.5397 33.0196 34.3336 34.6998 33.0277 36.3054C32.5041 36.9491 31.9197 37.5441 31.2822 38.0824C30.7756 38.4938 30.0525 38.9725 29.2243 38.9725C28.3989 38.9725 27.6747 38.4878 27.1731 38.0729C26.55 37.5314 25.9812 36.9339 25.4742 36.2883C24.2158 34.6776 23.0597 32.9937 22.0121 31.2459L22.0122 31.2459L22.0095 31.2415C21.4892 30.3934 20.9823 29.5486 20.5329 28.7542L20.2272 28.2139L19.7644 28.6276C18.9766 29.332 17.9431 29.7238 16.8689 29.7218Z" fill="#020203" stroke="#F7F6F2"/>
</svg>
